<svg width="100" height="108" viewBox="0 0 100 108" fill="none" xmlns="http://www.w3.org/2000/svg">
<g clip-path="url(#clip0_62_2)" filter="url(#filter0_d_62_2)">
<path d="M11.3168 29.373L11.7629 30.4782L12.8479 30.9447L12.5944 31.5328L8.42688 29.738L8.68038 29.1499L11.0024 30.1538L9.65382 26.8887L9.94788 26.1992L11.0531 28.795L14.1661 27.8824L13.8619 28.5719L11.3168 29.373V29.373Z" fill="#A54A2F"/>
<path d="M17.0235 22.1938L17.5001 22.5081L15.6749 25.2459L11.8926 22.7312L13.6671 20.0644L14.1437 20.3787L12.7343 22.5081L13.8902 23.2787L15.1476 21.3826L15.6039 21.6868L14.3465 23.5829L15.5633 24.3941L17.0235 22.1938V22.1938ZM11.994 20.3888L12.4301 19.7297L12.5416 21.0986L12.2171 21.5955L11.994 20.3888V20.3888Z" fill="#A54A2F"/>
<path d="M21.578 17.002L21.9937 17.3974L19.3776 20.1454L19.0531 19.8412L18.465 15.339L16.5283 17.3772L16.1227 16.9817L18.6577 14.325L18.9822 14.6292L19.5601 19.1212L21.578 17.002V17.002Z" fill="#A54A2F"/>
<path d="M26.8531 12.818L27.1877 13.2743L24.1355 15.5253L23.8719 15.1704L24.0646 10.648L21.8033 12.311L21.4687 11.8445L24.4195 9.66443L24.6831 10.0295L24.4904 14.562L26.8531 12.818V12.818Z" fill="#A54A2F"/>
<path d="M32.6554 9.66103L32.9089 10.168L29.9582 11.6282L27.9403 7.56206L30.8099 6.14246L31.0634 6.64946L28.7718 7.78514L29.3903 9.03235L31.4386 8.01836L31.682 8.51522L29.6337 9.52921L30.2826 10.8373L32.6554 9.66103V9.66103Z" fill="#A54A2F"/>
<path d="M34.8134 4.60556L35.442 4.4129L36.5777 8.2154L38.9302 7.51574L39.0924 8.0633L36.1113 8.95562L34.8134 4.60556V4.60556Z" fill="#A54A2F"/>
<path d="M47.8464 4.98361L47.015 5.82523L47.0251 7.00147L46.3761 7.01161L46.3559 2.46889L47.0048 2.45875L47.015 4.99375L49.4688 2.44861H50.2091L48.2825 4.50703L50.3612 6.99133H49.6007L47.8464 4.98361V4.98361Z" fill="#A54A2F"/>
<path d="M56.7213 7.33364L56.6199 7.89134L53.3751 7.3235L54.166 2.85176L57.3195 3.40946L57.2181 3.96716L54.7034 3.521L54.46 4.8899L56.7111 5.28536L56.6199 5.83292L54.3688 5.43746L54.1153 6.87734L56.7213 7.33364V7.33364ZM56.3562 2L57.137 2.14196L55.9101 2.78078L55.3321 2.67938L56.3562 2V2Z" fill="#A54A2F"/>
<path d="M61.14 9.31304C60.8155 9.19643 60.5214 9.03419 60.2578 8.82632C59.9992 8.62352 59.8116 8.41058 59.6899 8.1875L60.0955 7.79204C60.2096 8.00245 60.3795 8.19764 60.6025 8.38016C60.8256 8.56268 61.069 8.69957 61.3326 8.7959C61.6825 8.92265 61.9664 8.95814 62.1844 8.8973C62.4075 8.84153 62.552 8.71732 62.6204 8.52212C62.6736 8.37509 62.666 8.2382 62.6001 8.11652C62.5393 7.98977 62.448 7.87316 62.3263 7.77176C62.2047 7.67036 62.0247 7.54615 61.7889 7.39658C61.4898 7.20139 61.2566 7.02901 61.0893 6.87944C60.927 6.73241 60.8053 6.55243 60.7242 6.34202C60.6431 6.13415 60.6482 5.89079 60.7445 5.61194C60.8307 5.38886 60.9676 5.20634 61.1501 5.06438C61.3377 4.91735 61.576 4.83623 61.8599 4.82102C62.1438 4.80074 62.4683 4.85651 62.8333 4.98326C63.0767 5.07199 63.3099 5.19367 63.533 5.3483C63.7561 5.49787 63.931 5.67025 64.0603 5.86544L63.6851 6.28118C63.5431 6.09866 63.3809 5.94149 63.1984 5.8046C63.0209 5.67025 62.8384 5.56885 62.6508 5.5004C62.2985 5.37365 62.012 5.34323 61.7889 5.40914C61.5709 5.46998 61.429 5.6018 61.363 5.8046C61.3073 5.94656 61.3123 6.08345 61.3732 6.2102C61.4391 6.33949 61.5354 6.45356 61.6571 6.55496C61.7838 6.65636 61.9613 6.78311 62.1844 6.93014C62.481 7.12027 62.7142 7.29265 62.884 7.44728C63.0513 7.59685 63.1781 7.77683 63.2592 7.9847C63.3403 8.19511 63.3302 8.43086 63.2288 8.6945C63.1527 8.91758 63.0209 9.1001 62.8333 9.24206C62.6432 9.38402 62.4024 9.46514 62.1134 9.48542C61.8295 9.5057 61.505 9.4474 61.14 9.31304V9.31304Z" fill="#A54A2F"/>
<path d="M69.0458 12.4589L68.7618 12.9557L65.4663 11.0798L65.6894 10.6945L69.9077 9.03154L67.4741 7.64236L67.758 7.15564L70.9419 8.9707L70.7189 9.35602L66.5006 11.0088L69.0458 12.4589V12.4589Z" fill="#A54A2F"/>
<path d="M74.2355 11.3067L74.7425 11.7123L71.9439 15.2918L71.4369 14.8862L74.2355 11.3067V11.3067ZM75.5537 10.7997L76.1723 11.2865H74.7932L74.3268 10.9214L75.5537 10.7997V10.7997Z" fill="#A54A2F"/>
<path d="M78.2944 15.6788L77.2195 14.5634L77.6353 14.1679L80.2413 16.8753L79.8255 17.2707L78.7507 16.1553L75.8912 18.9134L75.4349 18.4368L78.2944 15.6788V15.6788Z" fill="#A54A2F"/>
<path d="M81.1943 24.8475L80.7279 25.1618L78.8824 22.4342L82.6443 19.8789L84.4391 22.5356L83.9625 22.8601L82.5328 20.7408L81.387 21.5216L82.6646 23.4076L82.1982 23.722L80.9205 21.8359L79.7139 22.6573L81.1943 24.8475V24.8475Z" fill="#A54A2F"/>
<path d="M86.3652 27.3426L85.7163 25.9332L86.2334 25.7L87.795 29.107L87.2778 29.3402L86.6289 27.9308L83.0089 29.5836L82.7452 28.9955L86.3652 27.3426V27.3426Z" fill="#A54A2F"/>
<path d="M88.7266 33.7584L88.321 32.2577L88.8686 32.1157L89.8522 35.7357L89.3046 35.8777L88.899 34.3769L85.0661 35.4214L84.8937 34.8028L88.7266 33.7584V33.7584Z" fill="#A54A2F"/>
<path d="M49.7044 14.7304C30.4866 14.7304 14.9039 30.3105 14.9039 49.5309C14.9039 68.7512 30.4866 84.3313 49.7044 84.3313C68.9248 84.3313 84.5049 68.7512 84.5049 49.5309C84.5049 30.3105 68.9248 14.7304 49.7044 14.7304Z" fill="#FEF0E7"/>
<path d="M45.4177 76.7922C43.8105 76.194 42.5937 74.8276 41.6025 73.4714C40.5454 72.0214 39.6785 70.4446 38.6442 68.9819C37.2956 67.0933 35.8303 65.3036 34.2434 63.6128C33.4449 62.7585 32.6236 61.9245 31.7743 61.1183C31.0189 60.3984 30.2533 59.6785 29.4447 59.0194C28.167 57.9927 26.7956 57.1156 25.3278 56.388C23.7181 55.5642 22.0374 54.9431 20.2832 54.5197C18.6025 54.1294 16.8609 53.962 15.1447 54.2155C13.4995 54.426 12.0597 55.0927 10.8276 56.2081C10.128 56.8621 9.4486 57.5415 8.80471 58.2487C8.12787 58.9991 7.46623 59.8052 7.00233 60.7102C6.58659 61.529 6.41674 62.4289 6.33309 63.339C6.24183 64.3378 6.27478 65.3341 6.43449 66.3227C6.49786 66.741 6.6018 67.1466 6.74629 67.542C6.79446 67.6992 6.90093 67.7879 7.06317 67.8082C7.22541 67.831 7.34962 67.7727 7.43581 67.6333C8.17603 66.4342 8.2242 64.9437 8.99484 63.7649C9.20271 63.4734 9.42579 63.1971 9.66408 62.9334C9.87448 62.6799 10.0874 62.4289 10.3029 62.1856C10.7161 61.7039 11.1775 61.273 11.687 60.8953C12.303 60.4567 12.9976 60.1525 13.6821 59.8407C14.4147 59.5061 15.1574 59.1943 15.9103 58.9078C17.4415 58.307 19.0182 57.8659 20.6381 57.5846C21.4721 57.4477 22.3112 57.3666 23.1553 57.3361C24.0147 57.288 24.8589 57.3742 25.6878 57.5947C26.1568 57.7316 26.357 56.9964 25.8881 56.8621C24.3772 56.4185 22.7421 56.5477 21.2059 56.7429C19.5202 56.9686 17.88 57.3742 16.2855 57.9597C15.487 58.2462 14.7011 58.5681 13.9254 58.9053C13.1751 59.2019 12.4475 59.5466 11.7402 59.9396C10.5463 60.657 9.67929 61.7268 8.79204 62.7813C8.50812 63.1058 8.26476 63.4607 8.06703 63.846C7.88958 64.2212 7.74001 64.609 7.6234 65.007C7.38765 65.7777 7.20513 66.5585 6.78178 67.2454L7.47384 67.3367C7.17978 66.4976 7.03528 65.6332 7.03782 64.7409C7.00233 63.8181 7.09359 62.9106 7.3116 62.0132C7.53468 61.1564 8.0214 60.3959 8.56389 59.7013C9.20271 58.9129 9.88716 58.1676 10.6172 57.468C11.1952 56.895 11.7529 56.3475 12.445 55.9317C13.099 55.5439 13.7961 55.2625 14.5389 55.0927C16.0878 54.7276 17.7457 54.7986 19.3199 55.0927C21.031 55.4247 22.6737 55.9622 24.2505 56.7075C25.7486 57.3919 27.1606 58.2284 28.4814 59.2171C29.1608 59.7266 29.8427 60.3528 30.4916 60.951C31.3358 61.7293 32.1571 62.5303 32.9582 63.3542C34.5527 64.9944 36.0357 66.7308 37.4096 68.5636C38.4946 70.0187 39.4021 71.5904 40.4187 73.0912C41.4149 74.564 42.5506 76.0368 44.0818 76.9748C44.4443 77.1953 44.8245 77.3804 45.2225 77.5274C45.3214 77.5527 45.4177 77.5401 45.5064 77.4894C45.5977 77.4387 45.656 77.3626 45.6864 77.2612C45.7118 77.1598 45.6991 77.0635 45.6459 76.9748C45.5952 76.8835 45.5191 76.8227 45.4202 76.7922H45.4177V76.7922Z" fill="#A54A2F"/>
<path d="M36.4692 66.7182C35.6909 65.9577 35.1636 64.6319 34.6161 63.6736C33.8885 62.4087 33.1407 61.1893 32.3143 59.9776C30.664 57.5592 29.0188 54.649 26.3165 53.2776C25.2138 52.7199 23.8094 52.0988 22.5393 52.398C24.2226 51.8225 25.6472 50.9961 27.5155 51.3409C29.1075 51.6349 30.8871 52.1825 32.218 53.1559C34.9735 55.1788 37.2043 58.7253 37.2271 62.2566C37.2271 63.2579 36.0179 65.983 36.6491 66.7334" fill="#A54A2F"/>
<path d="M39.7545 70.9972C37.6302 70.1835 35.5692 69.2227 33.5767 68.1225C32.5779 67.5598 31.6121 66.9463 30.6792 66.2771C29.8072 65.6712 28.9859 65.002 28.2203 64.2643C27.4547 63.5038 26.7094 62.6419 25.7208 62.1653L25.5306 62.8726C26.4711 62.9055 27.3939 63.2275 28.2507 63.6128C29.1937 64.0564 30.1063 64.5558 30.986 65.116C32.8314 66.2517 34.6947 67.3849 36.3906 68.7385C37.4173 69.5497 38.3603 70.4471 39.2222 71.4333C39.2957 71.5068 39.3844 71.5423 39.4884 71.5397C39.5898 71.5397 39.6785 71.5017 39.752 71.4282C39.823 71.3547 39.861 71.2659 39.861 71.162C39.861 71.0581 39.8255 70.9693 39.7545 70.8958C38.2006 69.0934 36.3044 67.6307 34.3296 66.3278C33.4449 65.7447 32.5399 65.187 31.64 64.6268C30.7375 64.0488 29.8072 63.5266 28.8464 63.0576C27.8045 62.5658 26.6942 62.1526 25.5306 62.1121C25.1707 62.0994 24.9983 62.6571 25.3405 62.8219C26.2202 63.2477 26.8818 63.9905 27.5612 64.6775C28.3268 65.4253 29.1456 66.1098 30.0176 66.7283C31.8859 68.0845 33.8708 69.243 35.9672 70.2012C37.146 70.7539 38.3451 71.2533 39.5543 71.7248C39.6557 71.7527 39.7495 71.74 39.8407 71.6867C39.932 71.636 39.9903 71.56 40.0207 71.4586C40.0461 71.3572 40.0308 71.2609 39.9801 71.1696C39.9294 71.0809 39.8534 71.02 39.7545 70.9896V70.9972V70.9972Z" fill="#A54A2F"/>
<path d="M53.8948 76.7922C55.4994 76.194 56.7187 74.8276 57.7074 73.4714C58.7645 72.0214 59.634 70.4446 60.6683 68.9819C62.0144 67.0933 63.4821 65.3036 65.0665 63.6128C65.865 62.7585 66.6889 61.9245 67.5356 61.1183C68.291 60.3984 69.0566 59.6785 69.8652 59.0194C71.1429 57.9927 72.5169 57.1156 73.9821 56.388C75.5918 55.5642 77.2725 54.9431 79.0293 54.5197C80.71 54.1294 82.4515 53.962 84.1652 54.2155C85.8104 54.426 87.2503 55.0927 88.4848 56.2081C89.1845 56.8621 89.8639 57.5415 90.5052 58.2487C91.1846 58.9991 91.8462 59.8052 92.3076 60.7102C92.7259 61.529 92.8957 62.4289 92.9768 63.339C93.0681 64.3378 93.0351 65.3341 92.8754 66.3227C92.8146 66.741 92.7107 67.1466 92.5662 67.542C92.5155 67.6992 92.4115 67.7879 92.2493 67.8082C92.0871 67.831 91.9628 67.7727 91.8741 67.6333C91.1339 66.4342 91.0883 64.9437 90.3151 63.7649C90.1097 63.4734 89.8867 63.1971 89.6484 62.9334C89.4354 62.6799 89.225 62.4289 89.007 62.1856C88.5938 61.7039 88.1325 61.273 87.6255 60.8953C87.0069 60.4567 86.3149 60.1525 85.6279 59.8407C84.8953 59.5061 84.1525 59.1943 83.4021 58.9078C81.8685 58.307 80.2942 57.8659 78.6744 57.5846C77.8404 57.4477 76.9987 57.3666 76.1546 57.3361C75.2978 57.288 74.4536 57.3742 73.6221 57.5947C73.1531 57.7316 72.9554 56.9964 73.4219 56.8621C74.9327 56.4185 76.5678 56.5477 78.1065 56.7429C79.7898 56.9686 81.4299 57.3742 83.027 57.9597C83.8255 58.2462 84.6088 58.5681 85.3845 58.9053C86.1349 59.2019 86.8624 59.5466 87.5697 59.9396C88.7662 60.657 89.6306 61.7268 90.5179 62.7813C90.8043 63.1058 91.0452 63.4607 91.2454 63.846C91.4229 64.2212 91.5699 64.609 91.6891 65.007C91.9223 65.7777 92.1048 66.5585 92.5281 67.2454L91.8386 67.3367C92.1301 66.4976 92.2746 65.6332 92.2721 64.7409C92.3076 63.8181 92.2163 62.9106 92.0009 62.0132C91.7752 61.1564 91.2911 60.3959 90.746 59.7013C90.1098 58.9129 89.4253 58.1676 88.6927 57.468C88.1147 56.895 87.557 56.3475 86.865 55.9317C86.2109 55.5439 85.5138 55.2625 84.7736 55.0927C83.2222 54.7276 81.5643 54.7986 79.99 55.0927C78.2815 55.4247 76.6362 55.9622 75.0595 56.7075C73.5613 57.3919 72.1518 58.2284 70.8286 59.2171C70.1517 59.7266 69.4698 60.3528 68.8183 60.951C67.9741 61.7293 67.1528 62.5303 66.3517 63.3542C64.7598 64.9944 63.2743 66.7308 61.9028 68.5636C60.8153 70.0187 59.9103 71.5904 58.8912 73.0912C57.895 74.564 56.7593 76.0368 55.2282 76.9748C54.8657 77.1953 54.4879 77.3804 54.09 77.5274C53.9886 77.5527 53.8948 77.5401 53.8035 77.4894C53.7122 77.4387 53.6539 77.3626 53.626 77.2612C53.6007 77.1598 53.6134 77.0635 53.6641 76.9748C53.7148 76.8835 53.7908 76.8227 53.8897 76.7922H53.8948V76.7922Z" fill="#A54A2F"/>
<path d="M62.8433 66.7182C63.619 65.9577 64.1463 64.6319 64.6938 63.6736C65.4214 62.4087 66.1692 61.1893 66.9982 59.9776C68.6459 57.5592 70.2937 54.649 72.9934 53.2776C74.0962 52.7199 75.5031 52.0988 76.7706 52.398C75.0873 51.8225 73.6627 50.9961 71.7944 51.3409C70.2024 51.6349 68.4228 52.1825 67.092 53.1559C64.3364 55.1788 62.1056 58.7253 62.0828 62.2566C62.0828 63.2579 63.292 65.983 62.6633 66.7334" fill="#A54A2F"/>
<path d="M59.5554 70.9972C61.6823 70.1835 63.7407 69.2227 65.7332 68.1225C66.7345 67.5598 67.7003 66.9463 68.6332 66.2771C69.5053 65.6712 70.3241 65.002 71.0896 64.2643C71.8552 63.5038 72.6005 62.6419 73.5892 62.1653L73.7793 62.8726C72.8388 62.9055 71.916 63.2275 71.0592 63.6128C70.1162 64.0564 69.2061 64.5558 68.3265 65.116C66.481 66.2517 64.6178 67.3849 62.9193 68.7385C61.8927 69.5497 60.9496 70.4471 60.0903 71.4333C60.0142 71.5068 59.9255 71.5423 59.8241 71.5397C59.7202 71.5397 59.6314 71.5017 59.5605 71.4282C59.487 71.3547 59.4515 71.2659 59.4489 71.162C59.4489 71.0581 59.4844 70.9693 59.5554 70.8958C61.1094 69.0934 63.0055 67.6307 64.9828 66.3278C65.8675 65.7447 66.77 65.187 67.6699 64.6268C68.5724 64.0488 69.5027 63.5266 70.4635 63.0576C71.5054 62.5658 72.6182 62.1526 73.7793 62.1121C74.1418 62.0994 74.3116 62.6571 73.9694 62.8219C73.0898 63.2477 72.4281 63.9905 71.7513 64.6775C70.9832 65.4253 70.1644 66.1098 69.2949 66.7283C67.424 68.0845 65.4417 69.243 63.3427 70.2012C62.1664 70.7539 60.9649 71.2533 59.7557 71.7248C59.6568 71.7527 59.5605 71.74 59.4692 71.6867C59.3805 71.636 59.3196 71.56 59.2918 71.4586C59.2664 71.3572 59.2791 71.2609 59.3298 71.1696C59.3805 71.0809 59.4565 71.02 59.5554 70.9896V70.9972V70.9972Z" fill="#A54A2F"/>
<path d="M50.4674 71.2659L50.939 70.4801L52.2141 68.3507L54.0976 65.2022L56.412 61.3465L58.9445 57.1206L61.4871 52.872L63.8548 48.9123L65.8676 45.5585L67.3074 43.1503C67.5356 42.7624 67.7764 42.3923 67.9944 42.007C68.002 41.9892 68.0122 41.974 68.0223 41.9563C68.0654 41.8802 68.0781 41.7991 68.0553 41.7129C68.0324 41.6267 67.9843 41.5608 67.9082 41.5152L66.0881 40.3947L61.7583 37.7228L56.5058 34.4831L51.9682 31.6769C51.2355 31.2282 50.5156 30.7415 49.7678 30.3206C49.7551 30.3156 49.745 30.308 49.7348 30.3004C49.6258 30.2395 49.5194 30.2395 49.4103 30.3004L47.5902 31.4183L43.2604 34.0953L38.0079 37.335L33.4677 40.1336C32.7351 40.5823 31.9873 41.0183 31.2674 41.4898L31.2369 41.5101C31.1609 41.5558 31.1127 41.6217 31.0899 41.7079C31.0671 41.794 31.0772 41.8752 31.1203 41.9512L31.602 42.7548L32.91 44.9374L34.8366 48.1518L37.1942 52.0887L39.7774 56.4007L42.3757 60.7356L44.8068 64.7966L46.8627 68.2265L48.3355 70.6778C48.5687 71.0657 48.7943 71.4637 49.0377 71.849L49.0681 71.8997C49.1138 71.9757 49.1797 72.0264 49.2633 72.0493C49.3495 72.0721 49.4306 72.0594 49.5067 72.0163L50.3584 71.3699C50.4319 71.3242 50.4801 71.2583 50.5029 71.1721C50.5257 71.0885 50.5156 71.0074 50.475 70.9288C50.4294 70.8527 50.3635 70.8046 50.2773 70.7818C50.1911 70.7589 50.11 70.7691 50.034 70.8147C49.75 71.0251 49.4661 71.2406 49.1847 71.4586L49.6233 71.5752L49.1366 70.7792L47.8285 68.5966L45.8994 65.3822L43.5469 61.4454L40.9612 57.1333L38.3654 52.7959L35.9343 48.7374L33.8784 45.3076L32.4081 42.8486C32.1749 42.4608 31.9645 42.0501 31.7059 41.6774C31.6958 41.6622 31.6856 41.6445 31.6755 41.6267L31.5614 42.0678L33.379 40.9474L37.7113 38.2755L42.9638 35.0332L47.5015 32.232L48.9921 31.3144C49.238 31.18 49.4737 31.033 49.7019 30.8758C49.712 30.8682 49.7247 30.8631 49.7348 30.8555H49.4103L51.2305 31.9785L55.5628 34.6479L60.8128 37.8901L65.353 40.6888L66.8435 41.6141C67.0768 41.756 67.3074 41.9309 67.5533 42.0501C67.5635 42.0577 67.5736 42.0628 67.5838 42.0704L67.4697 41.6293L66.9982 42.4151L65.7231 44.5445L63.837 47.693L61.5276 51.5513L58.9977 55.7746L56.4526 60.0232L54.0849 63.9804L52.0721 67.3367L50.6271 69.7449C50.399 70.1328 50.1607 70.5029 49.9427 70.8882C49.9326 70.906 49.9224 70.9212 49.9123 70.9389C49.6993 71.2938 50.2545 71.6234 50.4674 71.2659V71.2659Z" fill="#A54A2F"/>
<path d="M31.313 42.1008L33.123 42.6002L37.4857 43.8068L42.7408 45.2594L47.2733 46.5167C48.0009 46.7195 48.7259 46.9502 49.4585 47.1226C49.6233 47.1404 49.7805 47.1175 49.9351 47.0542L51.0682 46.7398L55.18 45.5991L60.4122 44.1541L65.14 42.8461L67.7105 42.1287L67.8297 42.0957C68.2276 41.9867 68.0603 41.3631 67.6598 41.4746L65.8473 41.974L61.5023 43.1756L56.2498 44.6332L51.7223 45.8855L50.2291 46.2987C49.9959 46.3621 49.7475 46.4103 49.5219 46.4939L49.4889 46.5041H49.6613L47.8488 46.0021L43.5013 44.8006L38.2462 43.348L33.7212 42.0957C32.9861 41.8929 32.256 41.6648 31.5158 41.4848H31.4828C31.0848 41.3758 30.915 42.0019 31.313 42.1058V42.1008V42.1008Z" fill="#A54A2F"/>
<path d="M50.1277 71.4687L50.6956 69.7272L52.1431 65.2985L54.0595 59.4275L56.0799 53.2345L57.8037 47.9566L58.8304 44.8082C58.8938 44.613 59.0433 44.3341 58.9369 44.1364C58.8076 43.9006 58.6352 43.6801 58.4882 43.457L55.7123 39.2666L52.1938 33.9558L49.9604 30.5817L49.8514 30.417C49.821 30.3688 49.7805 30.3308 49.7323 30.3029C49.6816 30.275 49.6284 30.2623 49.5726 30.2623C49.5168 30.2623 49.4636 30.275 49.4129 30.3029C49.3647 30.3308 49.3241 30.3688 49.2963 30.417L47.7398 32.8835L44.4468 38.1082L41.4327 42.8816L40.6621 44.0958C40.5835 44.2251 40.5024 44.3214 40.5353 44.4837C40.5429 44.5268 40.5607 44.5699 40.5733 44.613L41.382 47.1632L42.9334 52.0937L44.8423 58.1701L46.7587 64.2693L48.3025 69.1441L49.0884 71.6513L49.1264 71.7603C49.1797 71.9402 49.423 72.0873 49.5979 71.9555L49.9833 71.6614C50.0568 71.6158 50.1049 71.5499 50.1277 71.4637C50.1506 71.38 50.1404 71.2989 50.0973 71.2203C50.0517 71.1443 49.9858 71.0936 49.9021 71.0733C49.8159 71.0505 49.7348 71.0606 49.6588 71.1037L49.2709 71.3978L49.745 71.5904L49.5143 70.8603L48.8881 68.8729L47.9705 65.9526L46.8449 62.3706L45.6028 58.4439L44.3556 54.4817L43.1996 50.7857L42.2185 47.6778L41.5113 45.4318C41.4023 45.0794 41.3136 44.7068 41.1767 44.3645C41.1767 44.3493 41.1691 44.3316 41.1615 44.3164L41.131 44.5673L42.0031 43.1858L44.0843 39.8903L46.5965 35.9027L48.7817 32.4424L49.4965 31.3118C49.6182 31.1369 49.7297 30.9595 49.8362 30.7744C49.8388 30.7643 49.8438 30.7567 49.8514 30.749H49.2963L50.1962 32.1129L52.3636 35.3906L54.9899 39.3528L57.2638 42.7751L58.0091 43.9006C58.1181 44.0882 58.2372 44.2682 58.3665 44.4406C58.3716 44.4482 58.3792 44.4558 58.3817 44.4634L58.3487 44.2175L58.1155 44.9374L57.4716 46.9046L56.5159 49.8275L55.36 53.379L54.0849 57.2702L52.7996 61.1969L51.6006 64.8752L50.5891 67.973L49.8616 70.1962C49.7475 70.5485 49.6182 70.8984 49.5168 71.2533C49.5168 71.271 49.5067 71.2862 49.5016 71.3014C49.3799 71.6918 49.9985 71.8642 50.1277 71.4687V71.4687Z" fill="#A54A2F"/>
<path d="M32.8416 21.6357C32.583 23.139 32.1876 24.7842 31.1938 25.9959C30.9201 26.3382 30.6007 26.6246 30.2331 26.8629C30.152 26.9111 30.0987 26.9795 30.0759 27.0708C30.0531 27.1595 30.0632 27.2457 30.1114 27.3268C30.6868 28.1304 31.204 28.972 31.6603 29.8491C32.0862 30.6806 32.4968 31.6008 32.5932 32.5337C32.5932 32.6174 32.6211 32.6909 32.6794 32.7542C32.7351 32.8176 32.8036 32.8556 32.8898 32.8683C32.9734 32.8785 33.052 32.8633 33.123 32.8151C33.1965 32.7695 33.2421 32.7061 33.2675 32.625C33.4677 31.6034 33.7922 30.6223 34.2358 29.6793C34.7023 28.7287 35.331 27.9048 36.127 27.2026C36.165 27.1646 36.1929 27.1215 36.2081 27.0708C36.2258 27.0201 36.2309 26.9694 36.2258 26.9187C36.2182 26.8654 36.2005 26.8173 36.1701 26.7742C36.1422 26.7286 36.1041 26.6931 36.0585 26.6677C35.3335 26.3508 34.6643 25.8869 34.2257 25.238C33.8176 24.6068 33.5844 23.9198 33.5235 23.1745C33.4779 22.6928 33.4753 22.2087 33.5159 21.7245C33.5134 21.6307 33.4804 21.5521 33.4145 21.4862C33.3461 21.4203 33.2649 21.3848 33.1711 21.3848C33.0774 21.3873 32.9962 21.4203 32.9303 21.4862C32.8644 21.5521 32.8289 21.6307 32.8289 21.7245C32.7072 23.4255 33.019 25.2481 34.3753 26.4244C34.7783 26.7691 35.222 27.0454 35.7112 27.2558L35.6428 26.7209C34.8037 27.4612 34.137 28.3307 33.6427 29.3295C33.1686 30.3257 32.8213 31.3651 32.6058 32.445L33.2776 32.5362C33.1762 31.502 32.7655 30.5234 32.2991 29.6032C31.8301 28.6906 31.2978 27.8186 30.697 26.9846L30.5753 27.4485C32.0684 26.5181 32.8036 24.7944 33.2193 23.1643C33.3334 22.7182 33.4246 22.267 33.5032 21.8157C33.526 21.7245 33.5134 21.6383 33.4677 21.5572C33.4196 21.4786 33.3511 21.4228 33.2624 21.3975C33.1711 21.3721 33.085 21.3848 33.0013 21.4304C32.9202 21.476 32.8669 21.5445 32.8416 21.6357V21.6357Z" fill="#A54A2F"/>
<path d="M28.6183 29.3295C28.4408 30.3587 28.1366 31.6515 27.1784 32.2624C27.0973 32.3106 27.0466 32.3791 27.0212 32.4703C26.9984 32.559 27.0086 32.6452 27.0567 32.7264C27.3837 33.1827 27.6778 33.6592 27.9389 34.1561C28.1797 34.6149 28.4155 35.1346 28.4687 35.6517C28.4712 35.7354 28.4991 35.8089 28.5549 35.8723C28.6107 35.9357 28.6817 35.9711 28.7653 35.9838C28.8515 35.9965 28.9301 35.9788 29.0011 35.9331C29.072 35.885 29.1202 35.8216 29.143 35.7405C29.3991 34.5744 29.8401 33.4869 30.7553 32.6782C30.7933 32.6402 30.8187 32.5971 30.8364 32.5464C30.8541 32.4982 30.8592 32.4475 30.8516 32.3943C30.844 32.341 30.8263 32.2954 30.7984 32.2498C30.768 32.2067 30.7299 32.1712 30.6843 32.1433C30.1469 31.9354 29.7514 31.5729 29.5005 31.0558C29.2748 30.564 29.2546 29.9759 29.2926 29.4258C29.2926 29.332 29.2596 29.2509 29.1912 29.185C29.1253 29.119 29.0442 29.0836 28.9478 29.0836C28.854 29.0836 28.7729 29.119 28.707 29.185C28.6386 29.2509 28.6056 29.332 28.6056 29.4258C28.5346 30.1077 28.636 30.7643 28.9073 31.3955C29.2165 32.0216 29.6931 32.4678 30.3395 32.7365L30.2686 32.2016C29.2723 33.0813 28.7602 34.293 28.4839 35.563L29.1582 35.6543C29.0746 35.0383 28.8844 34.4578 28.5853 33.9127C28.3141 33.3804 28.0023 32.8683 27.6524 32.3816L27.5282 32.848C28.6538 32.1332 29.0644 30.7414 29.2799 29.5094C29.3027 29.4207 29.2901 29.3345 29.2444 29.2534C29.1988 29.1723 29.1303 29.119 29.0391 29.0937C28.9478 29.0683 28.8616 29.0785 28.7805 29.1267C28.6969 29.1723 28.6436 29.2407 28.6183 29.3295V29.3295Z" fill="#A54A2F"/>
<path d="M72.887 32.9342C73.1455 34.44 73.541 36.0827 74.5347 37.297C74.806 37.6366 75.1254 37.9256 75.4955 38.1614C75.5766 38.2096 75.6273 38.278 75.6527 38.3693C75.6755 38.458 75.6628 38.5442 75.6172 38.6253C75.0392 39.4314 74.522 40.2705 74.0657 41.1476C73.6424 41.9791 73.2292 42.8993 73.1354 43.8347C73.1329 43.9184 73.105 43.9919 73.0492 44.0553C72.9934 44.1186 72.9225 44.1541 72.8388 44.1668C72.7526 44.1795 72.6766 44.1617 72.603 44.1161C72.5321 44.0679 72.4839 44.0046 72.4611 43.9234C72.2583 42.9018 71.9363 41.9208 71.4902 40.9778C71.0263 40.0297 70.3951 39.2033 69.5991 38.5011C69.5636 38.4631 69.5357 38.42 69.518 38.3693C69.5002 38.3211 69.4951 38.2704 69.5028 38.2172C69.5104 38.1639 69.5281 38.1158 69.556 38.0727C69.5864 38.0296 69.6219 37.9941 69.6675 37.9662C70.3951 37.6519 71.0643 37.1854 71.5003 36.5365C71.9085 35.9078 72.1442 35.2208 72.2051 34.4755C72.2482 33.9913 72.2507 33.5071 72.2127 33.0229C72.2127 32.9317 72.2481 32.8506 72.3141 32.7847C72.38 32.7187 72.4611 32.6858 72.5549 32.6833C72.6487 32.6858 72.7298 32.7187 72.7957 32.7847C72.8642 32.8506 72.8971 32.9317 72.8996 33.0229C73.0213 34.7239 72.707 36.5491 71.3508 37.7228C70.9502 38.0676 70.5041 38.3439 70.0148 38.5543L70.0858 38.0194C70.9223 38.7597 71.5891 39.6292 72.0834 40.6279C72.56 41.6242 72.9047 42.6635 73.1227 43.7435L72.4484 43.8347C72.5524 42.8004 72.9605 41.8219 73.4269 40.9017C73.8959 39.9891 74.4308 39.1171 75.029 38.2831L75.1507 38.7495C73.6601 37.8166 72.9225 36.0928 72.5067 34.4628C72.3926 34.0167 72.3014 33.5654 72.2253 33.1142C72.2025 33.0229 72.2152 32.9393 72.2608 32.8582C72.3065 32.7771 72.3749 32.7238 72.4662 32.6959C72.5574 32.6731 72.6436 32.6833 72.7247 32.7289C72.8058 32.7771 72.8616 32.8455 72.887 32.9342V32.9342Z" fill="#A54A2F"/>
<path d="M77.1103 40.628C77.2877 41.6572 77.5894 42.95 78.5476 43.561C78.6287 43.6091 78.682 43.6776 78.7048 43.7688C78.7301 43.8601 78.7175 43.9463 78.6718 44.0274C78.3423 44.4812 78.0482 44.9577 77.7871 45.4546C77.5463 45.916 77.3105 46.4356 77.2598 46.9502C77.2573 47.0339 77.2294 47.1074 77.1711 47.1708C77.1153 47.2342 77.0444 47.2722 76.9607 47.2823C76.877 47.295 76.7985 47.2773 76.7249 47.2316C76.654 47.186 76.6058 47.1201 76.583 47.039C76.3295 45.8729 75.8884 44.7854 74.9707 43.9767C74.9352 43.9412 74.9074 43.8956 74.8896 43.8474C74.8744 43.7967 74.8693 43.746 74.8744 43.6928C74.882 43.6421 74.8997 43.5939 74.9302 43.5483C74.9581 43.5052 74.9961 43.4697 75.0417 43.4443C75.5791 43.2339 75.9746 42.8714 76.2281 42.3543C76.4512 41.8625 76.474 41.2769 76.436 40.7243C76.436 40.6305 76.4689 40.5494 76.5348 40.4835C76.6033 40.4176 76.6844 40.3846 76.7782 40.3846C76.872 40.3846 76.9531 40.4176 77.0215 40.4835C77.0875 40.5494 77.1204 40.6305 77.1204 40.7243C77.1914 41.4062 77.0925 42.0628 76.8187 42.6965C76.512 43.3201 76.0354 43.7663 75.3865 44.035L75.4575 43.5001C76.4537 44.3823 76.9683 45.594 77.2421 46.8641L76.5678 46.9528C76.6514 46.3393 76.8416 45.7588 77.1407 45.2112C77.4145 44.6789 77.7237 44.1693 78.0736 43.6801L78.1978 44.1465C77.0722 43.4317 76.6616 42.0425 76.4486 40.8105C76.4258 40.7192 76.436 40.633 76.4841 40.5544C76.5298 40.4733 76.5982 40.4176 76.6869 40.3922C76.7782 40.3669 76.8644 40.3795 76.948 40.4252C77.0292 40.4708 77.0824 40.5392 77.1103 40.628V40.628Z" fill="#A54A2F"/>
<path d="M7.49323 101.965C9.39955 101.779 11.4732 100.094 12.6367 97.764C12.6545 97.6981 12.6722 97.6474 12.6722 97.6119C12.6722 97.4269 12.5353 97.2748 12.3325 97.2748C12.1982 97.2748 12.0968 97.3432 12.0309 97.4623C11.0853 99.3687 9.11056 101.308 7.08763 101.308C5.36636 101.308 4.67431 99.8072 4.67431 97.9161C4.67431 96.4331 5.09765 94.7626 5.75422 93.3455C6.73273 91.2034 7.86334 90.5443 8.70749 90.5443C9.61756 90.5443 10.2412 91.3048 10.1905 91.7941C10.1753 91.9944 10.3274 92.1642 10.5276 92.1642C10.7152 92.1642 10.8496 92.045 10.8648 91.86C10.951 90.9829 10.0054 89.87 8.70749 89.87C7.60984 89.87 6.27643 90.6635 5.14835 93.0591C4.42081 94.5927 4 96.3469 4 97.9009C4 100.144 4.89485 101.982 7.05467 101.982H7.27268C7.34113 101.982 7.40704 101.982 7.49323 101.965V101.965Z" fill="#A54A2F"/>
<path d="M14.1369 102C15.4196 102 16.1294 101.004 16.1294 99.7058C16.1294 99.1152 15.9773 98.4408 15.6553 97.7817C16.213 97.5967 16.9203 97.4953 17.7315 97.4953C17.9343 97.4953 18.1701 97.5105 18.3881 97.5282C18.5909 97.546 18.743 97.3939 18.743 97.1911C18.743 97.006 18.6264 96.8717 18.4388 96.8539C18.1878 96.8362 17.9495 96.821 17.6985 96.821C16.753 96.821 15.9773 96.9731 15.3182 97.1733C14.796 96.3469 14.1217 95.6397 13.531 94.9147C12.9733 94.1896 12.5348 93.3278 12.5348 92.5013C12.5348 91.9791 12.6869 91.4899 13.0925 91.0843C13.4474 90.7294 13.8352 90.5621 14.2738 90.5621C15.1661 90.5621 15.9773 91.2871 16.213 92.334C16.2637 92.5191 16.3803 92.6027 16.5502 92.6027H16.6186C16.8037 92.552 16.8873 92.4329 16.8873 92.2656V92.1971C16.6186 90.7801 15.4525 89.8878 14.2738 89.8878C13.6831 89.8878 13.0925 90.088 12.6032 90.6128C12.081 91.1527 11.8604 91.8093 11.8604 92.4836C11.8604 93.4469 12.3167 94.4761 12.9911 95.3355C13.5462 96.0605 14.1876 96.6841 14.6768 97.4116C13.7338 97.8147 12.6691 98.5397 12.2306 99.4675C12.0962 99.7565 12.0303 100.025 12.0303 100.261C12.0303 101.275 13.0088 102 14.1369 102V102ZM14.796 101.138C14.6109 101.257 14.3752 101.308 14.0862 101.308C13.4119 101.308 12.7198 100.92 12.7198 100.261C12.7198 100.094 12.7553 99.9238 12.839 99.7717C13.2446 98.9631 14.1876 98.3394 15.014 97.9998C15.2675 98.5245 15.4525 99.1659 15.4525 99.7565C15.4525 100.345 15.2675 100.869 14.796 101.138V101.138Z" fill="#A54A2F"/>
<path d="M24.8823 98.4561C25.5744 98.1696 26.3171 97.7133 27.0751 97.1227C27.1613 97.0568 27.212 96.9731 27.212 96.8717C27.212 96.8033 27.1765 96.7348 27.1258 96.6512C27.0751 96.5675 26.9914 96.5346 26.8748 96.5346C26.7886 96.5346 26.705 96.5498 26.6543 96.6005C26.1143 97.0238 25.6073 97.3432 25.1206 97.5967C25.3057 96.8717 25.3893 96.0783 25.3893 95.3178C25.3893 93.9007 25.1029 92.5343 24.4438 91.4544C23.7517 90.3086 22.8416 89.8523 21.9468 89.8523C20.1089 89.8523 18.304 91.86 18.304 94.1719C18.304 94.9654 18.5245 95.807 19.0113 96.6005C18.8946 97.1911 18.8439 97.7488 18.8439 98.2381C18.8439 100.634 20.0253 101.982 21.3916 101.982C22.6236 101.982 24.0229 100.885 24.8823 98.4561V98.4561ZM24.3424 97.9339C23.9215 98.086 23.483 98.1519 23.0444 98.1519C21.6096 98.1519 20.3954 97.3939 19.7388 96.4661C19.8909 95.7411 20.1596 95.0161 20.4968 94.357C20.5145 94.2885 20.5297 94.2378 20.5297 94.2049C20.5297 94.0883 20.479 94.0021 20.3624 93.9184C20.3117 93.8855 20.2433 93.8677 20.1926 93.8677C20.0582 93.8677 19.9568 93.9362 19.9061 94.0528C19.6374 94.542 19.4523 95.0668 19.2648 95.589C19.0797 95.0997 18.996 94.6105 18.996 94.1212C18.996 92.1465 20.479 90.5443 21.9468 90.5443C23.0267 90.5443 24.1066 91.4215 24.5629 93.6497C24.6795 94.1897 24.7302 94.7271 24.7302 95.3178C24.7302 96.1949 24.5959 97.072 24.3424 97.9339V97.9339ZM24.0559 98.7096C23.2624 100.532 22.2865 101.308 21.4068 101.308C20.3801 101.308 19.536 100.195 19.536 98.2203C19.536 97.9516 19.5512 97.6474 19.5867 97.3255C20.4461 98.2026 21.6603 98.8287 23.0267 98.8287C23.3816 98.8287 23.7365 98.7932 24.0559 98.7096V98.7096Z" fill="#A54A2F"/>
<path d="M25.9965 101.544C26.468 101.83 27.008 101.982 27.6316 101.982C28.9143 101.982 30.3136 101.359 31.3428 100.598C33.4342 99.0645 34.3113 97.0238 34.3113 95.1327C34.3113 92.6357 32.7269 90.5114 30.1615 90.5114C29.8928 90.5114 29.6064 90.5443 29.2844 90.595C29.3351 90.4759 29.3529 90.3415 29.3529 90.2249C29.3529 90.0373 29.2185 89.87 29.0335 89.87C28.8814 89.87 28.7445 89.9537 28.6938 90.1387C28.6431 90.3593 28.6279 90.5621 28.5772 90.7801C27.7153 91.0513 26.9573 91.5228 26.501 92.2833C26.4858 92.3163 26.468 92.367 26.468 92.4507C26.468 92.6028 26.5187 92.6864 26.6379 92.7371C26.6886 92.7726 26.7367 92.7878 26.7874 92.7878C26.9066 92.7878 27.008 92.7371 27.0916 92.6205C27.3629 92.1464 27.8521 91.8093 28.4428 91.5558C28.0702 93.7841 27.8851 96.0275 27.8851 98.2888C27.8851 98.811 27.9028 99.318 27.9181 99.8402C27.9181 100.025 28.0702 100.177 28.2552 100.177H28.273C28.4935 100.16 28.5924 100.043 28.5924 99.8224C28.5772 99.3002 28.5594 98.7603 28.5594 98.2381C28.5594 95.9084 28.7622 93.599 29.1678 91.32C29.4872 91.2364 29.8244 91.2034 30.1615 91.2034C32.3213 91.2034 33.6218 92.9906 33.6218 95.1175C33.6218 96.7855 32.8283 98.6766 30.9398 100.058C29.9942 100.75 28.7622 101.308 27.6316 101.308C27.1753 101.308 26.7545 101.224 26.3666 100.971C26.3159 100.935 26.2475 100.92 26.1816 100.92C26.0624 100.92 25.961 100.971 25.8951 101.087C25.8596 101.138 25.8444 101.207 25.8444 101.257C25.8444 101.374 25.8951 101.475 25.9965 101.544V101.544Z" fill="#A54A2F"/>
<path d="M35.9807 101.982C36.1683 101.982 36.3027 101.83 36.3027 101.645C36.252 100.786 36.3534 99.3509 36.5562 97.731C38.0569 97.224 38.9847 96.9883 40.1483 96.8032V97.4953C40.1483 98.5904 40.1305 99.721 40.0798 100.852C40.0798 101.072 40.1812 101.189 40.4018 101.207C40.5868 101.207 40.7567 101.072 40.7567 100.885C40.8074 99.7895 40.8226 98.6082 40.8226 97.4446V96.7018L41.649 96.6004C41.8366 96.5827 41.9355 96.4661 41.9355 96.281V96.2303C41.9202 96.0453 41.7859 95.9261 41.5983 95.9261H41.5653L40.8074 96.0275C40.7567 93.0083 40.7212 90.4607 39.3548 89.9714C39.1875 89.9207 39.0532 89.8878 38.934 89.8878C37.0277 89.8878 36.2013 94.9299 35.93 97.2088C35.6436 97.3254 35.3242 97.4268 34.9693 97.546C34.8172 97.5967 34.7335 97.7133 34.7335 97.8654C34.7335 97.9161 34.7335 97.9516 34.7513 97.9668C34.802 98.1189 34.9186 98.2025 35.0707 98.2025H35.1214C35.1898 98.2025 35.3064 98.1518 35.8464 97.9516C35.6613 99.503 35.6106 100.852 35.6284 101.663C35.6284 101.848 35.7779 101.982 35.9655 101.982H35.9807V101.982ZM36.6576 96.9883C36.8578 95.5712 37.6361 90.5773 38.9518 90.5773C39.3396 90.5773 39.6261 90.9651 39.8111 91.6242C39.9962 92.2833 40.0798 94.0021 40.1305 96.1112C38.9163 96.2962 38.0062 96.5675 36.6576 96.9883V96.9883Z" fill="#A54A2F"/>
<path d="M43.1833 101.982C43.3709 101.982 43.5053 101.83 43.5053 101.645C43.4546 100.786 43.556 99.3509 43.7588 97.7311C45.2595 97.2241 46.1873 96.9883 47.3509 96.8032V97.4953C47.3509 98.5904 47.3331 99.721 47.2824 100.852C47.2824 101.072 47.3838 101.189 47.6044 101.207C47.7894 101.207 47.9593 101.072 47.9593 100.885C48.01 99.7895 48.0252 98.6082 48.0252 97.4446V96.7018L48.8516 96.6005C49.0392 96.5827 49.138 96.4661 49.138 96.281V96.2303C49.1228 96.0453 48.9885 95.9261 48.8009 95.9261H48.7679L48.01 96.0275C47.9593 93.0084 47.9238 90.4607 46.5574 89.9714C46.3901 89.9207 46.2557 89.8878 46.1366 89.8878C44.2303 89.8878 43.4039 94.9299 43.1326 97.2089C42.8462 97.3255 42.5268 97.4269 42.1719 97.546C42.0198 97.5967 41.9361 97.7133 41.9361 97.8654C41.9361 97.9161 41.9361 97.9516 41.9538 97.9668C42.0045 98.1189 42.1212 98.2026 42.2733 98.2026H42.324C42.3924 98.2026 42.509 98.1519 43.049 97.9516C42.8639 99.503 42.8132 100.852 42.8309 101.663C42.8309 101.848 42.9805 101.982 43.1681 101.982H43.1833V101.982ZM43.8602 96.9883C43.9261 95.6726 44.7702 90.5773 46.1366 90.5773C46.5244 90.5773 46.8286 90.9651 47.0137 91.6242C47.1988 92.2833 47.2824 94.0021 47.3331 96.1112C46.1188 96.2962 45.2088 96.5675 43.8602 96.9883V96.9883ZM45.2924 89.2464C45.3431 89.2464 45.3431 89.2287 45.3938 89.2287C45.9667 89.0436 46.5244 88.8231 47.0644 88.5696C47.1988 88.5214 47.2672 88.42 47.2672 88.2679C47.2672 88.2502 47.2495 88.1995 47.2317 88.131C47.1835 87.9967 47.0821 87.9308 46.93 87.9308C46.9123 87.9308 46.8616 87.946 46.7932 87.9637C46.2709 88.2172 45.731 88.4023 45.1758 88.5873C45.0389 88.638 44.9553 88.7572 44.9553 88.8915C44.9553 88.9422 44.9553 88.9929 44.973 89.0107C45.006 89.1602 45.1074 89.2464 45.2924 89.2464V89.2464Z" fill="#A54A2F"/>
<path d="M51.7523 102C53.035 102 53.7448 101.004 53.7448 99.7058C53.7448 99.1152 53.5927 98.4408 53.2708 97.7817C53.8285 97.5967 54.5357 97.4953 55.3469 97.4953C55.5497 97.4953 55.7855 97.5105 56.0035 97.5282C56.2063 97.546 56.3584 97.3939 56.3584 97.1911C56.3584 97.006 56.2418 96.8717 56.0542 96.8539C55.8032 96.8362 55.5649 96.821 55.314 96.821C54.3684 96.821 53.5927 96.9731 52.9336 97.1733C52.4114 96.3469 51.7371 95.6397 51.1464 94.9147C50.5887 94.1896 50.1502 93.3278 50.1502 92.5013C50.1502 91.9791 50.3023 91.4899 50.7079 91.0843C51.0628 90.7294 51.4506 90.5621 51.8892 90.5621C52.7815 90.5621 53.5927 91.2871 53.8285 92.334C53.8792 92.5191 53.9958 92.6027 54.1656 92.6027H54.2341C54.4191 92.552 54.5028 92.4329 54.5028 92.2656V92.1971C54.2341 90.7801 53.068 89.8878 51.8892 89.8878C51.2985 89.8878 50.7079 90.088 50.2186 90.6128C49.6964 91.1527 49.4759 91.8093 49.4759 92.4836C49.4759 93.4469 49.9322 94.4761 50.6065 95.3355C51.1616 96.0605 51.803 96.6841 52.2922 97.4116C51.3492 97.8147 50.2845 98.5397 49.846 99.4675C49.7116 99.7565 49.6457 100.025 49.6457 100.261C49.6457 101.275 50.6242 102 51.7523 102V102ZM52.4114 101.138C52.2263 101.257 51.9906 101.308 51.7016 101.308C51.0273 101.308 50.3352 100.92 50.3352 100.261C50.3352 100.094 50.3707 99.9238 50.4544 99.7717C50.86 98.9631 51.803 98.3394 52.6294 97.9998C52.8829 98.5245 53.068 99.1659 53.068 99.7565C53.068 100.345 52.8829 100.869 52.4114 101.138V101.138Z" fill="#A54A2F"/>
<path d="M58.5507 101.914C59.1743 101.696 59.1921 101.46 60.1376 96.3824L61.3189 90.2249C61.3671 90.0221 61.1998 89.8371 60.997 89.8371C60.8449 89.8371 60.7105 89.9207 60.6598 90.1058C58.8372 99.4675 58.6699 101.323 58.2313 101.323C58.1806 101.323 58.1299 101.308 58.0792 101.257C57.1337 100.514 56.6267 95.8754 56.6267 92.6535C56.6267 91.9944 56.6444 91.4214 56.6951 90.9322C56.7128 90.7294 56.5607 90.5621 56.3579 90.5621C56.1729 90.5621 56.0537 90.6787 56.0385 90.8663C55.9878 91.3885 55.9701 92.0298 55.9701 92.7726C55.9701 94.9983 56.1729 97.9998 56.7128 99.9061C56.9816 100.834 57.4049 101.982 58.2136 101.982C58.3327 101.982 58.4493 101.965 58.5507 101.914V101.914Z" fill="#A54A2F"/>
<path d="M62.1766 101.982C62.3642 101.982 62.4985 101.83 62.4985 101.645C62.4478 100.786 62.5492 99.3509 62.752 97.7311C64.2527 97.2241 65.1805 96.9883 66.3441 96.8032V97.4953C66.3441 98.5904 66.3264 99.721 66.2757 100.852C66.2757 101.072 66.3771 101.189 66.5976 101.207C66.7827 101.207 66.9525 101.072 66.9525 100.885C67.0032 99.7895 67.0184 98.6082 67.0184 97.4446V96.7018L67.8448 96.6005C68.0324 96.5827 68.1313 96.4661 68.1313 96.281V96.2303C68.1161 96.0453 67.9817 95.9261 67.7941 95.9261H67.7612L67.0032 96.0275C66.9525 93.0084 66.917 90.4607 65.5507 89.9714C65.3833 89.9207 65.249 89.8878 65.1298 89.8878C63.2235 89.8878 62.3971 94.9299 62.1259 97.2089C61.8394 97.3255 61.52 97.4269 61.1651 97.546C61.013 97.5967 60.9294 97.7133 60.9294 97.8654C60.9294 97.9161 60.9293 97.9516 60.9471 97.9668C60.9978 98.1189 61.1144 98.2026 61.2665 98.2026H61.3172C61.3857 98.2026 61.5023 98.1519 62.0422 97.9516C61.8572 99.503 61.8065 100.852 61.8242 101.663C61.8242 101.848 61.9738 101.982 62.1614 101.982H62.1766V101.982ZM62.8534 96.9883C62.9193 95.6726 63.7635 90.5773 65.1298 90.5773C65.5177 90.5773 65.8219 90.9651 66.007 91.6242C66.192 92.2833 66.2757 94.0021 66.3264 96.1112C65.1121 96.2962 64.202 96.5675 62.8534 96.9883V96.9883ZM64.2857 89.2464C64.3364 89.2464 64.3364 89.2287 64.3871 89.2287C64.96 89.0436 65.5177 88.8231 66.0577 88.5696C66.192 88.5214 66.2605 88.42 66.2605 88.2679C66.2605 88.2502 66.2427 88.1995 66.225 88.131C66.1768 87.9967 66.0754 87.9308 65.9233 87.9308C65.9056 87.9308 65.8549 87.946 65.7864 87.9637C65.2642 88.2172 64.7242 88.4023 64.1691 88.5873C64.0322 88.638 63.9485 88.7572 63.9485 88.8915C63.9485 88.9422 63.9485 88.9929 63.9663 89.0107C63.9992 89.1602 64.1006 89.2464 64.2857 89.2464V89.2464Z" fill="#A54A2F"/>
<path d="M68.8063 101.982C68.9913 101.982 69.1434 101.848 69.1434 101.663C69.1434 101.29 69.8684 95.3025 71.3539 91.8778C71.8939 90.6128 72.264 90.5266 72.3325 90.5266C72.5175 90.5114 72.7026 90.8663 72.8217 91.1857C73.3439 92.5191 73.4783 94.1212 73.4783 95.8754C73.4783 97.764 73.2932 99.721 73.1589 101.544C73.1411 101.747 73.311 101.899 73.5138 101.899C73.6988 101.899 73.818 101.779 73.8332 101.594C73.9675 99.7717 74.1551 97.8147 74.1551 95.9084C74.1551 94.0883 73.9853 92.3493 73.4453 90.9322C73.0904 90.0044 72.6189 89.8371 72.2818 89.8523C70.9838 89.9714 69.9876 93.4292 69.4983 95.4876C69.3969 95.8932 69.3133 96.2303 69.2626 96.4838C69.2778 94.9476 69.3133 93.3962 69.364 91.8448C69.364 91.6572 69.2119 91.4899 69.0268 91.4899C68.8392 91.4899 68.6897 91.642 68.6897 91.8271C68.6035 95.082 68.5528 98.3902 68.4691 101.645C68.4691 101.83 68.6035 101.982 68.7885 101.982H68.8063V101.982Z" fill="#A54A2F"/>
<path d="M78.4712 101.374C79.4675 100.431 79.8376 98.9631 80.0759 97.5967C80.664 97.4117 81.2394 97.2925 81.8301 97.1734C81.9974 97.1227 82.0811 97.0238 82.0811 96.8362V96.7703C82.0329 96.5827 81.9315 96.4991 81.7616 96.4991C81.7109 96.4991 81.7287 96.5168 81.678 96.5168C81.1887 96.6334 80.6995 96.7196 80.1747 96.8717C80.446 94.6612 80.4789 92.7371 81.0696 90.3086C81.1203 90.1235 81.0037 89.9537 80.8161 89.903C80.631 89.8523 80.4637 89.9714 80.413 90.1565C79.8731 92.3163 78.0682 95.5053 76.6663 95.5053C76.4812 95.5053 76.2962 95.4546 76.1441 95.3355C75.9742 95.2163 75.8906 94.9654 75.8906 94.6105C75.8906 93.6649 76.4305 92.1642 76.7018 91.3378C76.7525 91.1527 76.6663 90.9829 76.4812 90.917C76.2962 90.8663 76.1111 90.9499 76.0604 91.135C75.6041 92.4684 75.2163 93.6827 75.2163 94.6105C75.2163 95.2011 75.3684 95.6219 75.7562 95.8932C76.0604 96.096 76.3646 96.1949 76.6663 96.1949C77.949 96.1949 79.0974 94.6105 79.8731 93.2441C79.721 94.5927 79.6525 95.8932 79.4675 97.0897C78.0175 97.6297 75.8247 99.1152 75.8247 100.684C75.8247 101.475 76.3976 101.982 77.1226 101.982C77.5434 101.982 78.0175 101.797 78.4712 101.374V101.374ZM78.0174 100.885C77.7132 101.174 77.4091 101.323 77.1226 101.323C76.7677 101.323 76.5142 101.054 76.5142 100.649C76.5142 99.9568 77.2417 98.8287 79.3331 97.8832C79.1303 98.9631 78.8084 100.127 78.0174 100.885V100.885Z" fill="#A54A2F"/>
<path d="M88.1201 98.4561C88.8121 98.1696 89.5549 97.7133 90.3128 97.1227C90.399 97.0568 90.4497 96.9731 90.4497 96.8717C90.4497 96.8033 90.4142 96.7348 90.3635 96.6512C90.3128 96.5675 90.2292 96.5346 90.1126 96.5346C90.0264 96.5346 89.9427 96.5498 89.892 96.6005C89.3521 97.0238 88.8451 97.3432 88.3584 97.5967C88.5434 96.8717 88.6271 96.0783 88.6271 95.3178C88.6271 93.9007 88.3406 92.5343 87.6815 91.4544C86.9895 90.3086 86.0794 89.8523 85.1845 89.8523C83.3467 89.8523 81.5417 91.86 81.5417 94.1719C81.5417 94.9654 81.7623 95.807 82.249 96.6005C82.1324 97.1911 82.0817 97.7488 82.0817 98.2381C82.0817 100.634 83.263 101.982 84.6294 101.982C85.8614 101.982 87.2607 100.885 88.1201 98.4561V98.4561ZM87.5801 97.9339C87.1593 98.086 86.7208 98.1519 86.2822 98.1519C84.8474 98.1519 83.6331 97.3939 82.9766 96.4661C83.1287 95.7411 83.3974 95.0161 83.7345 94.357C83.7523 94.2885 83.7675 94.2378 83.7675 94.2049C83.7675 94.0883 83.7168 94.0021 83.6002 93.9184C83.5495 93.8855 83.481 93.8677 83.4303 93.8677C83.296 93.8677 83.1946 93.9362 83.1439 94.0528C82.8752 94.542 82.6901 95.0668 82.5025 95.589C82.3175 95.0997 82.2338 94.6105 82.2338 94.1212C82.2338 92.1465 83.7168 90.5443 85.1845 90.5443C86.2645 90.5443 87.3444 91.4215 87.8007 93.6497C87.9173 94.1897 87.968 94.7271 87.968 95.3178C87.968 96.1949 87.8336 97.072 87.5801 97.9339V97.9339ZM87.2937 98.7096C86.5002 100.532 85.5242 101.308 84.6446 101.308C83.6179 101.308 82.7738 100.195 82.7738 98.2203C82.7738 97.9516 82.789 97.6474 82.8245 97.3255C83.6838 98.2026 84.8981 98.8287 86.2645 98.8287C86.6194 98.8287 86.9743 98.7932 87.2937 98.7096V98.7096Z" fill="#A54A2F"/>
<path d="M90.5322 102C90.7173 102 90.8694 101.848 90.8694 101.663C90.8694 101.123 90.8542 100.598 90.8542 100.076C90.8542 99.536 90.8694 99.0138 90.8694 98.489L91.1558 98.4561C93.2649 98.0505 94.2612 97.5789 95.7442 96.8539C95.8633 96.7855 95.9318 96.6841 95.9318 96.5497C95.9318 96.5168 95.914 96.4661 95.8963 96.3976C95.8304 96.281 95.729 96.2126 95.5921 96.2126C95.5591 96.2126 95.5084 96.2303 95.4425 96.2455C94.9178 96.5168 92.8086 97.6119 90.8871 97.7995L90.9378 96.5345C91.9822 95.2163 94.0407 93.0743 95.4755 91.827C95.5591 91.7434 95.5921 91.6572 95.5921 91.5735C95.5921 91.5051 95.5591 91.4392 95.5084 91.3555C95.4248 91.2693 95.3411 91.2364 95.2397 91.2364C95.1713 91.2364 95.1054 91.2693 95.0192 91.32C93.8226 92.3999 92.1191 94.1035 91.0037 95.4039C91.0899 93.632 91.242 91.86 91.4423 90.088C91.46 89.903 91.3257 89.7686 91.1406 89.7179C90.953 89.7002 90.8187 89.8371 90.768 90.0221C90.5145 92.1135 90.3979 94.1719 90.2787 96.281C89.8909 96.8032 89.8072 97.0238 89.7565 97.1404C89.7236 97.2595 89.7058 97.3761 89.7058 97.4953C89.7058 97.8502 89.8757 98.1873 90.2128 98.3724C90.1951 99.029 90.1773 99.6374 90.1773 100.296C90.1773 100.75 90.1951 101.207 90.1951 101.663C90.1951 101.848 90.3472 102 90.5322 102V102Z" fill="#A54A2F"/>
</g>
<defs>
<filter id="filter0_d_62_2" x="0" y="0" width="99.9318" height="108" filterUnits="userSpaceOnUse" color-interpolation-filters="sRGB">
<feFlood flood-opacity="0" result="BackgroundImageFix"/>
<feColorMatrix in="SourceAlpha" type="matrix" values="0 0 0 0 0 0 0 0 0 0 0 0 0 0 0 0 0 0 127 0" result="hardAlpha"/>
<feOffset dy="2"/>
<feGaussianBlur stdDeviation="2"/>
<feColorMatrix type="matrix" values="0 0 0 0 0 0 0 0 0 0 0 0 0 0 0 0 0 0 0.25 0"/>
<feBlend mode="normal" in2="BackgroundImageFix" result="effect1_dropShadow_62_2"/>
<feBlend mode="normal" in="SourceGraphic" in2="effect1_dropShadow_62_2" result="shape"/>
</filter>
<clipPath id="clip0_62_2">
<rect width="91.9318" height="100" fill="white" transform="translate(4 2)"/>
</clipPath>
</defs>
</svg>
