<svg xmlns="http://www.w3.org/2000/svg" xmlns:xlink="http://www.w3.org/1999/xlink" width="500" zoomAndPan="magnify" viewBox="0 0 375 374.999991" height="500" preserveAspectRatio="xMidYMid meet" version="1.0"><defs><g/><clipPath id="c573b5b0f3"><path d="M 133.949219 121.578125 L 241.199219 121.578125 L 241.199219 228.828125 L 133.949219 228.828125 Z M 133.949219 121.578125 " clip-rule="nonzero"/></clipPath><clipPath id="89388b7183"><path d="M 120.660156 182 L 181.410156 182 L 181.410156 218.371094 L 120.660156 218.371094 Z M 120.660156 182 " clip-rule="nonzero"/></clipPath><clipPath id="4adc8e3bff"><path d="M 145 177.871094 L 169 177.871094 L 169 202 L 145 202 Z M 145 177.871094 " clip-rule="nonzero"/></clipPath><clipPath id="a64b788c02"><path d="M 193.589844 182 L 254.023438 182 L 254.023438 218.371094 L 193.589844 218.371094 Z M 193.589844 182 " clip-rule="nonzero"/></clipPath><clipPath id="2ad989d58e"><path d="M 206 177.871094 L 230 177.871094 L 230 202 L 206 202 Z M 206 177.871094 " clip-rule="nonzero"/></clipPath><clipPath id="6fe37859f9"><path d="M 158.871094 145.46875 L 215.871094 145.46875 L 215.871094 209.96875 L 158.871094 209.96875 Z M 158.871094 145.46875 " clip-rule="nonzero"/></clipPath><clipPath id="5dbee7bf06"><path d="M 158.871094 162 L 215.871094 162 L 215.871094 172 L 158.871094 172 Z M 158.871094 162 " clip-rule="nonzero"/></clipPath><clipPath id="dd379ce5a5"><path d="M 173 145.46875 L 202 145.46875 L 202 209.96875 L 173 209.96875 Z M 173 145.46875 " clip-rule="nonzero"/></clipPath><clipPath id="d7f6c4a294"><path d="M 157 131.832031 L 166.828125 131.832031 L 166.828125 150 L 157 150 Z M 157 131.832031 " clip-rule="nonzero"/></clipPath><clipPath id="a081135c1f"><path d="M 152.578125 143 L 159 143 L 159 154.332031 L 152.578125 154.332031 Z M 152.578125 143 " clip-rule="nonzero"/></clipPath><clipPath id="02894cc2a3"><path d="M 218.304688 149.242188 L 228 149.242188 L 228 167 L 218.304688 167 Z M 218.304688 149.242188 " clip-rule="nonzero"/></clipPath><clipPath id="36f7c780d8"><path d="M 226 161 L 232.308594 161 L 232.308594 171.742188 L 226 171.742188 Z M 226 161 " clip-rule="nonzero"/></clipPath></defs><g fill="#a54a2f" fill-opacity="1"><g transform="translate(122.201873, 151.956778)"><g><path d="M 1.390625 -3.140625 C 1.203125 -3.179688 1.070312 -3.132812 1 -3 L 0.78125 -2.484375 L -1.84375 -3.640625 L -0.75 -6.140625 L 1.875 -4.984375 L 1.53125 -4.203125 L 1.796875 -4.078125 L 3.109375 -7.015625 C 2.921875 -7.046875 2.789062 -7 2.71875 -6.875 L 2.484375 -6.359375 L -2.875 -8.71875 L -2.515625 -9.5 L -2.796875 -9.625 L -4.109375 -6.6875 L -3.828125 -6.5625 L -3.484375 -7.34375 L -1.046875 -6.265625 L -2.140625 -3.765625 L -4.578125 -4.84375 L -4.234375 -5.625 L -4.515625 -5.75 L -5.8125 -2.8125 L -5.53125 -2.6875 L -5.1875 -3.46875 L 0.171875 -1.109375 L -0.171875 -0.328125 L 0.09375 -0.203125 Z M 1.390625 -3.140625 "/></g></g></g><g fill="#a54a2f" fill-opacity="1"><g transform="translate(127.505077, 140.997992)"><g><path d="M 3.890625 -5.765625 C 3.742188 -5.859375 3.640625 -5.875 3.578125 -5.8125 C 3.535156 -5.78125 3.503906 -5.75 3.484375 -5.71875 L 3.3125 -5.453125 L -3.21875 -6.78125 L -3.65625 -6.140625 L 0.140625 -0.734375 L -0.25 -0.171875 L 0 0 L 1.109375 -1.640625 C 0.960938 -1.734375 0.859375 -1.75 0.796875 -1.6875 C 0.765625 -1.664062 0.734375 -1.632812 0.703125 -1.59375 L 0.375 -1.109375 L -0.890625 -2.875 L 0.296875 -4.65625 L 2.453125 -4.171875 L 2.03125 -3.546875 L 2.28125 -3.375 Z M -0.03125 -4.734375 L -1.09375 -3.171875 L -2.625 -5.3125 Z M -0.03125 -4.734375 "/></g></g></g><g fill="#a54a2f" fill-opacity="1"><g transform="translate(134.090848, 131.872731)"><g><path d="M -1.046875 -7.8125 L -0.453125 -8.421875 L 2.546875 -5.546875 L -3.28125 -5.90625 L -4.546875 -4.578125 L -4.328125 -4.375 L -3.734375 -5 L 0.484375 -0.9375 L -0.109375 -0.3125 L 0.109375 -0.109375 L 1.65625 -1.71875 C 1.5 -1.820312 1.359375 -1.820312 1.234375 -1.71875 L 0.796875 -1.265625 L -2.421875 -4.359375 L 3.90625 -4.015625 L 4.265625 -4.515625 L -0.140625 -8.75 L 0.453125 -9.375 L 0.234375 -9.578125 L -1.265625 -8.015625 Z M -1.046875 -7.8125 "/></g></g></g><g fill="#a54a2f" fill-opacity="1"><g transform="translate(142.262545, 123.875507)"><g><path d="M -3.65625 -5.328125 L -3.46875 -5.078125 L -2.765625 -5.59375 L 0.703125 -0.875 L 0 -0.359375 L 0.171875 -0.125 L 2.75 -2.03125 C 3.550781 -2.613281 4.035156 -3.34375 4.203125 -4.21875 C 4.359375 -5.070312 4.160156 -5.875 3.609375 -6.625 C 2.890625 -7.59375 1.992188 -8.039062 0.921875 -7.96875 C 0.210938 -7.9375 -0.457031 -7.6875 -1.09375 -7.21875 Z M -0.890625 -6.984375 C -0.285156 -7.421875 0.335938 -7.421875 0.984375 -6.984375 C 1.359375 -6.710938 1.769531 -6.273438 2.21875 -5.671875 C 3.101562 -4.460938 3.40625 -3.546875 3.125 -2.921875 C 3.019531 -2.671875 2.832031 -2.445312 2.5625 -2.25 L 1.90625 -1.765625 L -1.5625 -6.484375 Z M -0.890625 -6.984375 "/></g></g></g><g fill="#a54a2f" fill-opacity="1"><g transform="translate(151.701617, 117.346384)"><g><path d="M 4.859375 -9.515625 L 2.765625 -8.515625 L 3.0625 -3.5 L -0.984375 -6.703125 L -2.71875 -5.859375 L -2.578125 -5.59375 L -1.796875 -5.96875 L 0.75 -0.6875 L -0.03125 -0.3125 L 0.09375 -0.046875 L 2.046875 -1 C 1.941406 -1.132812 1.8125 -1.175781 1.65625 -1.125 L 1.15625 -0.890625 L -0.609375 -4.53125 L 3.375 -1.515625 L 3.5625 -1.609375 L 3.234375 -7.5625 L 5.453125 -2.96875 L 4.6875 -2.59375 L 4.8125 -2.328125 L 7.671875 -3.703125 C 7.554688 -3.835938 7.429688 -3.882812 7.296875 -3.84375 L 6.765625 -3.59375 L 4.21875 -8.875 L 5 -9.25 Z M 4.859375 -9.515625 "/></g></g></g><g fill="#a54a2f" fill-opacity="1"><g transform="translate(163.51227, 112.158267)"><g><path d="M 6.703125 -1.84375 C 6.648438 -2.007812 6.578125 -2.082031 6.484375 -2.0625 C 6.453125 -2.0625 6.414062 -2.054688 6.375 -2.046875 L 6.0625 -1.96875 L 1.984375 -7.234375 L 1.234375 -7.03125 L 0.578125 -0.46875 L -0.078125 -0.28125 L 0 0 L 1.90625 -0.53125 C 1.851562 -0.695312 1.785156 -0.769531 1.703125 -0.75 C 1.660156 -0.75 1.617188 -0.742188 1.578125 -0.734375 L 1 -0.578125 L 1.203125 -2.78125 L 3.265625 -3.34375 L 4.578125 -1.5625 L 3.859375 -1.359375 L 3.9375 -1.078125 Z M 3.0625 -3.609375 L 1.234375 -3.109375 L 1.46875 -5.734375 Z M 3.0625 -3.609375 "/></g></g></g><g fill="#a54a2f" fill-opacity="1"><g transform="translate(174.453966, 109.526125)"><g><path d="M -0.40625 -6.4375 L -0.375 -6.140625 L 0.484375 -6.234375 L 1.046875 -0.40625 L 0.1875 -0.3125 L 0.21875 -0.015625 L 3.40625 -0.328125 C 4.394531 -0.421875 5.175781 -0.800781 5.75 -1.46875 C 6.332031 -2.113281 6.578125 -2.90625 6.484375 -3.84375 C 6.367188 -5.039062 5.832031 -5.882812 4.875 -6.375 C 4.25 -6.695312 3.539062 -6.820312 2.75 -6.75 Z M 2.8125 -6.453125 C 3.5625 -6.523438 4.097656 -6.203125 4.421875 -5.484375 C 4.597656 -5.066406 4.722656 -4.484375 4.796875 -3.734375 C 4.941406 -2.253906 4.738281 -1.3125 4.1875 -0.90625 C 3.96875 -0.75 3.6875 -0.65625 3.34375 -0.625 L 2.53125 -0.546875 L 1.96875 -6.375 Z M 2.8125 -6.453125 "/></g></g></g><g fill="#a54a2f" fill-opacity="1"><g transform="translate(185.943604, 108.819629)"><g><path d="M 5.90625 -3.984375 L 6.03125 -6.046875 L 0.671875 -6.421875 L 0.640625 -6.125 L 1.5 -6.0625 L 1.09375 -0.21875 L 0.234375 -0.28125 L 0.21875 0.015625 L 5.578125 0.390625 L 5.75 -1.671875 L 5.4375 -1.703125 L 5.15625 -0.984375 C 4.925781 -0.441406 4.597656 -0.128906 4.171875 -0.046875 C 4.054688 -0.0234375 3.929688 -0.0195312 3.796875 -0.03125 L 2.59375 -0.125 L 2.796875 -2.984375 L 4.84375 -2.828125 L 4.859375 -3.140625 L 2.8125 -3.296875 L 3 -5.96875 L 4.203125 -5.875 C 4.785156 -5.832031 5.164062 -5.523438 5.34375 -4.953125 C 5.375 -4.890625 5.398438 -4.828125 5.421875 -4.765625 L 5.59375 -4.015625 Z M 5.90625 -3.984375 "/></g></g></g><g fill="#a54a2f" fill-opacity="1"><g transform="translate(196.393116, 109.955625)"><g/></g></g><g fill="#a54a2f" fill-opacity="1"><g transform="translate(202.758283, 111.42294)"><g><path d="M 6 -4.53125 L 6.09375 -4.8125 L 3 -5.8125 L 2.90625 -5.53125 L 3.828125 -5.234375 L 2.5625 -1.34375 C 2.238281 -0.34375 1.957031 0.222656 1.71875 0.359375 C 1.601562 0.410156 1.488281 0.414062 1.375 0.375 C 1.195312 0.320312 1.125 0.175781 1.15625 -0.0625 C 1.15625 -0.101562 1.164062 -0.164062 1.1875 -0.25 C 1.238281 -0.59375 1.210938 -0.828125 1.109375 -0.953125 C 1.015625 -1.066406 0.882812 -1.148438 0.71875 -1.203125 C 0.445312 -1.285156 0.234375 -1.222656 0.078125 -1.015625 C 0.0351562 -0.941406 0.00390625 -0.878906 -0.015625 -0.828125 C -0.109375 -0.503906 -0.0078125 -0.195312 0.28125 0.09375 C 0.5 0.3125 0.804688 0.484375 1.203125 0.609375 C 2.109375 0.910156 2.84375 0.765625 3.40625 0.171875 C 3.65625 -0.117188 3.851562 -0.488281 4 -0.9375 L 5.25 -4.765625 Z M 6 -4.53125 "/></g></g></g><g fill="#a54a2f" fill-opacity="1"><g transform="translate(211.088665, 114.399501)"><g><path d="M 7 -1.4375 L 7.875 -3.296875 L 3.0625 -5.6875 L 2.9375 -5.421875 L 3.703125 -5.03125 L 1.09375 0.21875 L 0.328125 -0.171875 L 0.203125 0.09375 L 5.015625 2.484375 L 5.96875 0.65625 L 5.6875 0.515625 L 5.140625 1.0625 C 4.722656 1.46875 4.300781 1.628906 3.875 1.546875 C 3.757812 1.523438 3.644531 1.484375 3.53125 1.421875 L 2.4375 0.875 L 3.71875 -1.6875 L 5.5625 -0.765625 L 5.703125 -1.0625 L 3.859375 -1.984375 L 5.046875 -4.375 L 6.140625 -3.828125 C 6.660156 -3.566406 6.894531 -3.140625 6.84375 -2.546875 C 6.832031 -2.472656 6.828125 -2.40625 6.828125 -2.34375 L 6.71875 -1.578125 Z M 7 -1.4375 "/></g></g></g><g fill="#a54a2f" fill-opacity="1"><g transform="translate(220.304212, 119.22279)"><g><path d="M 5.609375 4.203125 L 10.9375 0.515625 L 11.359375 0.828125 L 11.546875 0.578125 L 10.140625 -0.484375 L 9.953125 -0.234375 L 10.640625 0.28125 L 6.671875 3.046875 L 8.109375 -1.640625 L 8.78125 -1.109375 L 8.96875 -1.359375 L 6.984375 -2.84375 L 6.34375 -0.65625 L 3.78125 1 L 5.234375 -3.765625 L 5.921875 -3.25 L 6.109375 -3.5 L 3.78125 -5.234375 L 3.59375 -4.984375 L 4.03125 -4.65625 L 2.5 0.84375 C 2.375 1.28125 2.332031 1.570312 2.375 1.71875 C 2.425781 1.789062 2.5 1.867188 2.59375 1.953125 L 2.765625 2.0625 L 6.203125 -0.15625 L 5.328125 2.953125 C 5.210938 3.410156 5.175781 3.707031 5.21875 3.84375 C 5.269531 3.925781 5.34375 4.003906 5.4375 4.078125 Z M 5.609375 4.203125 "/></g></g></g><g fill="#a54a2f" fill-opacity="1"><g transform="translate(231.058952, 127.963994)"><g><path d="M 7.046875 1.15625 L 8.546875 -0.265625 L 4.890625 -4.21875 L 4.671875 -4.015625 L 5.265625 -3.375 L 0.953125 0.59375 L 0.359375 -0.046875 L 0.140625 0.15625 L 3.796875 4.109375 L 5.328125 2.75 L 5.125 2.515625 L 4.40625 2.828125 C 3.882812 3.066406 3.4375 3.070312 3.0625 2.84375 C 2.976562 2.769531 2.890625 2.6875 2.796875 2.59375 L 1.96875 1.6875 L 4.0625 -0.25 L 5.453125 1.265625 L 5.703125 1.046875 L 4.3125 -0.46875 L 6.28125 -2.28125 L 7.109375 -1.375 C 7.503906 -0.945312 7.566406 -0.46875 7.296875 0.0625 C 7.265625 0.132812 7.234375 0.203125 7.203125 0.265625 L 6.84375 0.921875 Z M 7.046875 1.15625 "/></g></g></g><g fill="#a54a2f" fill-opacity="1"><g transform="translate(237.881733, 135.889187)"><g><path d="M 3.0625 4.546875 L 5.015625 3.28125 L 4.84375 3.015625 L 3.84375 3.34375 C 3.351562 3.46875 2.972656 3.457031 2.703125 3.3125 C 2.554688 3.195312 2.425781 3.054688 2.3125 2.890625 L 1.6875 1.96875 L 6.546875 -1.296875 L 7.046875 -0.546875 L 7.296875 -0.703125 L 5.484375 -3.40625 L 5.234375 -3.25 L 5.703125 -2.546875 L 0.84375 0.71875 L 0.375 0.015625 L 0.125 0.1875 Z M 3.0625 4.546875 "/></g></g></g><g fill="#a54a2f" fill-opacity="1"><g transform="translate(243.133487, 144.234552)"><g><path d="M 1.453125 3.125 L 1.71875 3 L 1.359375 2.21875 L 3.75 1.109375 L 3.96875 1.578125 L 1.96875 4.265625 L 2.78125 5.984375 C 2.925781 5.921875 2.976562 5.832031 2.9375 5.71875 C 2.9375 5.675781 2.925781 5.632812 2.90625 5.59375 L 2.84375 5.46875 L 4.703125 2.796875 C 5.210938 3.398438 5.769531 3.648438 6.375 3.546875 C 6.53125 3.515625 6.6875 3.460938 6.84375 3.390625 C 7.3125 3.171875 7.59375 2.785156 7.6875 2.234375 C 7.78125 1.742188 7.703125 1.238281 7.453125 0.71875 L 5.953125 -2.515625 L 5.671875 -2.390625 L 6.03125 -1.609375 L 0.71875 0.859375 L 0.359375 0.078125 L 0.09375 0.203125 Z M 6.90625 0.265625 C 7.15625 0.804688 7.054688 1.273438 6.609375 1.671875 C 6.453125 1.796875 6.285156 1.898438 6.109375 1.984375 C 5.546875 2.242188 5.082031 2.253906 4.71875 2.015625 C 4.550781 1.910156 4.425781 1.765625 4.34375 1.578125 L 4.0625 0.96875 L 6.671875 -0.25 Z M 6.90625 0.265625 "/></g></g></g><g fill="#a54a2f" fill-opacity="1"><g transform="translate(247.400654, 154.28615)"><g><path d="M 1.3125 4.671875 C 1.457031 4.578125 1.523438 4.457031 1.515625 4.3125 L 1.34375 3.71875 L 3.75 3.046875 L 7.09375 3.609375 C 7.3125 3.691406 7.453125 3.84375 7.515625 4.0625 C 7.609375 4.21875 7.734375 4.28125 7.890625 4.25 L 7.390625 2.4375 L 7.09375 2.515625 L 7.328125 3.34375 L 4.0625 2.734375 L 6.5 0.4375 L 6.71875 1.21875 L 7.015625 1.140625 L 6.21875 -1.75 L 5.921875 -1.671875 L 6.046875 -1.1875 L 3.296875 1.59375 L 0.9375 2.25 L 0.6875 1.375 L 0.40625 1.453125 Z M 1.3125 4.671875 "/></g></g></g><g clip-path="url(#c573b5b0f3)"><path fill="#ffffff" d="M 187.574219 121.578125 C 157.960938 121.578125 133.949219 145.585938 133.949219 175.203125 C 133.949219 204.820312 157.960938 228.828125 187.574219 228.828125 C 217.191406 228.828125 241.199219 204.820312 241.199219 175.203125 C 241.199219 145.585938 217.191406 121.578125 187.574219 121.578125 " fill-opacity="1" fill-rule="nonzero"/></g><g clip-path="url(#89388b7183)"><path fill="#a54a2f" d="M 180.96875 217.210938 C 178.492188 216.289062 176.617188 214.183594 175.089844 212.09375 C 173.460938 209.859375 172.125 207.429688 170.53125 205.175781 C 168.453125 202.265625 166.195312 199.507812 163.75 196.902344 C 162.519531 195.585938 161.253906 194.300781 159.945312 193.058594 C 158.78125 191.949219 157.601562 190.839844 156.355469 189.824219 C 154.386719 188.242188 152.273438 186.890625 150.011719 185.769531 C 147.53125 184.5 144.941406 183.542969 142.238281 182.890625 C 139.648438 182.289062 136.964844 182.03125 134.320312 182.421875 C 131.785156 182.746094 129.566406 183.773438 127.667969 185.492188 C 126.589844 186.5 125.542969 187.546875 124.550781 188.636719 C 123.507812 189.792969 122.488281 191.035156 121.773438 192.429688 C 121.132812 193.691406 120.871094 195.078125 120.742188 196.480469 C 120.601562 198.019531 120.652344 199.554688 120.898438 201.078125 C 120.996094 201.722656 121.15625 202.347656 121.378906 202.957031 C 121.453125 203.199219 121.617188 203.335938 121.867188 203.367188 C 122.117188 203.402344 122.308594 203.3125 122.441406 203.097656 C 123.582031 201.25 123.65625 198.953125 124.84375 197.136719 C 125.164062 196.6875 125.507812 196.261719 125.875 195.855469 C 126.199219 195.464844 126.527344 195.078125 126.859375 194.703125 C 127.496094 193.960938 128.207031 193.296875 128.992188 192.714844 C 129.941406 192.039062 131.011719 191.570312 132.066406 191.089844 C 133.195312 190.574219 134.339844 190.09375 135.5 189.652344 C 137.859375 188.726562 140.289062 188.046875 142.785156 187.613281 C 144.070312 187.402344 145.363281 187.277344 146.664062 187.230469 C 147.988281 187.15625 149.289062 187.289062 150.566406 187.628906 C 151.289062 187.839844 151.597656 186.707031 150.875 186.5 C 148.546875 185.816406 146.027344 186.015625 143.660156 186.316406 C 141.0625 186.664062 138.535156 187.289062 136.078125 188.191406 C 134.847656 188.632812 133.636719 189.128906 132.441406 189.648438 C 131.285156 190.105469 130.164062 190.636719 129.074219 191.242188 C 127.234375 192.347656 125.898438 193.996094 124.53125 195.621094 C 124.09375 196.121094 123.71875 196.667969 123.414062 197.261719 C 123.140625 197.839844 122.910156 198.4375 122.730469 199.050781 C 122.367188 200.238281 122.085938 201.441406 121.433594 202.5 L 122.5 202.640625 C 122.046875 201.347656 121.824219 200.015625 121.828125 198.640625 C 121.773438 197.21875 121.914062 195.820312 122.25 194.4375 C 122.59375 193.117188 123.34375 191.945312 124.179688 190.875 C 125.164062 189.660156 126.21875 188.511719 127.34375 187.433594 C 128.234375 186.550781 129.09375 185.707031 130.160156 185.066406 C 131.167969 184.46875 132.242188 184.035156 133.386719 183.773438 C 135.773438 183.210938 138.328125 183.320312 140.753906 183.773438 C 143.390625 184.285156 145.921875 185.113281 148.351562 186.261719 C 150.660156 187.316406 152.835938 188.605469 154.871094 190.128906 C 155.917969 190.914062 156.96875 191.878906 157.96875 192.800781 C 159.269531 194 160.535156 195.234375 161.769531 196.503906 C 164.226562 199.03125 166.511719 201.707031 168.628906 204.53125 C 170.300781 206.773438 171.699219 209.195312 173.265625 211.507812 C 174.800781 213.777344 176.550781 216.046875 178.910156 217.492188 C 179.46875 217.832031 180.054688 218.117188 180.667969 218.34375 C 180.820312 218.382812 180.96875 218.363281 181.105469 218.285156 C 181.246094 218.207031 181.335938 218.089844 181.382812 217.933594 C 181.421875 217.777344 181.402344 217.628906 181.320312 217.492188 C 181.242188 217.351562 181.125 217.257812 180.972656 217.210938 Z M 180.96875 217.210938 " fill-opacity="1" fill-rule="nonzero"/></g><g clip-path="url(#4adc8e3bff)"><path fill="#a54a2f" d="M 167.179688 201.6875 C 165.980469 200.515625 165.167969 198.472656 164.324219 196.996094 C 163.203125 195.046875 162.050781 193.167969 160.777344 191.300781 C 158.234375 187.574219 155.699219 183.089844 151.535156 180.976562 C 149.835938 180.117188 147.671875 179.160156 145.714844 179.621094 C 148.308594 178.734375 150.503906 177.460938 153.382812 177.992188 C 155.835938 178.445312 158.578125 179.289062 160.628906 180.789062 C 164.875 183.90625 168.3125 189.371094 168.347656 194.8125 C 168.347656 196.355469 166.484375 200.554688 167.457031 201.710938 " fill-opacity="1" fill-rule="nonzero"/></g><path fill="#a54a2f" d="M 172.242188 208.28125 C 168.96875 207.027344 165.792969 205.546875 162.722656 203.851562 C 161.183594 202.984375 159.695312 202.039062 158.257812 201.007812 C 156.914062 200.074219 155.648438 199.042969 154.46875 197.90625 C 153.289062 196.734375 152.140625 195.40625 150.617188 194.671875 L 150.324219 195.761719 C 151.773438 195.8125 153.195312 196.308594 154.515625 196.902344 C 155.96875 197.585938 157.375 198.355469 158.730469 199.21875 C 161.574219 200.96875 164.445312 202.714844 167.058594 204.800781 C 168.640625 206.050781 170.09375 207.433594 171.421875 208.953125 C 171.535156 209.066406 171.671875 209.121094 171.832031 209.117188 C 171.988281 209.117188 172.125 209.058594 172.238281 208.945312 C 172.347656 208.832031 172.40625 208.695312 172.40625 208.535156 C 172.40625 208.375 172.351562 208.238281 172.242188 208.125 C 169.847656 205.347656 166.925781 203.09375 163.882812 201.085938 C 162.519531 200.1875 161.125 199.328125 159.738281 198.464844 C 158.347656 197.574219 156.914062 196.769531 155.433594 196.046875 C 153.828125 195.289062 152.117188 194.652344 150.324219 194.589844 C 149.769531 194.570312 149.503906 195.429688 150.03125 195.683594 C 151.386719 196.339844 152.40625 197.484375 153.453125 198.542969 C 154.632812 199.695312 155.894531 200.75 157.238281 201.703125 C 160.117188 203.792969 163.175781 205.578125 166.40625 207.054688 C 168.222656 207.90625 170.070312 208.675781 171.933594 209.402344 C 172.089844 209.445312 172.234375 209.425781 172.375 209.34375 C 172.515625 209.265625 172.605469 209.148438 172.652344 208.992188 C 172.691406 208.835938 172.667969 208.6875 172.589844 208.546875 C 172.511719 208.410156 172.394531 208.316406 172.242188 208.269531 Z M 172.242188 208.28125 " fill-opacity="1" fill-rule="nonzero"/><g clip-path="url(#a64b788c02)"><path fill="#a54a2f" d="M 194.03125 217.210938 C 196.503906 216.289062 198.382812 214.183594 199.90625 212.09375 C 201.535156 209.859375 202.875 207.429688 204.46875 205.175781 C 206.542969 202.265625 208.804688 199.507812 211.246094 196.902344 C 212.476562 195.585938 213.746094 194.300781 215.050781 193.058594 C 216.214844 191.949219 217.394531 190.839844 218.640625 189.824219 C 220.609375 188.242188 222.726562 186.890625 224.984375 185.769531 C 227.464844 184.5 230.054688 183.542969 232.761719 182.890625 C 235.351562 182.289062 238.035156 182.03125 240.675781 182.421875 C 243.210938 182.746094 245.429688 183.773438 247.332031 185.492188 C 248.410156 186.5 249.457031 187.546875 250.445312 188.636719 C 251.492188 189.792969 252.511719 191.035156 253.222656 192.429688 C 253.867188 193.691406 254.128906 195.078125 254.253906 196.480469 C 254.394531 198.019531 254.34375 199.554688 254.097656 201.078125 C 254.003906 201.722656 253.84375 202.347656 253.621094 202.957031 C 253.542969 203.199219 253.382812 203.335938 253.132812 203.367188 C 252.882812 203.402344 252.691406 203.3125 252.554688 203.097656 C 251.414062 201.25 251.34375 198.953125 250.152344 197.136719 C 249.835938 196.6875 249.492188 196.261719 249.125 195.855469 C 248.796875 195.464844 248.472656 195.078125 248.136719 194.703125 C 247.5 193.960938 246.789062 193.296875 246.007812 192.714844 C 245.054688 192.039062 243.988281 191.570312 242.929688 191.089844 C 241.800781 190.574219 240.65625 190.09375 239.5 189.652344 C 237.136719 188.726562 234.710938 188.046875 232.214844 187.613281 C 230.929688 187.402344 229.632812 187.277344 228.332031 187.230469 C 227.011719 187.15625 225.710938 187.289062 224.429688 187.628906 C 223.707031 187.839844 223.402344 186.707031 224.121094 186.5 C 226.449219 185.816406 228.96875 186.015625 231.339844 186.316406 C 233.933594 186.664062 236.460938 187.289062 238.921875 188.191406 C 240.152344 188.632812 241.359375 189.128906 242.554688 189.648438 C 243.710938 190.105469 244.832031 190.636719 245.921875 191.242188 C 247.765625 192.347656 249.097656 193.996094 250.464844 195.621094 C 250.90625 196.121094 251.277344 196.667969 251.585938 197.261719 C 251.859375 197.839844 252.085938 198.4375 252.269531 199.050781 C 252.628906 200.238281 252.910156 201.441406 253.5625 202.5 L 252.5 202.640625 C 252.949219 201.347656 253.171875 200.015625 253.167969 198.640625 C 253.222656 197.21875 253.082031 195.820312 252.75 194.4375 C 252.402344 193.117188 251.65625 191.945312 250.816406 190.875 C 249.835938 189.660156 248.78125 188.511719 247.652344 187.433594 C 246.761719 186.550781 245.902344 185.707031 244.835938 185.066406 C 243.828125 184.46875 242.753906 184.035156 241.613281 183.773438 C 239.222656 183.210938 236.667969 183.320312 234.242188 183.773438 C 231.609375 184.285156 229.074219 185.113281 226.644531 186.261719 C 224.335938 187.316406 222.164062 188.605469 220.125 190.128906 C 219.082031 190.914062 218.03125 191.878906 217.027344 192.800781 C 215.726562 194 214.460938 195.234375 213.226562 196.503906 C 210.773438 199.03125 208.484375 201.707031 206.371094 204.53125 C 204.695312 206.773438 203.300781 209.195312 201.730469 211.507812 C 200.195312 213.777344 198.445312 216.046875 196.085938 217.492188 C 195.527344 217.832031 194.945312 218.117188 194.332031 218.34375 C 194.175781 218.382812 194.03125 218.363281 193.890625 218.285156 C 193.75 218.207031 193.660156 218.089844 193.617188 217.933594 C 193.578125 217.777344 193.597656 217.628906 193.675781 217.492188 C 193.753906 217.351562 193.871094 217.257812 194.023438 217.210938 Z M 194.03125 217.210938 " fill-opacity="1" fill-rule="nonzero"/></g><g clip-path="url(#2ad989d58e)"><path fill="#a54a2f" d="M 207.820312 201.6875 C 209.015625 200.515625 209.828125 198.472656 210.671875 196.996094 C 211.792969 195.046875 212.945312 193.167969 214.222656 191.300781 C 216.761719 187.574219 219.300781 183.089844 223.460938 180.976562 C 225.160156 180.117188 227.328125 179.160156 229.28125 179.621094 C 226.6875 178.734375 224.492188 177.460938 221.613281 177.992188 C 219.160156 178.445312 216.417969 179.289062 214.367188 180.789062 C 210.121094 183.90625 206.683594 189.371094 206.648438 194.8125 C 206.648438 196.355469 208.511719 200.554688 207.542969 201.710938 " fill-opacity="1" fill-rule="nonzero"/></g><path fill="#a54a2f" d="M 202.753906 208.28125 C 206.03125 207.027344 209.203125 205.546875 212.273438 203.851562 C 213.816406 202.984375 215.304688 202.039062 216.742188 201.007812 C 218.085938 200.074219 219.347656 199.042969 220.527344 197.90625 C 221.707031 196.734375 222.855469 195.40625 224.378906 194.671875 L 224.671875 195.761719 C 223.222656 195.8125 221.800781 196.308594 220.480469 196.902344 C 219.027344 197.585938 217.625 198.355469 216.269531 199.21875 C 213.425781 200.96875 210.554688 202.714844 207.9375 204.800781 C 206.355469 206.050781 204.902344 207.433594 203.578125 208.953125 C 203.460938 209.066406 203.324219 209.121094 203.167969 209.117188 C 203.007812 209.117188 202.871094 209.058594 202.761719 208.945312 C 202.648438 208.832031 202.59375 208.695312 202.589844 208.535156 C 202.589844 208.375 202.644531 208.238281 202.753906 208.125 C 205.148438 205.347656 208.070312 203.09375 211.117188 201.085938 C 212.480469 200.1875 213.871094 199.328125 215.257812 198.464844 C 216.648438 197.574219 218.082031 196.769531 219.5625 196.046875 C 221.167969 195.289062 222.882812 194.652344 224.671875 194.589844 C 225.230469 194.570312 225.492188 195.429688 224.964844 195.683594 C 223.609375 196.339844 222.589844 197.484375 221.546875 198.542969 C 220.363281 199.695312 219.101562 200.75 217.761719 201.703125 C 214.878906 203.792969 211.824219 205.578125 208.589844 207.054688 C 206.777344 207.90625 204.925781 208.675781 203.0625 209.402344 C 202.910156 209.445312 202.761719 209.425781 202.621094 209.34375 C 202.484375 209.265625 202.390625 209.148438 202.347656 208.992188 C 202.308594 208.835938 202.328125 208.6875 202.40625 208.546875 C 202.484375 208.410156 202.601562 208.316406 202.753906 208.269531 Z M 202.753906 208.28125 " fill-opacity="1" fill-rule="nonzero"/><g clip-path="url(#6fe37859f9)"><path fill="#a54a2f" d="M 188.75 208.695312 L 189.476562 207.484375 L 191.441406 204.203125 L 194.34375 199.351562 L 197.910156 193.410156 L 201.8125 186.898438 L 205.730469 180.351562 L 209.378906 174.25 L 212.480469 169.082031 L 214.699219 165.371094 C 215.050781 164.773438 215.421875 164.203125 215.757812 163.609375 C 215.769531 163.582031 215.785156 163.558594 215.800781 163.53125 C 215.867188 163.414062 215.886719 163.289062 215.851562 163.15625 C 215.816406 163.023438 215.742188 162.921875 215.625 162.851562 L 212.820312 161.125 L 206.148438 157.007812 L 198.054688 152.015625 L 191.0625 147.691406 C 189.933594 147 188.824219 146.25 187.671875 145.601562 C 187.652344 145.59375 187.636719 145.582031 187.621094 145.570312 C 187.453125 145.476562 187.289062 145.476562 187.121094 145.570312 L 184.316406 147.292969 L 177.644531 151.417969 L 169.550781 156.410156 L 162.554688 160.722656 C 161.425781 161.414062 160.273438 162.085938 159.164062 162.8125 L 159.117188 162.84375 C 159 162.914062 158.925781 163.015625 158.890625 163.148438 C 158.855469 163.28125 158.871094 163.40625 158.9375 163.523438 L 159.679688 164.761719 L 161.695312 168.125 L 164.664062 173.078125 L 168.296875 179.144531 L 172.277344 185.789062 L 176.28125 192.46875 L 180.027344 198.726562 L 183.195312 204.011719 L 185.464844 207.789062 C 185.824219 208.386719 186.171875 209 186.546875 209.59375 L 186.59375 209.671875 C 186.664062 209.789062 186.765625 209.867188 186.894531 209.902344 C 187.027344 209.9375 187.152344 209.917969 187.269531 209.851562 C 187.707031 209.519531 188.144531 209.1875 188.582031 208.855469 C 188.695312 208.785156 188.769531 208.683594 188.804688 208.550781 C 188.839844 208.421875 188.824219 208.296875 188.761719 208.175781 C 188.691406 208.058594 188.589844 207.984375 188.457031 207.949219 C 188.324219 207.914062 188.199219 207.929688 188.082031 208 C 187.644531 208.324219 187.207031 208.65625 186.773438 208.992188 L 187.449219 209.171875 L 186.699219 207.945312 L 184.683594 204.582031 L 181.710938 199.628906 L 178.085938 193.5625 L 174.101562 186.917969 L 170.101562 180.234375 L 166.355469 173.980469 L 163.1875 168.695312 L 160.921875 164.90625 C 160.5625 164.308594 160.238281 163.675781 159.839844 163.101562 C 159.824219 163.078125 159.808594 163.050781 159.792969 163.023438 L 159.617188 163.703125 L 162.417969 161.976562 L 169.09375 157.859375 L 177.1875 152.863281 L 184.179688 148.546875 L 186.476562 147.132812 C 186.855469 146.925781 187.21875 146.699219 187.570312 146.457031 C 187.585938 146.445312 187.605469 146.4375 187.621094 146.425781 L 187.121094 146.425781 L 189.925781 148.15625 L 196.601562 152.269531 L 204.691406 157.265625 L 211.6875 161.578125 L 213.984375 163.003906 C 214.34375 163.222656 214.699219 163.492188 215.078125 163.675781 C 215.09375 163.6875 215.109375 163.695312 215.125 163.707031 L 214.949219 163.027344 L 214.222656 164.238281 L 212.257812 167.519531 L 209.351562 172.371094 L 205.792969 178.316406 L 201.894531 184.824219 L 197.972656 191.371094 L 194.324219 197.46875 L 191.222656 202.640625 L 188.996094 206.351562 C 188.644531 206.949219 188.277344 207.519531 187.941406 208.113281 C 187.925781 208.140625 187.910156 208.164062 187.894531 208.191406 C 187.566406 208.738281 188.421875 209.246094 188.75 208.695312 Z M 188.75 208.695312 " fill-opacity="1" fill-rule="nonzero"/></g><g clip-path="url(#5dbee7bf06)"><path fill="#a54a2f" d="M 159.234375 163.753906 L 162.023438 164.523438 L 168.746094 166.382812 L 176.84375 168.621094 L 183.828125 170.558594 C 184.949219 170.871094 186.066406 171.226562 187.195312 171.492188 C 187.449219 171.519531 187.691406 171.484375 187.929688 171.386719 L 189.675781 170.902344 L 196.011719 169.144531 L 204.074219 166.917969 L 211.359375 164.902344 L 215.320312 163.796875 L 215.503906 163.746094 C 216.117188 163.578125 215.859375 162.617188 215.242188 162.789062 L 212.449219 163.558594 L 205.753906 165.410156 L 197.660156 167.65625 L 190.683594 169.585938 L 188.382812 170.222656 C 188.023438 170.320312 187.640625 170.394531 187.292969 170.523438 L 187.242188 170.539062 L 187.507812 170.539062 L 184.714844 169.765625 L 178.015625 167.914062 L 169.917969 165.675781 L 162.945312 163.746094 C 161.8125 163.433594 160.6875 163.082031 159.546875 162.804688 L 159.496094 162.804688 C 158.882812 162.636719 158.621094 163.601562 159.234375 163.761719 Z M 159.234375 163.753906 " fill-opacity="1" fill-rule="nonzero"/></g><g clip-path="url(#dd379ce5a5)"><path fill="#a54a2f" d="M 188.226562 209.007812 L 189.101562 206.324219 L 191.332031 199.5 L 194.285156 190.453125 L 197.398438 180.910156 L 200.054688 172.777344 L 201.636719 167.925781 C 201.734375 167.625 201.964844 167.195312 201.800781 166.890625 C 201.601562 166.527344 201.335938 166.1875 201.109375 165.84375 L 196.832031 159.386719 L 191.410156 151.203125 L 187.96875 146.003906 L 187.800781 145.75 C 187.753906 145.675781 187.691406 145.617188 187.617188 145.574219 C 187.539062 145.53125 187.457031 145.511719 187.371094 145.511719 C 187.285156 145.511719 187.203125 145.53125 187.125 145.574219 C 187.050781 145.617188 186.988281 145.675781 186.945312 145.75 L 184.546875 149.550781 L 179.472656 157.601562 L 174.828125 164.957031 L 173.640625 166.828125 C 173.519531 167.027344 173.394531 167.175781 173.445312 167.425781 C 173.457031 167.492188 173.484375 167.558594 173.503906 167.625 L 174.75 171.554688 L 177.140625 179.152344 L 180.082031 188.515625 L 183.035156 197.914062 L 185.414062 205.425781 L 186.625 209.289062 L 186.683594 209.457031 C 186.765625 209.734375 187.140625 209.960938 187.410156 209.757812 L 188.003906 209.304688 C 188.117188 209.234375 188.191406 209.132812 188.226562 209 C 188.261719 208.871094 188.246094 208.746094 188.179688 208.625 C 188.109375 208.507812 188.007812 208.429688 187.878906 208.398438 C 187.746094 208.363281 187.621094 208.378906 187.503906 208.445312 L 186.90625 208.898438 L 187.636719 209.195312 L 187.28125 208.070312 L 186.316406 205.007812 L 184.902344 200.507812 L 183.167969 194.988281 L 181.253906 188.9375 L 179.332031 182.832031 L 177.550781 177.136719 L 176.039062 172.347656 L 174.949219 168.886719 C 174.78125 168.34375 174.644531 167.769531 174.433594 167.242188 C 174.433594 167.21875 174.421875 167.191406 174.410156 167.167969 L 174.363281 167.554688 L 175.707031 165.425781 L 178.914062 160.347656 L 182.785156 154.203125 L 186.152344 148.871094 L 187.253906 147.128906 C 187.441406 146.859375 187.613281 146.585938 187.777344 146.300781 C 187.78125 146.285156 187.789062 146.273438 187.800781 146.261719 L 186.945312 146.261719 L 188.332031 148.363281 L 191.671875 153.414062 L 195.71875 159.519531 L 199.222656 164.792969 L 200.371094 166.527344 C 200.539062 166.816406 200.722656 167.09375 200.921875 167.359375 C 200.929688 167.371094 200.941406 167.382812 200.945312 167.394531 L 200.894531 167.015625 L 200.535156 168.125 L 199.542969 171.15625 L 198.070312 175.660156 L 196.289062 181.132812 L 194.324219 187.128906 L 192.34375 193.179688 L 190.496094 198.847656 L 188.9375 203.621094 L 187.816406 207.046875 C 187.640625 207.589844 187.441406 208.128906 187.285156 208.675781 C 187.285156 208.703125 187.269531 208.726562 187.261719 208.75 C 187.074219 209.351562 188.027344 209.617188 188.226562 209.007812 Z M 188.226562 209.007812 " fill-opacity="1" fill-rule="nonzero"/></g><g clip-path="url(#d7f6c4a294)"><path fill="#a54a2f" d="M 161.589844 132.21875 C 161.191406 134.535156 160.582031 137.070312 159.050781 138.9375 C 158.628906 139.464844 158.136719 139.90625 157.570312 140.273438 C 157.445312 140.347656 157.363281 140.453125 157.328125 140.59375 C 157.292969 140.730469 157.308594 140.863281 157.382812 140.988281 C 158.269531 142.226562 159.066406 143.523438 159.769531 144.875 C 160.425781 146.15625 161.058594 147.574219 161.207031 149.011719 C 161.207031 149.140625 161.25 149.253906 161.339844 149.351562 C 161.425781 149.449219 161.53125 149.507812 161.664062 149.527344 C 161.792969 149.542969 161.914062 149.519531 162.023438 149.445312 C 162.136719 149.375 162.207031 149.277344 162.246094 149.152344 C 162.554688 147.578125 163.054688 146.066406 163.738281 144.613281 C 164.457031 143.148438 165.425781 141.878906 166.652344 140.796875 C 166.710938 140.738281 166.753906 140.671875 166.777344 140.59375 C 166.804688 140.515625 166.8125 140.4375 166.804688 140.359375 C 166.792969 140.277344 166.765625 140.203125 166.71875 140.136719 C 166.675781 140.066406 166.617188 140.011719 166.546875 139.972656 C 165.429688 139.484375 164.398438 138.769531 163.722656 137.769531 C 163.09375 136.796875 162.734375 135.738281 162.640625 134.589844 C 162.570312 133.847656 162.566406 133.101562 162.628906 132.355469 C 162.625 132.210938 162.574219 132.089844 162.472656 131.988281 C 162.367188 131.886719 162.242188 131.832031 162.097656 131.832031 C 161.953125 131.835938 161.828125 131.886719 161.726562 131.988281 C 161.625 132.089844 161.570312 132.210938 161.570312 132.355469 C 161.382812 134.976562 161.863281 137.785156 163.953125 139.597656 C 164.574219 140.128906 165.257812 140.554688 166.011719 140.878906 L 165.90625 140.054688 C 164.613281 141.195312 163.585938 142.535156 162.824219 144.074219 C 162.09375 145.609375 161.558594 147.210938 161.226562 148.875 L 162.261719 149.015625 C 162.105469 147.421875 161.472656 145.914062 160.753906 144.496094 C 160.03125 143.089844 159.210938 141.746094 158.285156 140.460938 L 158.097656 141.175781 C 160.398438 139.742188 161.53125 137.085938 162.171875 134.574219 C 162.347656 133.886719 162.488281 133.191406 162.609375 132.496094 C 162.644531 132.355469 162.625 132.222656 162.554688 132.097656 C 162.480469 131.976562 162.375 131.890625 162.238281 131.851562 C 162.097656 131.8125 161.964844 131.832031 161.835938 131.902344 C 161.710938 131.972656 161.628906 132.078125 161.589844 132.21875 Z M 161.589844 132.21875 " fill-opacity="1" fill-rule="nonzero"/></g><g clip-path="url(#a081135c1f)"><path fill="#a54a2f" d="M 155.082031 144.074219 C 154.808594 145.660156 154.339844 147.652344 152.863281 148.59375 C 152.738281 148.667969 152.660156 148.773438 152.621094 148.914062 C 152.585938 149.050781 152.601562 149.183594 152.675781 149.308594 C 153.179688 150.011719 153.632812 150.746094 154.035156 151.511719 C 154.40625 152.21875 154.769531 153.019531 154.851562 153.816406 C 154.855469 153.945312 154.898438 154.058594 154.984375 154.15625 C 155.070312 154.253906 155.179688 154.308594 155.308594 154.328125 C 155.441406 154.347656 155.5625 154.320312 155.671875 154.25 C 155.78125 154.175781 155.855469 154.078125 155.890625 153.953125 C 156.285156 152.15625 156.964844 150.480469 158.375 149.234375 C 158.433594 149.175781 158.472656 149.109375 158.5 149.03125 C 158.527344 148.957031 158.535156 148.878906 158.523438 148.796875 C 158.511719 148.714844 158.484375 148.644531 158.441406 148.574219 C 158.394531 148.507812 158.335938 148.453125 158.265625 148.410156 C 157.4375 148.089844 156.828125 147.53125 156.441406 146.734375 C 156.09375 145.976562 156.0625 145.070312 156.121094 144.222656 C 156.121094 144.078125 156.070312 143.953125 155.964844 143.851562 C 155.863281 143.75 155.738281 143.695312 155.589844 143.695312 C 155.445312 143.695312 155.320312 143.75 155.21875 143.851562 C 155.113281 143.953125 155.0625 144.078125 155.0625 144.222656 C 154.953125 145.273438 155.109375 146.285156 155.527344 147.257812 C 156.003906 148.222656 156.738281 148.910156 157.734375 149.324219 L 157.625 148.5 C 156.089844 149.855469 155.300781 151.722656 154.875 153.679688 L 155.914062 153.820312 C 155.785156 152.871094 155.492188 151.976562 155.03125 151.136719 C 154.613281 150.316406 154.132812 149.527344 153.59375 148.777344 L 153.402344 149.496094 C 155.136719 148.394531 155.769531 146.25 156.101562 144.351562 C 156.136719 144.214844 156.117188 144.082031 156.046875 143.957031 C 155.976562 143.832031 155.871094 143.75 155.730469 143.710938 C 155.589844 143.671875 155.457031 143.6875 155.332031 143.761719 C 155.203125 143.832031 155.121094 143.9375 155.082031 144.074219 Z M 155.082031 144.074219 " fill-opacity="1" fill-rule="nonzero"/></g><g clip-path="url(#02894cc2a3)"><path fill="#a54a2f" d="M 223.296875 149.628906 C 223.695312 151.949219 224.304688 154.480469 225.835938 156.351562 C 226.253906 156.875 226.746094 157.320312 227.316406 157.683594 C 227.441406 157.757812 227.519531 157.863281 227.558594 158.003906 C 227.59375 158.140625 227.574219 158.273438 227.503906 158.398438 C 226.613281 159.640625 225.816406 160.933594 225.113281 162.285156 C 224.460938 163.566406 223.824219 164.984375 223.679688 166.425781 C 223.675781 166.554688 223.632812 166.667969 223.546875 166.765625 C 223.460938 166.863281 223.351562 166.917969 223.222656 166.9375 C 223.089844 166.957031 222.972656 166.929688 222.859375 166.859375 C 222.75 166.785156 222.675781 166.6875 222.640625 166.5625 C 222.328125 164.988281 221.832031 163.476562 221.144531 162.023438 C 220.429688 160.5625 219.457031 159.289062 218.230469 158.207031 C 218.175781 158.148438 218.132812 158.082031 218.105469 158.003906 C 218.078125 157.929688 218.070312 157.851562 218.082031 157.769531 C 218.09375 157.6875 218.121094 157.613281 218.164062 157.546875 C 218.210938 157.480469 218.265625 157.425781 218.335938 157.382812 C 219.457031 156.898438 220.488281 156.179688 221.160156 155.179688 C 221.789062 154.210938 222.152344 153.152344 222.246094 152.003906 C 222.3125 151.257812 222.316406 150.511719 222.257812 149.765625 C 222.257812 149.625 222.3125 149.5 222.414062 149.398438 C 222.515625 149.296875 222.640625 149.246094 222.785156 149.242188 C 222.929688 149.246094 223.054688 149.296875 223.15625 149.398438 C 223.261719 149.5 223.3125 149.625 223.316406 149.765625 C 223.503906 152.386719 223.019531 155.199219 220.929688 157.007812 C 220.3125 157.539062 219.625 157.964844 218.871094 158.289062 L 218.980469 157.464844 C 220.269531 158.605469 221.296875 159.945312 222.058594 161.484375 C 222.792969 163.019531 223.324219 164.621094 223.660156 166.285156 L 222.621094 166.425781 C 222.78125 164.832031 223.410156 163.324219 224.128906 161.90625 C 224.851562 160.5 225.675781 159.15625 226.597656 157.871094 L 226.785156 158.589844 C 224.488281 157.152344 223.351562 154.496094 222.710938 151.984375 C 222.535156 151.296875 222.394531 150.601562 222.277344 149.90625 C 222.242188 149.765625 222.261719 149.636719 222.332031 149.511719 C 222.402344 149.386719 222.507812 149.304688 222.648438 149.261719 C 222.789062 149.226562 222.921875 149.242188 223.046875 149.3125 C 223.171875 149.386719 223.257812 149.492188 223.296875 149.628906 Z M 223.296875 149.628906 " fill-opacity="1" fill-rule="nonzero"/></g><g clip-path="url(#36f7c780d8)"><path fill="#a54a2f" d="M 229.804688 161.484375 C 230.078125 163.070312 230.542969 165.0625 232.019531 166.003906 C 232.144531 166.078125 232.226562 166.183594 232.261719 166.324219 C 232.300781 166.464844 232.28125 166.597656 232.210938 166.722656 C 231.703125 167.421875 231.25 168.15625 230.847656 168.921875 C 230.476562 169.632812 230.113281 170.433594 230.035156 171.226562 C 230.03125 171.355469 229.988281 171.46875 229.898438 171.566406 C 229.8125 171.664062 229.703125 171.722656 229.574219 171.738281 C 229.445312 171.757812 229.324219 171.730469 229.210938 171.660156 C 229.101562 171.589844 229.027344 171.488281 228.992188 171.363281 C 228.601562 169.566406 227.921875 167.890625 226.507812 166.644531 C 226.453125 166.589844 226.410156 166.519531 226.382812 166.445312 C 226.359375 166.367188 226.351562 166.289062 226.359375 166.207031 C 226.371094 166.128906 226.398438 166.054688 226.445312 165.984375 C 226.488281 165.917969 226.546875 165.863281 226.617188 165.824219 C 227.445312 165.5 228.054688 164.941406 228.445312 164.144531 C 228.789062 163.386719 228.824219 162.484375 228.765625 161.632812 C 228.765625 161.488281 228.816406 161.363281 228.917969 161.261719 C 229.023438 161.160156 229.148438 161.109375 229.292969 161.109375 C 229.4375 161.109375 229.5625 161.160156 229.667969 161.261719 C 229.769531 161.363281 229.820312 161.488281 229.820312 161.632812 C 229.929688 162.683594 229.777344 163.695312 229.355469 164.671875 C 228.882812 165.632812 228.148438 166.320312 227.148438 166.734375 L 227.257812 165.910156 C 228.792969 167.269531 229.585938 169.136719 230.007812 171.09375 L 228.96875 171.230469 C 229.097656 170.285156 229.390625 169.390625 229.851562 168.546875 C 230.273438 167.726562 230.75 166.941406 231.289062 166.1875 L 231.480469 166.90625 C 229.746094 165.804688 229.113281 163.664062 228.785156 161.765625 C 228.75 161.625 228.765625 161.492188 228.839844 161.371094 C 228.910156 161.246094 229.015625 161.160156 229.152344 161.121094 C 229.292969 161.082031 229.425781 161.101562 229.554688 161.171875 C 229.679688 161.242188 229.761719 161.347656 229.804688 161.484375 Z M 229.804688 161.484375 " fill-opacity="1" fill-rule="nonzero"/></g><g fill="#a54a2f" fill-opacity="1"><g transform="translate(118.037671, 255.994435)"><g><path d="M 5.3125 -0.0273438 C 8.214844 -0.308594 11.371094 -2.875 13.144531 -6.417969 C 13.171875 -6.519531 13.195312 -6.597656 13.195312 -6.648438 C 13.195312 -6.929688 12.992188 -7.164062 12.683594 -7.164062 C 12.476562 -7.164062 12.324219 -7.058594 12.21875 -6.878906 C 10.78125 -3.980469 7.777344 -1.027344 4.699219 -1.027344 C 2.078125 -1.027344 1.027344 -3.3125 1.027344 -6.1875 C 1.027344 -8.445312 1.667969 -10.988281 2.671875 -13.144531 C 4.160156 -16.40625 5.878906 -17.40625 7.164062 -17.40625 C 8.550781 -17.40625 9.5 -16.25 9.421875 -15.507812 C 9.394531 -15.199219 9.628906 -14.941406 9.933594 -14.941406 C 10.21875 -14.941406 10.421875 -15.121094 10.449219 -15.402344 C 10.578125 -16.738281 9.140625 -18.433594 7.164062 -18.433594 C 5.492188 -18.433594 3.464844 -17.226562 1.746094 -13.582031 C 0.640625 -11.246094 0 -8.574219 0 -6.210938 C 0 -2.796875 1.359375 0 4.648438 0 L 4.980469 0 C 5.082031 0 5.1875 0 5.3125 -0.0273438 Z M 5.3125 -0.0273438 "/></g></g></g><g fill="#a54a2f" fill-opacity="1"><g transform="translate(129.997135, 255.994435)"><g><path d="M 3.464844 0.0273438 C 5.417969 0.0273438 6.496094 -1.488281 6.496094 -3.464844 C 6.496094 -4.363281 6.265625 -5.390625 5.777344 -6.390625 C 6.625 -6.675781 7.703125 -6.828125 8.933594 -6.828125 C 9.242188 -6.828125 9.601562 -6.804688 9.933594 -6.777344 C 10.242188 -6.75 10.472656 -6.984375 10.472656 -7.289062 C 10.472656 -7.574219 10.292969 -7.777344 10.011719 -7.804688 C 9.628906 -7.832031 9.269531 -7.855469 8.882812 -7.855469 C 7.445312 -7.855469 6.265625 -7.625 5.261719 -7.316406 C 4.46875 -8.574219 3.441406 -9.652344 2.542969 -10.757812 C 1.695312 -11.859375 1.027344 -13.171875 1.027344 -14.429688 C 1.027344 -15.222656 1.257812 -15.96875 1.875 -16.585938 C 2.414062 -17.125 3.003906 -17.378906 3.671875 -17.378906 C 5.03125 -17.378906 6.265625 -16.277344 6.625 -14.683594 C 6.699219 -14.402344 6.878906 -14.273438 7.136719 -14.273438 L 7.238281 -14.273438 C 7.523438 -14.351562 7.652344 -14.53125 7.652344 -14.789062 L 7.652344 -14.890625 C 7.238281 -17.046875 5.46875 -18.40625 3.671875 -18.40625 C 2.773438 -18.40625 1.875 -18.097656 1.128906 -17.304688 C 0.332031 -16.480469 0 -15.480469 0 -14.453125 C 0 -12.992188 0.691406 -11.425781 1.71875 -10.113281 C 2.566406 -9.011719 3.542969 -8.0625 4.289062 -6.957031 C 2.851562 -6.339844 1.230469 -5.238281 0.566406 -3.824219 C 0.359375 -3.390625 0.257812 -2.976562 0.257812 -2.617188 C 0.257812 -1.078125 1.746094 0.0273438 3.464844 0.0273438 Z M 4.46875 -1.285156 C 4.183594 -1.105469 3.824219 -1.027344 3.390625 -1.027344 C 2.363281 -1.027344 1.308594 -1.617188 1.308594 -2.617188 C 1.308594 -2.875 1.359375 -3.132812 1.488281 -3.363281 C 2.105469 -4.59375 3.542969 -5.546875 4.800781 -6.058594 C 5.1875 -5.261719 5.46875 -4.289062 5.46875 -3.390625 C 5.46875 -2.488281 5.1875 -1.695312 4.46875 -1.285156 Z M 4.46875 -1.285156 "/></g></g></g><g fill="#a54a2f" fill-opacity="1"><g transform="translate(139.800819, 255.994435)"><g><path d="M 10.011719 -5.367188 C 11.066406 -5.800781 12.195312 -6.496094 13.351562 -7.394531 C 13.476562 -7.496094 13.554688 -7.625 13.554688 -7.777344 C 13.554688 -7.882812 13.503906 -7.984375 13.425781 -8.113281 C 13.351562 -8.242188 13.222656 -8.292969 13.042969 -8.292969 C 12.914062 -8.292969 12.785156 -8.265625 12.707031 -8.191406 C 11.886719 -7.546875 11.117188 -7.058594 10.371094 -6.675781 C 10.652344 -7.777344 10.78125 -8.984375 10.78125 -10.140625 C 10.78125 -12.296875 10.347656 -14.375 9.34375 -16.019531 C 8.292969 -17.765625 6.90625 -18.457031 5.546875 -18.457031 C 2.746094 -18.457031 0 -15.402344 0 -11.886719 C 0 -10.679688 0.332031 -9.394531 1.078125 -8.191406 C 0.898438 -7.289062 0.820312 -6.445312 0.820312 -5.699219 C 0.820312 -2.054688 2.617188 0 4.699219 0 C 6.570312 0 8.703125 -1.667969 10.011719 -5.367188 Z M 9.191406 -6.160156 C 8.550781 -5.929688 7.882812 -5.828125 7.214844 -5.828125 C 5.03125 -5.828125 3.183594 -6.984375 2.183594 -8.394531 C 2.414062 -9.5 2.824219 -10.601562 3.335938 -11.605469 C 3.363281 -11.707031 3.390625 -11.785156 3.390625 -11.835938 C 3.390625 -12.015625 3.3125 -12.144531 3.132812 -12.269531 C 3.054688 -12.324219 2.953125 -12.347656 2.875 -12.347656 C 2.671875 -12.347656 2.515625 -12.246094 2.4375 -12.066406 C 2.027344 -11.320312 1.746094 -10.527344 1.464844 -9.730469 C 1.179688 -10.472656 1.050781 -11.21875 1.050781 -11.964844 C 1.050781 -14.96875 3.3125 -17.40625 5.546875 -17.40625 C 7.1875 -17.40625 8.832031 -16.070312 9.523438 -12.683594 C 9.703125 -11.859375 9.78125 -11.039062 9.78125 -10.140625 C 9.78125 -8.804688 9.574219 -7.46875 9.191406 -6.160156 Z M 8.753906 -4.980469 C 7.546875 -2.207031 6.058594 -1.027344 4.722656 -1.027344 C 3.15625 -1.027344 1.875 -2.722656 1.875 -5.726562 C 1.875 -6.136719 1.898438 -6.597656 1.949219 -7.085938 C 3.261719 -5.75 5.109375 -4.800781 7.1875 -4.800781 C 7.726562 -4.800781 8.265625 -4.851562 8.753906 -4.980469 Z M 8.753906 -4.980469 "/></g></g></g><g fill="#a54a2f" fill-opacity="1"><g transform="translate(152.222235, 255.994435)"><g><path d="M -0.71875 -0.667969 C 0 -0.230469 0.820312 0 1.769531 0 C 3.722656 0 5.851562 -0.949219 7.417969 -2.105469 C 10.601562 -4.441406 11.9375 -7.546875 11.9375 -10.421875 C 11.9375 -14.222656 9.523438 -17.457031 5.621094 -17.457031 C 5.210938 -17.457031 4.773438 -17.40625 4.289062 -17.328125 C 4.363281 -17.507812 4.390625 -17.714844 4.390625 -17.894531 C 4.390625 -18.175781 4.183594 -18.433594 3.902344 -18.433594 C 3.671875 -18.433594 3.464844 -18.304688 3.390625 -18.023438 C 3.3125 -17.6875 3.285156 -17.378906 3.210938 -17.046875 C 1.898438 -16.636719 0.746094 -15.917969 0.0507812 -14.761719 C 0.0273438 -14.710938 0 -14.632812 0 -14.503906 C 0 -14.273438 0.078125 -14.144531 0.257812 -14.070312 C 0.332031 -14.015625 0.410156 -13.992188 0.488281 -13.992188 C 0.667969 -13.992188 0.820312 -14.070312 0.949219 -14.25 C 1.359375 -14.96875 2.105469 -15.480469 3.003906 -15.867188 C 2.4375 -12.476562 2.15625 -9.0625 2.15625 -5.621094 C 2.15625 -4.828125 2.183594 -4.054688 2.207031 -3.261719 C 2.207031 -2.976562 2.4375 -2.746094 2.722656 -2.746094 L 2.746094 -2.746094 C 3.082031 -2.773438 3.234375 -2.953125 3.234375 -3.285156 C 3.210938 -4.082031 3.183594 -4.902344 3.183594 -5.699219 C 3.183594 -9.242188 3.492188 -12.757812 4.109375 -16.226562 C 4.59375 -16.351562 5.109375 -16.40625 5.621094 -16.40625 C 8.910156 -16.40625 10.886719 -13.683594 10.886719 -10.449219 C 10.886719 -7.90625 9.679688 -5.03125 6.804688 -2.925781 C 5.367188 -1.875 3.492188 -1.027344 1.769531 -1.027344 C 1.078125 -1.027344 0.4375 -1.15625 -0.152344 -1.539062 C -0.230469 -1.589844 -0.332031 -1.617188 -0.4375 -1.617188 C -0.617188 -1.617188 -0.769531 -1.539062 -0.871094 -1.359375 C -0.925781 -1.285156 -0.949219 -1.179688 -0.949219 -1.105469 C -0.949219 -0.925781 -0.871094 -0.769531 -0.71875 -0.667969 Z M -0.71875 -0.667969 "/></g></g></g><g fill="#a54a2f" fill-opacity="1"><g transform="translate(165.310922, 255.994435)"><g><path d="M 1.386719 0 C 1.667969 0 1.875 -0.230469 1.875 -0.511719 C 1.796875 -1.824219 1.949219 -4.003906 2.257812 -6.46875 C 4.542969 -7.238281 5.957031 -7.597656 7.726562 -7.882812 L 7.726562 -6.828125 C 7.726562 -5.160156 7.703125 -3.441406 7.625 -1.71875 C 7.625 -1.386719 7.777344 -1.207031 8.113281 -1.179688 C 8.394531 -1.179688 8.652344 -1.386719 8.652344 -1.667969 C 8.730469 -3.335938 8.753906 -5.132812 8.753906 -6.90625 L 8.753906 -8.035156 L 10.011719 -8.191406 C 10.292969 -8.214844 10.449219 -8.394531 10.449219 -8.675781 L 10.449219 -8.753906 C 10.421875 -9.035156 10.21875 -9.214844 9.933594 -9.214844 L 9.882812 -9.214844 L 8.730469 -9.0625 C 8.652344 -13.65625 8.601562 -17.535156 6.519531 -18.277344 C 6.265625 -18.355469 6.058594 -18.40625 5.878906 -18.40625 C 2.976562 -18.40625 1.71875 -10.730469 1.308594 -7.265625 C 0.871094 -7.085938 0.386719 -6.929688 -0.152344 -6.75 C -0.386719 -6.675781 -0.511719 -6.496094 -0.511719 -6.265625 C -0.511719 -6.1875 -0.511719 -6.136719 -0.488281 -6.109375 C -0.410156 -5.878906 -0.230469 -5.75 0 -5.75 L 0.078125 -5.75 C 0.179688 -5.75 0.359375 -5.828125 1.179688 -6.136719 C 0.898438 -3.773438 0.820312 -1.71875 0.847656 -0.488281 C 0.847656 -0.207031 1.078125 0 1.359375 0 Z M 2.414062 -7.597656 C 2.722656 -9.753906 3.902344 -17.355469 5.90625 -17.355469 C 6.496094 -17.355469 6.929688 -16.765625 7.214844 -15.761719 C 7.496094 -14.761719 7.625 -12.144531 7.703125 -8.933594 C 5.851562 -8.652344 4.46875 -8.242188 2.414062 -7.597656 Z M 2.414062 -7.597656 "/></g></g></g><g fill="#a54a2f" fill-opacity="1"><g transform="translate(176.269486, 255.994435)"><g><path d="M 1.386719 0 C 1.667969 0 1.875 -0.230469 1.875 -0.511719 C 1.796875 -1.824219 1.949219 -4.003906 2.257812 -6.46875 C 4.542969 -7.238281 5.957031 -7.597656 7.726562 -7.882812 L 7.726562 -6.828125 C 7.726562 -5.160156 7.703125 -3.441406 7.625 -1.71875 C 7.625 -1.386719 7.777344 -1.207031 8.113281 -1.179688 C 8.394531 -1.179688 8.652344 -1.386719 8.652344 -1.667969 C 8.730469 -3.335938 8.753906 -5.132812 8.753906 -6.90625 L 8.753906 -8.035156 L 10.011719 -8.191406 C 10.292969 -8.214844 10.449219 -8.394531 10.449219 -8.675781 L 10.449219 -8.753906 C 10.421875 -9.035156 10.21875 -9.214844 9.933594 -9.214844 L 9.882812 -9.214844 L 8.730469 -9.0625 C 8.652344 -13.65625 8.601562 -17.535156 6.519531 -18.277344 C 6.265625 -18.355469 6.058594 -18.40625 5.878906 -18.40625 C 2.976562 -18.40625 1.71875 -10.730469 1.308594 -7.265625 C 0.871094 -7.085938 0.386719 -6.929688 -0.152344 -6.75 C -0.386719 -6.675781 -0.511719 -6.496094 -0.511719 -6.265625 C -0.511719 -6.1875 -0.511719 -6.136719 -0.488281 -6.109375 C -0.410156 -5.878906 -0.230469 -5.75 0 -5.75 L 0.078125 -5.75 C 0.179688 -5.75 0.359375 -5.828125 1.179688 -6.136719 C 0.898438 -3.773438 0.820312 -1.71875 0.847656 -0.488281 C 0.847656 -0.207031 1.078125 0 1.359375 0 Z M 2.414062 -7.597656 C 2.515625 -9.601562 3.800781 -17.355469 5.878906 -17.355469 C 6.46875 -17.355469 6.929688 -16.765625 7.214844 -15.761719 C 7.496094 -14.761719 7.625 -12.144531 7.703125 -8.933594 C 5.851562 -8.652344 4.46875 -8.242188 2.414062 -7.597656 Z M 4.59375 -19.382812 C 4.671875 -19.382812 4.671875 -19.410156 4.75 -19.410156 C 5.621094 -19.691406 6.46875 -20.023438 7.289062 -20.410156 C 7.496094 -20.488281 7.597656 -20.640625 7.597656 -20.871094 C 7.597656 -20.898438 7.574219 -20.972656 7.546875 -21.078125 C 7.46875 -21.28125 7.316406 -21.386719 7.085938 -21.386719 C 7.058594 -21.386719 6.984375 -21.359375 6.878906 -21.332031 C 6.085938 -20.949219 5.261719 -20.667969 4.414062 -20.382812 C 4.210938 -20.308594 4.082031 -20.128906 4.082031 -19.921875 C 4.082031 -19.84375 4.082031 -19.769531 4.109375 -19.742188 C 4.160156 -19.511719 4.3125 -19.382812 4.59375 -19.382812 Z M 4.59375 -19.382812 "/></g></g></g><g fill="#a54a2f" fill-opacity="1"><g transform="translate(187.22805, 255.994435)"><g><path d="M 3.464844 0.0273438 C 5.417969 0.0273438 6.496094 -1.488281 6.496094 -3.464844 C 6.496094 -4.363281 6.265625 -5.390625 5.777344 -6.390625 C 6.625 -6.675781 7.703125 -6.828125 8.933594 -6.828125 C 9.242188 -6.828125 9.601562 -6.804688 9.933594 -6.777344 C 10.242188 -6.75 10.472656 -6.984375 10.472656 -7.289062 C 10.472656 -7.574219 10.292969 -7.777344 10.011719 -7.804688 C 9.628906 -7.832031 9.269531 -7.855469 8.882812 -7.855469 C 7.445312 -7.855469 6.265625 -7.625 5.261719 -7.316406 C 4.46875 -8.574219 3.441406 -9.652344 2.542969 -10.757812 C 1.695312 -11.859375 1.027344 -13.171875 1.027344 -14.429688 C 1.027344 -15.222656 1.257812 -15.96875 1.875 -16.585938 C 2.414062 -17.125 3.003906 -17.378906 3.671875 -17.378906 C 5.03125 -17.378906 6.265625 -16.277344 6.625 -14.683594 C 6.699219 -14.402344 6.878906 -14.273438 7.136719 -14.273438 L 7.238281 -14.273438 C 7.523438 -14.351562 7.652344 -14.53125 7.652344 -14.789062 L 7.652344 -14.890625 C 7.238281 -17.046875 5.46875 -18.40625 3.671875 -18.40625 C 2.773438 -18.40625 1.875 -18.097656 1.128906 -17.304688 C 0.332031 -16.480469 0 -15.480469 0 -14.453125 C 0 -12.992188 0.691406 -11.425781 1.71875 -10.113281 C 2.566406 -9.011719 3.542969 -8.0625 4.289062 -6.957031 C 2.851562 -6.339844 1.230469 -5.238281 0.566406 -3.824219 C 0.359375 -3.390625 0.257812 -2.976562 0.257812 -2.617188 C 0.257812 -1.078125 1.746094 0.0273438 3.464844 0.0273438 Z M 4.46875 -1.285156 C 4.183594 -1.105469 3.824219 -1.027344 3.390625 -1.027344 C 2.363281 -1.027344 1.308594 -1.617188 1.308594 -2.617188 C 1.308594 -2.875 1.359375 -3.132812 1.488281 -3.363281 C 2.105469 -4.59375 3.542969 -5.546875 4.800781 -6.058594 C 5.1875 -5.261719 5.46875 -4.289062 5.46875 -3.390625 C 5.46875 -2.488281 5.1875 -1.695312 4.46875 -1.285156 Z M 4.46875 -1.285156 "/></g></g></g><g fill="#a54a2f" fill-opacity="1"><g transform="translate(197.031734, 255.994435)"><g><path d="M 4.003906 -0.101562 C 4.953125 -0.4375 4.980469 -0.796875 6.417969 -8.523438 L 8.214844 -17.894531 C 8.292969 -18.203125 8.035156 -18.484375 7.726562 -18.484375 C 7.496094 -18.484375 7.289062 -18.355469 7.214844 -18.074219 C 4.441406 -3.824219 4.183594 -1 3.515625 -1 C 3.441406 -1 3.363281 -1.027344 3.285156 -1.105469 C 1.847656 -2.234375 1.078125 -9.292969 1.078125 -14.195312 C 1.078125 -15.199219 1.105469 -16.070312 1.179688 -16.816406 C 1.207031 -17.125 0.976562 -17.378906 0.667969 -17.378906 C 0.386719 -17.378906 0.207031 -17.199219 0.179688 -16.917969 C 0.101562 -16.121094 0.078125 -15.148438 0.078125 -14.015625 C 0.078125 -10.628906 0.386719 -6.058594 1.207031 -3.15625 C 1.617188 -1.746094 2.257812 0 3.492188 0 C 3.671875 0 3.851562 -0.0273438 4.003906 -0.101562 Z M 4.003906 -0.101562 "/></g></g></g><g fill="#a54a2f" fill-opacity="1"><g transform="translate(205.167247, 255.994435)"><g><path d="M 1.386719 0 C 1.667969 0 1.875 -0.230469 1.875 -0.511719 C 1.796875 -1.824219 1.949219 -4.003906 2.257812 -6.46875 C 4.542969 -7.238281 5.957031 -7.597656 7.726562 -7.882812 L 7.726562 -6.828125 C 7.726562 -5.160156 7.703125 -3.441406 7.625 -1.71875 C 7.625 -1.386719 7.777344 -1.207031 8.113281 -1.179688 C 8.394531 -1.179688 8.652344 -1.386719 8.652344 -1.667969 C 8.730469 -3.335938 8.753906 -5.132812 8.753906 -6.90625 L 8.753906 -8.035156 L 10.011719 -8.191406 C 10.292969 -8.214844 10.449219 -8.394531 10.449219 -8.675781 L 10.449219 -8.753906 C 10.421875 -9.035156 10.21875 -9.214844 9.933594 -9.214844 L 9.882812 -9.214844 L 8.730469 -9.0625 C 8.652344 -13.65625 8.601562 -17.535156 6.519531 -18.277344 C 6.265625 -18.355469 6.058594 -18.40625 5.878906 -18.40625 C 2.976562 -18.40625 1.71875 -10.730469 1.308594 -7.265625 C 0.871094 -7.085938 0.386719 -6.929688 -0.152344 -6.75 C -0.386719 -6.675781 -0.511719 -6.496094 -0.511719 -6.265625 C -0.511719 -6.1875 -0.511719 -6.136719 -0.488281 -6.109375 C -0.410156 -5.878906 -0.230469 -5.75 0 -5.75 L 0.078125 -5.75 C 0.179688 -5.75 0.359375 -5.828125 1.179688 -6.136719 C 0.898438 -3.773438 0.820312 -1.71875 0.847656 -0.488281 C 0.847656 -0.207031 1.078125 0 1.359375 0 Z M 2.414062 -7.597656 C 2.515625 -9.601562 3.800781 -17.355469 5.878906 -17.355469 C 6.46875 -17.355469 6.929688 -16.765625 7.214844 -15.761719 C 7.496094 -14.761719 7.625 -12.144531 7.703125 -8.933594 C 5.851562 -8.652344 4.46875 -8.242188 2.414062 -7.597656 Z M 4.59375 -19.382812 C 4.671875 -19.382812 4.671875 -19.410156 4.75 -19.410156 C 5.621094 -19.691406 6.46875 -20.023438 7.289062 -20.410156 C 7.496094 -20.488281 7.597656 -20.640625 7.597656 -20.871094 C 7.597656 -20.898438 7.574219 -20.972656 7.546875 -21.078125 C 7.46875 -21.28125 7.316406 -21.386719 7.085938 -21.386719 C 7.058594 -21.386719 6.984375 -21.359375 6.878906 -21.332031 C 6.085938 -20.949219 5.261719 -20.667969 4.414062 -20.382812 C 4.210938 -20.308594 4.082031 -20.128906 4.082031 -19.921875 C 4.082031 -19.84375 4.082031 -19.769531 4.109375 -19.742188 C 4.160156 -19.511719 4.3125 -19.382812 4.59375 -19.382812 Z M 4.59375 -19.382812 "/></g></g></g><g fill="#a54a2f" fill-opacity="1"><g transform="translate(216.125811, 255.994435)"><g><path d="M 0.511719 0 C 0.796875 0 1.027344 -0.207031 1.027344 -0.488281 C 1.027344 -1.050781 2.128906 -10.167969 4.390625 -15.378906 C 5.210938 -17.304688 5.777344 -17.429688 5.878906 -17.429688 C 6.160156 -17.457031 6.445312 -16.917969 6.625 -16.429688 C 7.417969 -14.402344 7.625 -11.964844 7.625 -9.292969 C 7.625 -6.417969 7.34375 -3.441406 7.136719 -0.667969 C 7.109375 -0.359375 7.367188 -0.128906 7.675781 -0.128906 C 7.957031 -0.128906 8.136719 -0.308594 8.164062 -0.589844 C 8.371094 -3.363281 8.652344 -6.339844 8.652344 -9.242188 C 8.652344 -12.015625 8.394531 -14.660156 7.574219 -16.816406 C 7.035156 -18.226562 6.316406 -18.484375 5.800781 -18.457031 C 3.824219 -18.277344 2.308594 -13.015625 1.566406 -9.882812 C 1.410156 -9.269531 1.285156 -8.753906 1.207031 -8.371094 C 1.230469 -10.707031 1.285156 -13.066406 1.359375 -15.429688 C 1.359375 -15.710938 1.128906 -15.96875 0.847656 -15.96875 C 0.566406 -15.96875 0.332031 -15.738281 0.332031 -15.453125 C 0.207031 -10.5 0.128906 -5.46875 0 -0.511719 C 0 -0.230469 0.207031 0 0.488281 0 Z M 0.511719 0 "/></g></g></g><g fill="#a54a2f" fill-opacity="1"><g transform="translate(226.391447, 255.994435)"><g><path d="M 4.953125 -0.925781 C 6.46875 -2.363281 7.035156 -4.59375 7.394531 -6.675781 C 8.292969 -6.957031 9.164062 -7.136719 10.0625 -7.316406 C 10.320312 -7.394531 10.449219 -7.546875 10.449219 -7.832031 L 10.449219 -7.933594 C 10.371094 -8.214844 10.21875 -8.34375 9.960938 -8.34375 C 9.882812 -8.34375 9.910156 -8.316406 9.832031 -8.316406 C 9.089844 -8.136719 8.34375 -8.011719 7.546875 -7.777344 C 7.957031 -11.140625 8.011719 -14.070312 8.910156 -17.765625 C 8.984375 -18.046875 8.804688 -18.304688 8.523438 -18.382812 C 8.242188 -18.457031 7.984375 -18.277344 7.90625 -17.996094 C 7.085938 -14.710938 4.339844 -9.859375 2.207031 -9.859375 C 1.925781 -9.859375 1.644531 -9.933594 1.410156 -10.113281 C 1.15625 -10.292969 1.027344 -10.679688 1.027344 -11.21875 C 1.027344 -12.65625 1.847656 -14.941406 2.257812 -16.199219 C 2.335938 -16.480469 2.207031 -16.738281 1.925781 -16.839844 C 1.644531 -16.917969 1.359375 -16.789062 1.285156 -16.507812 C 0.589844 -14.480469 0 -12.632812 0 -11.21875 C 0 -10.320312 0.230469 -9.679688 0.820312 -9.269531 C 1.285156 -8.960938 1.746094 -8.804688 2.207031 -8.804688 C 4.160156 -8.804688 5.90625 -11.21875 7.085938 -13.296875 C 6.855469 -11.246094 6.75 -9.269531 6.46875 -7.445312 C 4.261719 -6.625 0.925781 -4.363281 0.925781 -1.976562 C 0.925781 -0.769531 1.796875 0 2.902344 0 C 3.542969 0 4.261719 -0.28125 4.953125 -0.925781 Z M 4.261719 -1.667969 C 3.800781 -1.230469 3.335938 -1 2.902344 -1 C 2.363281 -1 1.976562 -1.410156 1.976562 -2.027344 C 1.976562 -3.082031 3.082031 -4.800781 6.265625 -6.238281 C 5.957031 -4.59375 5.46875 -2.824219 4.261719 -1.667969 Z M 4.261719 -1.667969 "/></g></g></g><g fill="#a54a2f" fill-opacity="1"><g transform="translate(236.015481, 255.994435)"><g><path d="M 10.011719 -5.367188 C 11.066406 -5.800781 12.195312 -6.496094 13.351562 -7.394531 C 13.476562 -7.496094 13.554688 -7.625 13.554688 -7.777344 C 13.554688 -7.882812 13.503906 -7.984375 13.425781 -8.113281 C 13.351562 -8.242188 13.222656 -8.292969 13.042969 -8.292969 C 12.914062 -8.292969 12.785156 -8.265625 12.707031 -8.191406 C 11.886719 -7.546875 11.117188 -7.058594 10.371094 -6.675781 C 10.652344 -7.777344 10.78125 -8.984375 10.78125 -10.140625 C 10.78125 -12.296875 10.347656 -14.375 9.34375 -16.019531 C 8.292969 -17.765625 6.90625 -18.457031 5.546875 -18.457031 C 2.746094 -18.457031 0 -15.402344 0 -11.886719 C 0 -10.679688 0.332031 -9.394531 1.078125 -8.191406 C 0.898438 -7.289062 0.820312 -6.445312 0.820312 -5.699219 C 0.820312 -2.054688 2.617188 0 4.699219 0 C 6.570312 0 8.703125 -1.667969 10.011719 -5.367188 Z M 9.191406 -6.160156 C 8.550781 -5.929688 7.882812 -5.828125 7.214844 -5.828125 C 5.03125 -5.828125 3.183594 -6.984375 2.183594 -8.394531 C 2.414062 -9.5 2.824219 -10.601562 3.335938 -11.605469 C 3.363281 -11.707031 3.390625 -11.785156 3.390625 -11.835938 C 3.390625 -12.015625 3.3125 -12.144531 3.132812 -12.269531 C 3.054688 -12.324219 2.953125 -12.347656 2.875 -12.347656 C 2.671875 -12.347656 2.515625 -12.246094 2.4375 -12.066406 C 2.027344 -11.320312 1.746094 -10.527344 1.464844 -9.730469 C 1.179688 -10.472656 1.050781 -11.21875 1.050781 -11.964844 C 1.050781 -14.96875 3.3125 -17.40625 5.546875 -17.40625 C 7.1875 -17.40625 8.832031 -16.070312 9.523438 -12.683594 C 9.703125 -11.859375 9.78125 -11.039062 9.78125 -10.140625 C 9.78125 -8.804688 9.574219 -7.46875 9.191406 -6.160156 Z M 8.753906 -4.980469 C 7.546875 -2.207031 6.058594 -1.027344 4.722656 -1.027344 C 3.15625 -1.027344 1.875 -2.722656 1.875 -5.726562 C 1.875 -6.136719 1.898438 -6.597656 1.949219 -7.085938 C 3.261719 -5.75 5.109375 -4.800781 7.1875 -4.800781 C 7.726562 -4.800781 8.265625 -4.851562 8.753906 -4.980469 Z M 8.753906 -4.980469 "/></g></g></g><g fill="#a54a2f" fill-opacity="1"><g transform="translate(248.436897, 255.994435)"><g><path d="M 1.257812 0.0273438 C 1.539062 0.0273438 1.769531 -0.207031 1.769531 -0.488281 C 1.769531 -1.308594 1.746094 -2.105469 1.746094 -2.902344 C 1.746094 -3.722656 1.769531 -4.519531 1.769531 -5.3125 L 2.207031 -5.367188 C 5.417969 -5.980469 6.929688 -6.699219 9.191406 -7.804688 C 9.371094 -7.90625 9.472656 -8.0625 9.472656 -8.265625 C 9.472656 -8.316406 9.449219 -8.394531 9.421875 -8.496094 C 9.320312 -8.675781 9.164062 -8.78125 8.960938 -8.78125 C 8.910156 -8.78125 8.832031 -8.753906 8.730469 -8.730469 C 7.933594 -8.316406 4.722656 -6.648438 1.796875 -6.367188 L 1.875 -8.292969 C 3.464844 -10.292969 6.597656 -13.554688 8.78125 -15.453125 C 8.910156 -15.582031 8.960938 -15.710938 8.960938 -15.839844 C 8.960938 -15.941406 8.910156 -16.046875 8.832031 -16.171875 C 8.703125 -16.300781 8.574219 -16.351562 8.421875 -16.351562 C 8.316406 -16.351562 8.214844 -16.300781 8.085938 -16.226562 C 6.265625 -14.582031 3.671875 -11.988281 1.976562 -10.011719 C 2.105469 -12.707031 2.335938 -15.402344 2.644531 -18.097656 C 2.671875 -18.382812 2.464844 -18.585938 2.183594 -18.664062 C 1.898438 -18.691406 1.695312 -18.484375 1.617188 -18.203125 C 1.230469 -15.019531 1.050781 -11.886719 0.871094 -8.675781 C 0.28125 -7.882812 0.152344 -7.546875 0.078125 -7.367188 C 0.0273438 -7.1875 0 -7.007812 0 -6.828125 C 0 -6.289062 0.257812 -5.777344 0.769531 -5.492188 C 0.746094 -4.492188 0.71875 -3.570312 0.71875 -2.566406 C 0.71875 -1.875 0.746094 -1.179688 0.746094 -0.488281 C 0.746094 -0.207031 0.976562 0.0273438 1.257812 0.0273438 Z M 1.257812 0.0273438 "/></g></g></g><g fill="#a54a2f" fill-opacity="1"><g transform="translate(187.794698, 275.169709)"><g/></g></g></svg>