<?xml version="1.0" encoding="UTF-8"?>
<svg id="Layer_1" data-name="Layer 1" xmlns="http://www.w3.org/2000/svg" xmlns:xlink="http://www.w3.org/1999/xlink" viewBox="0 0 188.88025465 205.45702727">
  <defs>
    <style>
      .cls-1 {
        clip-path: url(#clippath-11);
      }

      .cls-2 {
        clip-path: url(#clippath-2);
      }

      .cls-3 {
        clip-path: url(#clippath-6);
      }

      .cls-4 {
        clip-path: url(#clippath-7);
      }

      .cls-5 {
        clip-path: url(#clippath-1);
      }

      .cls-6 {
        clip-path: url(#clippath-4);
      }

      .cls-7 {
        clip-path: url(#clippath-9);
      }

      .cls-8 {
        clip-path: url(#clippath);
      }

      .cls-9 {
        fill: none;
      }

      .cls-10 {
        clip-path: url(#clippath-3);
      }

      .cls-11 {
        clip-path: url(#clippath-8);
      }

      .cls-12 {
        clip-path: url(#clippath-5);
      }

      .cls-13 {
        fill: #a54a2f;
      }

      .cls-14 {
        clip-path: url(#clippath-10);
      }

      .cls-15 {
        fill: #fef0e7;
      }
    </style>
    <clipPath id="clippath">
      <rect class="cls-9" x="22.40289373" y="26.15550819" width="143.00000426" height="143.00000426"/>
    </clipPath>
    <clipPath id="clippath-1">
      <rect class="cls-9" x="4.68414321" y="106.71801059" width="81.00000241" height="48.49479311"/>
    </clipPath>
    <clipPath id="clippath-2">
      <rect class="cls-9" x="37.13726917" y="101.21280209" width="32.00000095" height="32.17187596"/>
    </clipPath>
    <clipPath id="clippath-3">
      <rect class="cls-9" x="101.92372944" y="106.71801059" width="80.5781274" height="48.49479311"/>
    </clipPath>
    <clipPath id="clippath-4">
      <rect class="cls-9" x="118.47060493" y="101.21280209" width="32.00000095" height="32.17187596"/>
    </clipPath>
    <clipPath id="clippath-5">
      <rect class="cls-9" x="55.63206139" y="58.0096758" width="76.00000226" height="86.00000256"/>
    </clipPath>
    <clipPath id="clippath-6">
      <rect class="cls-9" x="55.63206139" y="80.05134312" width="76.00000226" height="13.33333373"/>
    </clipPath>
    <clipPath id="clippath-7">
      <rect class="cls-9" x="74.47060362" y="58.0096758" width="38.66666782" height="86.00000256"/>
    </clipPath>
    <clipPath id="clippath-8">
      <rect class="cls-9" x="53.13726965" y="39.82738359" width="13.10416706" height="24.22395906"/>
    </clipPath>
    <clipPath id="clippath-9">
      <rect class="cls-9" x="47.24143614" y="54.71800904" width="8.56250026" height="15.10937545"/>
    </clipPath>
    <clipPath id="clippath-10">
      <rect class="cls-9" x="134.87685542" y="63.04092595" width="12.92708372" height="23.67708404"/>
    </clipPath>
    <clipPath id="clippath-11">
      <rect class="cls-9" x="145.13727239" y="78.71800975" width="8.41145858" height="14.32291709"/>
    </clipPath>
  </defs>
  <path class="cls-13" d="M15.03281702,56.23975794l.91666669,2.2708334,2.22916673,.95833336-.52083335,1.20833337-8.56250026-3.68750011,.52083335-1.20833337,4.77083348,2.06250006-2.77083342-6.70833353,.60416668-1.41666671,2.2708334,5.33333349,6.39583352-1.87500006-.62500002,1.41666671-5.22916682,1.64583338Z"/>
  <path class="cls-13" d="M26.75767088,41.48943198l.9791667,.64583335-3.75000011,5.62500017-7.77083356-5.16666682,3.64583344-5.47916683,.9791667,.64583335-2.89583342,4.37500013,2.37500007,1.58333338,2.58333341-3.89583345,.93750003,.62500002-2.58333341,3.89583345,2.50000007,1.66666672,3.00000009-4.52083347Zm-10.33333364-3.70833344l.89583336-1.35416671,.22916667,2.81250008-.66666669,1.02083336-.45833335-2.47916674Z"/>
  <path class="cls-13" d="M36.11523545,30.82264293l.85416669,.81250002-5.37500016,5.6458335-.66666669-.62500002-1.20833337-9.25000028-3.97916679,4.18750012-.83333336-.81250002,5.20833349-5.4583335,.66666669,.62500002,1.18750004,9.22916694,4.14583346-4.3541668Z"/>
  <path class="cls-13" d="M46.95318743,22.22622747l.68750002,.93750003-6.27083352,4.62500014-.54166668-.72916669,.39583335-9.29166694-4.64583347,3.41666677-.68750002-.95833336,6.06250018-4.4791668,.54166668,.75000002-.39583335,9.31250028,4.85416681-3.58333344Z"/>
  <path class="cls-13" d="M58.87455416,15.74015346l.52083335,1.0416667-6.06250018,3.00000009-4.14583346-8.35416692,5.89583351-2.91666675,.52083335,1.0416667-4.70833347,2.3333334,1.27083337,2.56250008,4.20833346-2.0833334,.50000001,1.02083336-4.20833346,2.0833334,1.33333337,2.68750008,4.87500015-2.41666674Z"/>
  <path class="cls-13" d="M63.30818874,5.35331233l1.29166671-.39583335,2.3333334,7.81250023,4.83333348-1.43750004,.33333334,1.12500003-6.12500018,1.83333339-2.66666675-8.93750027Z"/>
  <path class="cls-13" d="M90.08561466,6.13008645l-1.70833338,1.72916672,.02083333,2.41666674-1.33333337,.02083333-.04166667-9.33333361,1.33333337-.02083333,.02083333,5.20833349,5.04166682-5.22916682h1.52083338l-3.95833345,4.22916679,4.27083346,5.10416682h-1.56250005l-3.60416677-4.12500012Z"/>
  <path class="cls-13" d="M108.31950193,10.95833366l-.20833334,1.14583337-6.66666687-1.1666667,1.62500005-9.18750027,6.47916686,1.14583337-.20833334,1.14583337-5.16666682-.91666669-.50000001,2.81250008,4.62500014,.81250002-.18750001,1.12500003-4.62500014-.81250002-.52083335,2.95833342,5.35416683,.93750003Zm-.75000002-10.95833366l1.60416671,.29166668-2.52083341,1.31250004-1.18750004-.20833334,2.10416673-1.39583337Z"/>
  <path class="cls-13" d="M117.3980341,15.02509607c-.66666669-.23958398-1.27083337-.57291732-1.81250005-1.00000003-.53124938-.41666668-.91666669-.85416669-1.1666667-1.31250004l.83333336-.81250002c.23437469,.432292,.58333335,.83333336,1.0416667,1.20833337s.95833336,.6562507,1.50000004,.85416669c.71875066,.26041731,1.30208401,.33333334,1.75000005,.20833334,.45833335-.11458266,.75520772-.36979202,.89583336-.77083336,.10937437-.30208267,.09374937-.58333335-.04166667-.83333336-.125-.26041604-.31250001-.50000001-.56250002-.70833335s-.61979232-.46354136-1.1041667-.77083336c-.61458399-.40104136-1.0937494-.75520804-1.43750004-1.06250003-.33333334-.30208271-.58333335-.6718747-.75000002-1.1041667-.16666667-.42708398-.15624937-.927084,.04166667-1.50000004,.17708397-.45833335,.45833335-.83333336,.83333336-1.12500003,.38541731-.30208398,.87500003-.46875065,1.45833338-.50000001,.58333335-.04166667,1.25000004,.07291603,2.00000006,.33333334,.50000001,.18229231,.9791667,.43229232,1.43750004,.75000002,.45833335,.30729231,.81770772,.66145899,1.08333337,1.06250003l-.77083336,.85416669c-.29166668-.37500001-.62500002-.69791605-1.00000003-.9791667-.36458271-.27604104-.73958272-.48437438-1.12500003-.62500002-.72395899-.26041604-1.31250004-.32291731-1.77083339-.18750001-.44791732,.125-.73958399,.39583335-.87500003,.81250002-.11458397,.29166668-.10416667,.57291732,.02083333,.83333336,.13541731,.26562533,.33333334,.50000001,.58333335,.70833335,.26041731,.20833334,.62500002,.46874938,1.08333337,.77083336,.60937438,.39062533,1.08854106,.74479201,1.43750004,1.06250003,.34374937,.30729199,.60416668,.67708272,.77083336,1.1041667,.16666667,.432292,.14583334,.91666669-.0625,1.45833338-.15625064,.45833335-.42708271,.83333336-.81250002,1.12500003-.39062565,.29166668-.88541733,.45833335-1.47916671,.50000001-.58333335,.04166667-1.25000004-.07812532-2.00000006-.35416668Z"/>
  <path class="cls-13" d="M133.64107657,21.48851586l-.58333335,1.02083336-6.77083354-3.85416678,.45833335-.79166669,8.66666692-3.41666677-5.00000015-2.85416675,.58333335-1.00000003,6.54166686,3.72916678-.45833335,.79166669-8.66666692,3.39583343,5.22916682,2.97916676Z"/>
  <path class="cls-13" d="M144.30379662,19.12131812l1.0416667,.83333336-5.75000017,7.35416689-1.0416667-.83333336,5.75000017-7.35416689Zm2.70833341-1.0416667l1.27083337,1.00000003h-2.83333342l-.95833336-.75000002,2.52083341-.25000001Z"/>
  <path class="cls-13" d="M152.64305061,28.10401492l-2.2083334-2.29166673,.85416669-.81250002,5.35416683,5.56250017-.85416669,.81250002-2.2083334-2.29166673-5.87500018,5.66666684-.93750003-.9791667,5.87500018-5.66666684Z"/>
  <path class="cls-13" d="M158.60109929,46.94180438l-.95833336,.64583335-3.79166678-5.60416683,7.7291669-5.25000016,3.68750011,5.4583335-.9791667,.66666669-2.93750009-4.3541668-2.35416674,1.60416671,2.62500008,3.87500012-.95833336,.64583335-2.62500008-3.87500012-2.47916674,1.68750005,3.04166676,4.50000013Z"/>
  <path class="cls-13" d="M169.2251027,52.06826937l-1.33333337-2.89583342,1.06250003-.47916668,3.20833343,7.00000021-1.06250003,.47916668-1.33333337-2.89583342-7.43750022,3.39583343-.54166668-1.20833337,7.43750022-3.39583343Z"/>
  <path class="cls-13" d="M174.07680776,65.2498697l-.83333336-3.08333343,1.12500003-.29166668,2.02083339,7.43750022-1.12500003,.29166668-.83333336-3.08333343-7.87500023,2.1458334-.35416668-1.27083337,7.87500023-2.1458334Z"/>
  <g class="cls-8">
    <path class="cls-15" d="M93.90289586,26.15550819c-39.48437618,0-71.50000213,32.01041762-71.50000213,71.50000213s32.01562595,71.50000213,71.50000213,71.50000213c39.48958451,0,71.50000213-32.01041762,71.50000213-71.50000213S133.39248038,26.15550819,93.90289586,26.15550819"/>
  </g>
  <g class="cls-5">
    <path class="cls-13" d="M85.09560394,153.66592865c-3.30208343-1.2291667-5.80208351-4.03645845-7.8385419-6.82291687-2.17187506-2.97916676-3.95312512-6.21875019-6.07812518-9.22395861-2.77083342-3.88020845-5.78125017-7.55729189-9.04166694-11.03125033-1.64062505-1.75520839-3.3281251-3.4687501-5.07291682-5.12500015-1.55208338-1.47916671-3.12500009-2.95833342-4.78645848-4.31250013-2.62500008-2.10937506-5.4427085-3.91145845-8.45833359-5.40625016-3.30729177-1.69270838-6.76041687-2.96875009-10.36458364-3.83854178-3.4531251-.80208336-7.03125021-1.14583337-10.55729198-.62500002-3.38020843,.43229168-6.33854186,1.80208339-8.86979193,4.09375012-1.43750004,1.34375004-2.83333342,2.73958341-4.15625012,4.19270846-1.39062504,1.54166671-2.75000008,3.19791676-3.70312511,5.05729182-.85416669,1.68229172-1.20312504,3.53125011-1.37500004,5.40104183-.18750001,2.05208339-.11979167,4.09895846,.20833334,6.13020852,.13020834,.85937503,.34375001,1.69270838,.64062502,2.50520841,.09895834,.32291668,.31770834,.50520835,.65104169,.54687502,.33333334,.046875,.58854168-.07291667,.76562502-.35937501,1.52083338-2.46354174,1.61979171-5.52604183,3.2031251-7.9479169,.42708335-.59895835,.88541669-1.1666667,1.37500004-1.70833338,.43229168-.52083335,.86979169-1.03645836,1.31250004-1.53645838,.84895836-.98958336,1.79687505-1.87500006,2.84375008-2.65104175,1.26562504-.90104169,2.69270841-1.52604171,4.09895846-2.16666673,1.50520838-.68750002,3.03125009-1.32812504,4.57812514-1.91666672,3.14583343-1.23437504,6.38541686-2.14062506,9.71354196-2.71875008,1.71354172-.28125001,3.4375001-.44791668,5.17187515-.51041668,1.76562505-.09895834,3.5000001,.078125,5.20312516,.53125002,.9635417,.28125001,1.37500004-1.2291667,.41145835-1.50520838-3.10416676-.91145836-6.46354186-.64583335-9.61979195-.24479167-3.46354177,.46354168-6.83333354,1.29687504-10.1093753,2.50000007-1.64062505,.58854168-3.25520843,1.25000004-4.84895848,1.94270839-1.54166671,.60937502-3.03645842,1.31770837-4.48958347,2.12500006-2.45312507,1.47395838-4.23437513,3.67187511-6.05729185,5.83854184-.58333335,.66666669-1.08333337,1.39583337-1.48958338,2.18750007-.36458334,.77083336-.67187502,1.56770838-.91145836,2.38541674-.48437501,1.58333338-.85937503,3.18750009-1.72916672,4.59895847l1.42187504,.18750001c-.60416668-1.72395838-.90104169-3.5000001-.89583336-5.33333349-.07291667-1.89583339,.11458334-3.76041678,.56250002-5.60416683,.45833335-1.76041672,1.45833338-3.32291677,2.57291674-4.75000014,1.31250004-1.61979171,2.71875008-3.15104176,4.21875013-4.5885418,1.18750004-1.17708337,2.3333334-2.3020834,3.75520845-3.15625009,1.34375004-.79687502,2.77604175-1.37500004,4.30208346-1.72395838,3.18229176-.75000002,6.58854186-.60416668,9.82291696,0,3.5156251,.68229169,6.89062521,1.78645839,10.13020864,3.31770843,3.07812509,1.40625004,5.97916684,3.12500009,8.69270859,5.15625015,1.39583337,1.04687503,2.79687508,2.3333334,4.13020846,3.56250011,1.73437505,1.59895838,3.4218751,3.24479176,5.06770848,4.93750015,3.27604176,3.36979177,6.32291686,6.93750021,9.14583361,10.70312532,2.22916673,2.98958342,4.09375012,6.21875019,6.18229185,9.30208361,2.04687506,3.02604176,4.38020846,6.05208351,7.52604189,7.9791669,.74479169,.45312501,1.52604171,.83333336,2.34375007,1.1354167,.20312501,.05208333,.40104168,.02604167,.58333335-.078125,.18750001-.10416667,.30729168-.26041667,.36979168-.46875001,.05208333-.20833334,.02604167-.40625001-.08333334-.58854168-.10416667-.18750001-.26041667-.31250001-.46354168-.37500001h-.00520833Z"/>
  </g>
  <g class="cls-2">
    <path class="cls-13" d="M66.71018672,132.96801137c-1.59895838-1.56250005-2.68229175-4.28645846-3.80729178-6.25520852-1.49479171-2.59895841-3.03125009-5.10416682-4.72916681-7.59375023-3.3906251-4.96875015-6.77083354-10.94791699-12.32291703-13.76562541-2.26562507-1.14583337-5.15104182-2.42187507-7.7604169-1.80729172,3.45833344-1.1822917,6.38541686-2.88020842,10.22395864-2.17187506,3.27083343,.60416668,6.92708354,1.72916672,9.66145862,3.72916678,5.6614585,4.15625012,10.24479197,11.44270867,10.29166697,18.69791722,0,2.05729173-2.48437507,7.65625023-1.18750004,9.19791694"/>
  </g>
  <path class="cls-13" d="M73.46018692,141.7596783c-4.36458346-1.67187505-8.59895859-3.64583344-12.69270871-5.90625018-2.05208339-1.15625003-4.03645845-2.41666674-5.95312518-3.79166678-1.79166672-1.2447917-3.47916677-2.61979174-5.05208348-4.13541679-1.57291671-1.56250005-3.10416676-3.33333343-5.13541682-4.31250013l-.39062501,1.45312504c1.93229172,.06770834,3.82812511,.72916669,5.58854183,1.52083338,1.93750006,.91145836,3.81250011,1.93750006,5.61979183,3.08854176,3.79166678,2.3333334,7.61979189,4.66145847,11.104167,7.44270856,2.10937506,1.66666672,4.04687512,3.51041677,5.81770851,5.5364585,.15104167,.15104167,.33333334,.22395834,.54687502,.21875001,.20833334,0,.39062501-.078125,.54166668-.22916667,.14583334-.15104167,.22395834-.33333334,.22395834-.54687502s-.07291667-.39583335-.21875001-.54687502c-3.19270843-3.70312511-7.08854188-6.70833353-11.14583367-9.38541695-1.81770839-1.1979167-3.67708344-2.34375007-5.52604183-3.49479177-1.85416672-1.18750004-3.76562511-2.26041673-5.7395835-3.22395843-2.14062506-1.0104167-4.42187513-1.85937506-6.8125002-1.94270839-.73958336-.02604167-1.09375003,1.1197917-.39062501,1.45833338,1.80729172,.87500003,3.16666676,2.40104174,4.56250014,3.81250011,1.57291671,1.53645838,3.25520843,2.94270842,5.04687515,4.21354179,3.83854178,2.78645842,7.9166669,5.16666682,12.2239587,7.13541688,2.42187507,1.1354167,4.88541681,2.1614584,7.36979189,3.13020843,.20833334,.05729167,.40104168,.03125,.58854168-.078125,.18750001-.10416667,.30729168-.26041667,.36979168-.46875001,.05208333-.20833334,.02083333-.40625001-.08333334-.59375002-.10416667-.18229167-.26041667-.30729168-.46354168-.36979168v.015625Z"/>
  <g class="cls-10">
    <path class="cls-13" d="M102.51227112,153.66592865c3.2968751-1.2291667,5.80208351-4.03645845,7.83333357-6.82291687,2.17187506-2.97916676,3.95833345-6.21875019,6.08333351-9.22395861,2.76562508-3.88020845,5.78125017-7.55729189,9.0364586-11.03125033,1.64062505-1.75520839,3.33333343-3.4687501,5.07291682-5.12500015,1.55208338-1.47916671,3.12500009-2.95833342,4.78645848-4.31250013,2.62500008-2.10937506,5.44791683-3.91145845,8.45833359-5.40625016,3.30729177-1.69270838,6.76041687-2.96875009,10.36979198-3.83854178,3.4531251-.80208336,7.03125021-1.14583337,10.55208365-.62500002,3.38020843,.43229168,6.33854186,1.80208339,8.87500026,4.09375012,1.43750004,1.34375004,2.83333342,2.73958341,4.15104179,4.19270846,1.39583337,1.54166671,2.75520842,3.19791676,3.70312511,5.05729182,.85937503,1.68229172,1.20833337,3.53125011,1.37500004,5.40104183,.18750001,2.05208339,.11979167,4.09895846-.20833334,6.13020852-.125,.85937503-.33854168,1.69270838-.63541669,2.50520841-.10416667,.32291668-.31770834,.50520835-.65104169,.54687502-.33333334,.046875-.58854168-.07291667-.77083336-.35937501-1.52083338-2.46354174-1.61458338-5.52604183-3.2031251-7.9479169-.42187501-.59895835-.88020836-1.1666667-1.36979171-1.70833338-.43750001-.52083335-.86979169-1.03645836-1.31770837-1.53645838-.84895836-.98958336-1.79687505-1.87500006-2.83854175-2.65104175-1.27083337-.90104169-2.69270841-1.52604171-4.10416679-2.16666673-1.50520838-.68750002-3.03125009-1.32812504-4.5729168-1.91666672-3.15104176-1.23437504-6.38541686-2.14062506-9.71354196-2.71875008-1.71354172-.28125001-3.44270844-.44791668-5.17708349-.51041668-1.76041672-.09895834-3.49479177,.078125-5.20312516,.53125002-.9635417,.28125001-1.36979171-1.2291667-.41145835-1.50520838,3.10416676-.91145836,6.46354186-.64583335,9.62500029-.24479167,3.45833344,.46354168,6.8281252,1.29687504,10.1093753,2.50000007,1.64062505,.58854168,3.2500001,1.25000004,4.84375014,1.94270839,1.54166671,.60937502,3.03645842,1.31770837,4.48958347,2.12500006,2.45833341,1.47395838,4.23437513,3.67187511,6.05729185,5.83854184,.58854168,.66666669,1.08333337,1.39583337,1.49479171,2.18750007,.36458334,.77083336,.66666669,1.56770838,.91145836,2.38541674,.47916668,1.58333338,.85416669,3.18750009,1.72395838,4.59895847l-1.41666671,.18750001c.59895835-1.72395838,.89583336-3.5000001,.89062503-5.33333349,.07291667-1.89583339-.11458334-3.76041678-.55729168-5.60416683-.46354168-1.76041672-1.45833338-3.32291677-2.57812508-4.75000014-1.30729171-1.61979171-2.71354175-3.15104176-4.21875013-4.5885418-1.18750004-1.17708337-2.3333334-2.3020834-3.75520845-3.15625009-1.34375004-.79687502-2.77604175-1.37500004-4.29687513-1.72395838-3.18750009-.75000002-6.5937502-.60416668-9.82812529,0-3.51041677,.68229169-6.89062521,1.78645839-10.13020864,3.31770843-3.07812509,1.40625004-5.97395851,3.12500009-8.69270859,5.15625015-1.39062504,1.04687503-2.79166675,2.3333334-4.13020846,3.56250011-1.73437505,1.59895838-3.4218751,3.24479176-5.06770848,4.93750015-3.27083343,3.36979177-6.32291686,6.93750021-9.14062527,10.70312532-2.23437507,2.98958342-4.09375012,6.21875019-6.18750018,9.30208361-2.04687506,3.02604176-4.38020846,6.05208351-7.52604189,7.9791669-.74479169,.45312501-1.52083338,.83333336-2.33854174,1.1354167-.20833334,.05208333-.40104168,.02604167-.58854168-.078125s-.30729168-.26041667-.36458334-.46875001c-.05208333-.20833334-.02604167-.40625001,.078125-.58854168,.10416667-.18750001,.26041667-.31250001,.46354168-.37500001h.01041667Z"/>
  </g>
  <g class="cls-6">
    <path class="cls-13" d="M120.89768834,132.96801137c1.59375005-1.56250005,2.67708341-4.28645846,3.80208345-6.25520852,1.49479171-2.59895841,3.03125009-5.10416682,4.73437514-7.59375023,3.38541677-4.96875015,6.77083354-10.94791699,12.3177087-13.76562541,2.26562507-1.14583337,5.15625015-2.42187507,7.7604169-1.80729172-3.45833344-1.1822917-6.38541686-2.88020842-10.22395864-2.17187506-3.27083343,.60416668-6.92708354,1.72916672-9.66145862,3.72916678-5.6614585,4.15625012-10.24479197,11.44270867-10.29166697,18.69791722,0,2.05729173,2.48437507,7.65625023,1.19270837,9.19791694"/>
  </g>
  <path class="cls-13" d="M114.1424798,141.7596783c4.3697918-1.67187505,8.59895859-3.64583344,12.69270871-5.90625018,2.05729173-1.15625003,4.04166679-2.41666674,5.95833351-3.79166678,1.79166672-1.2447917,3.47395844-2.61979174,5.04687515-4.13541679,1.57291671-1.56250005,3.10416676-3.33333343,5.13541682-4.31250013l.39062501,1.45312504c-1.93229172,.06770834-3.82812511,.72916669-5.58854183,1.52083338-1.93750006,.91145836-3.80729178,1.93750006-5.6145835,3.08854176-3.79166678,2.3333334-7.61979189,4.66145847-11.10937533,7.44270856-2.10937506,1.66666672-4.04687512,3.51041677-5.81250017,5.5364585-.15625,.15104167-.33854168,.22395834-.54687502,.21875001-.21354167,0-.39583335-.078125-.54166668-.22916667-.15104167-.15104167-.22395834-.33333334-.22916667-.54687502,0-.21354167,.07291667-.39583335,.21875001-.54687502,3.19270843-3.70312511,7.08854188-6.70833353,11.151042-9.38541695,1.81770839-1.1979167,3.67187511-2.34375007,5.5208335-3.49479177,1.85416672-1.18750004,3.76562511-2.26041673,5.7395835-3.22395843,2.14062506-1.0104167,4.42708347-1.85937506,6.8125002-1.94270839,.74479169-.02604167,1.09375003,1.1197917,.39062501,1.45833338-1.80729172,.87500003-3.16666676,2.40104174-4.5572918,3.81250011-1.57812505,1.53645838-3.26041676,2.94270842-5.04687515,4.21354179-3.84375011,2.78645842-7.9166669,5.16666682-12.22916703,7.13541688-2.41666674,1.1354167-4.88541681,2.1614584-7.36979189,3.13020843-.20312501,.05729167-.40104168,.03125-.58854168-.078125-.18229167-.10416667-.30729168-.26041667-.36458334-.46875001-.05208333-.20833334-.02604167-.40625001,.078125-.59375002,.10416667-.18229167,.26041667-.30729168,.46354168-.36979168v.015625Z"/>
  <g class="cls-12">
    <path class="cls-13" d="M95.47060424,142.31176165l.96875003-1.61458338,2.61979174-4.37500013,3.86979178-6.46875019,4.75520848-7.92187524,5.20312516-8.68229193,5.22395849-8.72916693,4.86458348-8.13541691,4.13541679-6.89062521,2.95833342-4.94791681c.46875001-.79687502,.9635417-1.55729171,1.41145838-2.3489584,.015625-.03645833,.03645833-.06770834,.05729167-.10416667,.08854167-.15625,.11458334-.32291668,.06770834-.50000001s-.14583334-.31250001-.30208334-.40625001l-3.73958344-2.3020834-8.8958336-5.4895835-10.79166699-6.6562502-9.32291694-5.76562517c-1.50520838-.92187503-2.98437509-1.92187506-4.52083347-2.78645842-.02604167-.01041667-.046875-.02604167-.06770834-.04166667-.22395834-.125-.44270835-.125-.66666669,0l-3.73958344,2.29687507-8.8958336,5.50000016-10.79166699,6.6562502-9.32812528,5.75000017c-1.50520838,.92187503-3.04166676,1.81770839-4.52083347,2.78645842l-.0625,.04166667c-.15625,.09375-.25520834,.22916667-.30208334,.40625001s-.02604167,.34375001,.0625,.50000001l.98958336,1.65104172,2.68750008,4.48437513,3.95833345,6.60416686,4.84375014,8.08854191,5.30729182,8.85937526,5.33854183,8.90625027,4.99479182,8.34375025,4.22395846,7.04687521,3.02604176,5.03645848c.47916668,.79687502,.94270836,1.61458338,1.44270838,2.40625007l.0625,.10416667c.09375,.15625,.22916667,.26041667,.40104168,.30729168,.17708334,.046875,.34375001,.02083333,.50000001-.06770834l1.75000005-1.32812504c.15104167-.09375,.25000001-.22916667,.29687501-.40625001,.046875-.17187501,.02604167-.33854168-.05729167-.50000001-.09375-.15625-.22916667-.25520834-.40625001-.30208334s-.34375001-.02604167-.50000001,.06770834c-.58333335,.43229168-1.1666667,.87500003-1.74479172,1.32291671l.90104169,.23958334-1.00000003-1.63541672-2.68750008-4.48437513-3.96354178-6.60416686-4.83333348-8.08854191-5.31250016-8.85937526-5.33333349-8.9114586-4.99479182-8.33854192-4.22395846-7.04687521-3.02083342-5.05208348c-.47916668-.79687502-.91145836-1.64062505-1.44270838-2.40625007-.02083333-.03125-.04166667-.06770834-.0625-.10416667l-.23437501,.90625003,3.73437511-2.3020834,8.90104193-5.4895835,10.79166699-6.66145853,9.32291694-5.7552085,3.06250009-1.88541672c.50520835-.27604167,.98958336-.57812502,1.45833338-.90104169,.02083333-.015625,.046875-.02604167,.06770834-.04166667h-.66666669l3.73958344,2.30729174,8.90104193,5.48437516,10.78645865,6.66145853,9.32812528,5.75000017,3.06250009,1.90104172c.47916668,.29166668,.95312503,.65104169,1.45833338,.89583336,.02083333,.015625,.04166667,.02604167,.0625,.04166667l-.23437501-.90625003-.96875003,1.61458338-2.61979174,4.37500013-3.87500012,6.46875019-4.74479181,7.92708357-5.19791682,8.67708359-5.22916682,8.72916693-4.86458348,8.13020858-4.13541679,6.89583354-2.96875009,4.94791681c-.46875001,.79687502-.95833336,1.55729171-1.40625004,2.3489584-.02083333,.03645833-.04166667,.06770834-.0625,.10416667-.43750001,.72916669,.70312502,1.40625004,1.14062503,.67187502Z"/>
  </g>
  <g class="cls-3">
    <path class="cls-13" d="M56.11643641,82.38988486l3.71875011,1.0260417,8.96354193,2.47916674,10.79687532,2.98437509,9.31250028,2.58333341c1.49479171,.41666668,2.98437509,.89062503,4.48958347,1.2447917,.33854168,.03645833,.66145835-.01041667,.9791667-.140625l2.32812507-.64583335,8.44791692-2.34375007,10.75000032-2.96875009,9.71354196-2.68750008,5.28125016-1.47395838,.24479167-.06770834c.81770836-.22395834,.47395835-1.50520838-.34895834-1.2760417l-3.72395844,1.0260417-8.9270836,2.46875007-10.79166699,2.99479176-9.30208361,2.57291674-3.06770842,.84895836c-.47916668,.13020834-.98958336,.22916667-1.45312504,.40104168l-.06770834,.02083333h.35416668l-3.72395844-1.03125003-8.93229193-2.46875007-10.79687532-2.98437509-9.29687528-2.57291674c-1.51041671-.41666668-3.01041676-.88541669-4.53125014-1.25520837h-.06770834c-.81770836-.22395834-1.1666667,1.06250003-.34895834,1.2760417v-.01041667Z"/>
  </g>
  <g class="cls-4">
    <path class="cls-13" d="M94.77268756,142.72842833l1.1666667-3.57812511,2.97395842-9.0989586,3.93750012-12.06250036,4.15104179-12.72395871,3.54166677-10.84375032,2.10937506-6.46875019c.13020834-.40104168,.43750001-.97395836,.21875001-1.38020837-.26562501-.48437501-.61979169-.93750003-.92187503-1.39583337l-5.70312517-8.60937526-7.22916688-10.91145866-4.5885418-6.93229187-.22395834-.33854168c-.0625-.09895834-.14583334-.17708334-.24479167-.23437501-.10416667-.05729167-.21354167-.08333334-.32812501-.08333334s-.22395834,.02604167-.32812501,.08333334c-.09895834,.05729167-.18229167,.13541667-.23958334,.23437501l-3.19791676,5.06770848-6.7656252,10.73437532-6.19270852,9.80729196-1.58333338,2.49479174c-.16145834,.26562501-.32812501,.46354168-.26041667,.79687502,.015625,.08854167,.05208333,.17708334,.078125,.26562501l1.66145838,5.23958349,3.18750009,10.13020864,3.92187512,12.48437537,3.93750012,12.53125037,3.17187509,10.0156253,1.61458338,5.15104182,.078125,.22395834c.109375,.36979168,.60937502,.67187502,.96875003,.40104168l.79166669-.60416668c.15104167-.09375,.25000001-.22916667,.29687501-.40625001,.046875-.17187501,.02604167-.33854168-.0625-.50000001-.09375-.15625-.22916667-.26041667-.40104168-.30208334-.17708334-.046875-.34375001-.02604167-.50000001,.0625l-.79687502,.60416668,.97395836,.39583335-.47395835-1.50000004-1.28645837-4.08333346-1.88541672-6.00000018-2.31250007-7.35937522-2.55208341-8.06770857-2.56250008-8.14062524-2.37500007-7.59375023-2.01562506-6.38541686-1.45312504-4.61458347c-.22395834-.72395835-.40625001-1.48958338-.68750002-2.1927084,0-.03125-.015625-.06770834-.03125-.09895834l-.0625,.51562502,1.79166672-2.83854175,4.27604179-6.77083354,5.16145849-8.19270858,4.48958347-7.10937521,1.46875004-2.32291674c.25000001-.35937501,.47916668-.72395835,.69791669-1.1041667,.00520833-.02083333,.015625-.03645833,.03125-.05208333h-1.14062503l1.84895839,2.80208342,4.45312513,6.7343752,5.39583349,8.14062524,4.67187514,7.03125021,1.53125005,2.31250007c.22395834,.38541668,.46875001,.75520836,.73437502,1.10937503,.01041667,.015625,.02604167,.03125,.03125,.046875l-.06770834-.50520835-.47916668,1.47916671-1.32291671,4.04166679-1.96354173,6.00520851-2.37500007,7.29687522-2.61979174,7.9947919-2.64062508,8.06770857-2.46354174,7.55729189-2.07812506,6.36458352-1.49479171,4.56770847c-.23437501,.72395835-.50000001,1.44270838-.70833335,2.17187506,0,.03645833-.02083333,.06770834-.03125,.09895834-.25000001,.80208336,1.02083336,1.15625003,1.28645837,.34375001Z"/>
  </g>
  <g class="cls-11">
    <path class="cls-13" d="M59.2570615,40.34300861c-.53125002,3.08854176-1.34375004,6.46875019-3.38541677,8.9583336-.56250002,.70312502-1.21875004,1.29166671-1.97395839,1.78125005-.16666667,.09895834-.27604167,.23958334-.32291668,.42708335-.046875,.18229167-.02604167,.35937501,.07291667,.52604168,1.1822917,1.65104172,2.24479173,3.38020843,3.18229176,5.18229182,.87500003,1.70833338,1.71875005,3.59895844,1.91666672,5.51562516,0,.17187501,.05729167,.32291668,.17708334,.45312501,.11458334,.13020834,.25520834,.20833334,.43229168,.23437501,.17187501,.02083333,.33333334-.01041667,.47916668-.109375,.15104167-.09375,.24479167-.22395834,.29687501-.39062501,.41145835-2.0989584,1.07812503-4.11458346,1.98958339-6.05208351,.95833336-1.95312506,2.25000007-3.64583344,3.88541678-5.08854182,.078125-.078125,.13541667-.16666667,.16666667-.27083334,.03645833-.10416667,.046875-.20833334,.03645833-.31250001-.015625-.109375-.05208333-.20833334-.11458334-.29687501-.05729167-.09375-.13541667-.16666667-.22916667-.21875001-1.48958338-.65104169-2.86458342-1.60416671-3.76562511-2.93750009-.83854169-1.29687504-1.31770837-2.70833341-1.44270838-4.23958346-.09375-.98958336-.09895834-1.98437506-.015625-2.97916676-.00520833-.19270834-.07291667-.35416668-.20833334-.48958335-.140625-.13541667-.30729168-.20833334-.50000001-.20833334-.19270834,.00520833-.35937501,.07291667-.49479168,.20833334s-.20833334,.29687501-.20833334,.48958335c-.25000001,3.49479177,.39062501,7.23958355,3.17708343,9.65625029,.82812502,.70833335,1.73958339,1.2760417,2.74479175,1.70833338l-.140625-1.09895837c-1.72395838,1.52083338-3.09375009,3.30729177-4.10937512,5.35937516-.97395836,2.04687506-1.68750005,4.18229179-2.1302084,6.40104186l1.38020837,.18750001c-.20833334-2.12500006-1.05208336-4.13541679-2.01041673-6.02604185-.9635417-1.87500006-2.05729173-3.66666678-3.29166676-5.38020849l-.25000001,.95312503c3.06770842-1.91145839,4.57812514-5.45312516,5.43229183-8.8020836,.23437501-.91666669,.42187501-1.84375005,.58333335-2.77083342,.046875-.18750001,.02083333-.36458334-.07291667-.53125002-.09895834-.16145834-.23958334-.27604167-.42187501-.32812501-.18750001-.05208333-.36458334-.02604167-.53645835,.06770834-.16666667,.09375-.27604167,.23437501-.32812501,.42187501Z"/>
  </g>
  <g class="cls-7">
    <path class="cls-13" d="M50.57997791,56.15030075c-.36458334,2.1145834-.98958336,4.77083348-2.95833342,6.02604185-.16666667,.09895834-.27083334,.23958334-.32291668,.42708335-.046875,.18229167-.02604167,.35937501,.07291667,.52604168,.67187502,.93750003,1.2760417,1.91666672,1.81250005,2.93750009,.49479168,.94270836,.9791667,2.01041673,1.0885417,3.07291676,.00520833,.17187501,.0625,.32291668,.17708334,.45312501s.26041667,.20312501,.43229168,.22916667c.17708334,.02604167,.33854168-.01041667,.48437501-.10416667,.14583334-.09895834,.24479167-.22916667,.29166668-.39583335,.52604168-2.3958334,1.43229171-4.63020847,3.3125001-6.29166685,.078125-.078125,.13020834-.16666667,.16666667-.27083334,.03645833-.09895834,.046875-.20312501,.03125-.31250001s-.05208333-.20312501-.109375-.29687501c-.0625-.08854167-.140625-.16145834-.23437501-.21875001-1.1041667-.42708335-1.91666672-1.17187503-2.43229174-2.23437507-.46354168-1.0104167-.50520835-2.21875007-.42708335-3.34895843,0-.19270834-.06770834-.35937501-.20833334-.49479168-.13541667-.13541667-.30208334-.20833334-.50000001-.20833334-.19270834,0-.35937501,.07291667-.49479168,.20833334-.140625,.13541667-.20833334,.30208334-.20833334,.49479168-.14583334,1.40104171,.0625,2.75000008,.61979169,4.04687512,.63541669,1.28645837,1.61458338,2.20312507,2.94270842,2.75520842l-.14583334-1.09895837c-2.04687506,1.80729172-3.09895843,4.29687513-3.66666678,6.90625021l1.38541671,.18750001c-.17187501-1.26562504-.56250002-2.45833341-1.17708337-3.57812511-.55729168-1.09375003-1.1979167-2.1458334-1.91666672-3.14583343l-.25520834,.95833336c2.31250007-1.46875004,3.15625009-4.32812513,3.59895844-6.8593752,.046875-.18229167,.02083333-.35937501-.07291667-.52604168s-.23437501-.27604167-.42187501-.32812501-.36458334-.03125-.53125002,.06770834c-.17187501,.09375-.28125001,.23437501-.33333334,.41666668Z"/>
  </g>
  <g class="cls-14">
    <path class="cls-13" d="M141.53310562,63.55655097c.53125002,3.09375009,1.34375004,6.46875019,3.38541677,8.96354193,.55729168,.69791669,1.2135417,1.29166671,1.97395839,1.77604172,.16666667,.09895834,.27083334,.23958334,.32291668,.42708335,.046875,.18229167,.02083333,.35937501-.07291667,.52604168-1.18750004,1.65625005-2.25000007,3.38020843-3.18750009,5.18229182-.86979169,1.70833338-1.71875005,3.59895844-1.91145839,5.5208335-.00520833,.17187501-.0625,.32291668-.17708334,.45312501s-.26041667,.20312501-.43229168,.22916667c-.17708334,.02604167-.33333334-.01041667-.48437501-.10416667-.14583334-.09895834-.24479167-.22916667-.29166668-.39583335-.41666668-2.0989584-1.07812503-4.11458346-1.99479173-6.05208351-.95312503-1.94791672-2.25000007-3.64583344-3.88541678-5.08854182-.07291667-.078125-.13020834-.16666667-.16666667-.27083334-.03645833-.09895834-.046875-.20312501-.03125-.31250001s.05208333-.20833334,.109375-.29687501c.0625-.08854167,.13541667-.16145834,.22916667-.21875001,1.49479171-.64583335,2.86979175-1.60416671,3.76562511-2.93750009,.83854169-1.29166671,1.32291671-2.70312508,1.44791671-4.23437513,.08854167-.9947917,.09375-1.98958339,.015625-2.98437509,0-.18750001,.07291667-.35416668,.20833334-.48958335s.30208334-.20312501,.49479168-.20833334c.19270834,.00520833,.35937501,.07291667,.49479168,.20833334,.140625,.13541667,.20833334,.30208334,.21354167,.48958335,.25000001,3.49479177-.39583335,7.24479188-3.18229176,9.65625029-.82291669,.70833335-1.73958339,1.2760417-2.74479175,1.70833338l.14583334-1.09895837c1.71875005,1.52083338,3.08854176,3.30729177,4.10416679,5.35937516,.9791667,2.04687506,1.68750005,4.18229179,2.13541673,6.40104186l-1.38541671,.18750001c.21354167-2.12500006,1.05208336-4.13541679,2.01041673-6.02604185,.9635417-1.87500006,2.06250006-3.66666678,3.29166676-5.38020849l.25000001,.95833336c-3.06250009-1.91666672-4.57812514-5.4583335-5.43229183-8.80729193-.23437501-.91666669-.42187501-1.84375005-.57812502-2.77083342-.046875-.18750001-.02083333-.35937501,.07291667-.52604168s.23437501-.27604167,.42187501-.33333334c.18750001-.046875,.36458334-.02604167,.53125002,.06770834,.16666667,.09895834,.28125001,.23958334,.33333334,.42187501Z"/>
  </g>
  <g class="cls-1">
    <path class="cls-13" d="M150.21018921,79.3638431c.36458334,2.1145834,.98437503,4.77083348,2.95312509,6.02604185,.16666667,.09895834,.27604167,.23958334,.32291668,.42708335,.05208333,.18750001,.02604167,.36458334-.06770834,.53125002-.67708335,.93229169-1.28125004,1.91145839-1.81770839,2.93229175-.49479168,.94791669-.9791667,2.01562506-1.08333337,3.07291676-.00520833,.17187501-.0625,.32291668-.18229167,.45312501-.11458334,.13020834-.26041667,.20833334-.43229168,.22916667-.17187501,.02604167-.33333334-.01041667-.48437501-.10416667-.14583334-.09375-.24479167-.22916667-.29166668-.39583335-.52083335-2.3958334-1.42708338-4.63020847-3.3125001-6.29166685-.07291667-.07291667-.13020834-.16666667-.16666667-.26562501-.03125-.10416667-.04166667-.20833334-.03125-.31770834,.015625-.10416667,.05208333-.20312501,.11458334-.29687501,.05729167-.08854167,.13541667-.16145834,.22916667-.21354167,1.1041667-.43229168,1.91666672-1.17708337,2.43750007-2.2395834,.45833335-1.0104167,.50520835-2.21354173,.42708335-3.34895843,0-.19270834,.06770834-.35937501,.20312501-.49479168,.140625-.13541667,.30729168-.20312501,.50000001-.20312501s.35937501,.06770834,.50000001,.20312501c.13541667,.13541667,.20312501,.30208334,.20312501,.49479168,.14583334,1.40104171-.05729167,2.75000008-.61979169,4.05208345-.63020835,1.28125004-1.60937505,2.19791673-2.94270842,2.75000008l.14583334-1.09895837c2.04687506,1.81250005,3.10416676,4.30208346,3.66666678,6.91145854l-1.38541671,.18229167c.17187501-1.2604167,.56250002-2.45312507,1.17708337-3.57812511,.56250002-1.09375003,1.1979167-2.14062506,1.91666672-3.14583343l.25520834,.95833336c-2.31250007-1.46875004-3.15625009-4.3229168-3.59375011-6.85416687-.046875-.18750001-.02604167-.36458334,.07291667-.52604168,.09375-.16666667,.23437501-.28125001,.41666668-.33333334,.18750001-.05208333,.36458334-.02604167,.53645835,.06770834,.16666667,.09375,.27604167,.23437501,.33333334,.41666668Z"/>
  </g>
  <path class="cls-13" d="M7.17708291,205.38411046c3.91666615-.38020828,8.17708421-3.84374973,10.56770928-8.63020852,.03645961-.13541603,.07291667-.23958398,.07291667-.31250001,0-.38020771-.28125001-.69270772-.69791669-.69270772-.27604295,0-.48437629,.14062373-.61979169,.38541541-1.94270839,3.91666678-6.00000018,7.90104317-10.15625094,7.90104317-3.53645749,0-4.95833348-3.08333343-4.95833348-6.96875084,0-3.04687509,.86979201-6.47916686,2.2187507-9.39062528,2.01041736-4.4010418,4.33333346-5.7552085,6.06770788-5.7552085,1.86979236,0,3.15104367,1.56250005,3.04687446,2.56770841-.03124873,.41145835,.28125128,.76041669,.69270963,.76041669,.38541668,0,.66145962-.24479167,.69270835-.62500002,.17708461-1.80208339-1.76562505-4.08854179-4.43229243-4.08854179-2.25520776,0-4.99479182,1.63020838-7.3124999,6.55208353-1.49479076,3.15104176-2.35937475,6.75520853-2.35937475,9.9479176,0,4.60937482,1.8385414,8.38541628,6.27604122,8.38541628h.44791795c.140625,0,.27604104,0,.45312374-.0364584Z"/>
  <path class="cls-13" d="M20.82690428,205.45702727c2.63541738,0,4.09375076-2.04687449,4.09375076-4.71354124,0-1.21354297-.31250001-2.59895841-.973959-3.95312512,1.14583337-.38020834,2.59895905-.58854168,4.26562576-.58854168,.41666668,0,.90104169,.03124937,1.34895837,.06770834,.41666668,.03645706,.72916669-.27604167,.72916669-.69270835,0-.38020962-.23958334-.65625066-.62500002-.69270963-.51562502-.03645833-1.00520963-.0677077-1.52083338-.0677077-1.94270903,0-3.53645844,.31250001-4.89062515,.72395899-1.07291606-1.69791735-2.45833341-3.15104367-3.67187479-4.64062577-1.14583337-1.48958211-2.04687601-3.26041804-2.04687601-4.95833348,0-1.07291543,.31250128-2.07812506,1.14583464-2.91145842,.72916542-.72916669,1.52604139-1.0729167,2.42708277-1.0729167,1.83333339,0,3.5000001,1.48958338,3.98437448,3.64062384,.10416667,.38020962,.34375128,.55208462,.69270835,.55208462h.140625c.38020962-.10416667,.55208462-.34895834,.55208462-.69270835v-.140625c-.55208462-2.91145842-2.94791803-4.74479181-5.36979246-4.74479181-1.21354138,0-2.42708277,.41145835-3.43229209,1.48958338-1.07291606,1.10937503-1.52604139,2.45833341-1.52604139,3.84375011,0,1.97916673,.93750003,4.09375012,2.32291737,5.8593739,1.14062408,1.48958465,2.45833341,2.77083596,3.46354177,4.26562576-1.93750038,.82812566-4.12500044,2.3177084-5.02604309,4.2239591-.27604136,.59374938-.41145739,1.14583337-.41145739,1.63020806,0,2.0833334,2.01041609,3.57291716,4.32812418,3.57291716Zm1.35416798-1.77083314c-.38020962,.24479072-.86458399,.34895866-1.45833338,.34895866-1.38541734,0-2.80729207-.79687598-2.80729207-2.15104268,0-.34374937,.07291603-.69270804,.24479072-1.00520805,.83333336-1.66145902,2.77083469-2.94270779,4.46875077-3.64062574,.52083335,1.07812567,.90104106,2.3958334,.90104106,3.60937511,0,1.20833337-.38020771,2.28645872-1.3489571,2.8385427Z"/>
  <path class="cls-13" d="M42.90415574,198.17577635c1.42187504-.58854105,2.94791675-1.52604108,4.50520847-2.73958214,.17708461-.13541794,.28124874-.30729231,.28124874-.51562565,0-.14062564-.0729154-.28125128-.17708207-.45312501-.10416667-.17187501-.27604167-.23958334-.51562502-.23958334-.17708334,0-.34895962,.03125-.45312374,.13541667-1.1093763,.86979169-2.151043,1.52604108-3.15104303,2.0468757,.38020707-1.48958401,.55208335-3.1197924,.55208335-4.68229244,0-2.91145842-.58854296-5.71875017-1.94270712-7.93750024-1.42187631-2.35416674-3.2916674-3.29166676-5.13021039-3.29166676-3.77604114,0-7.48437459,4.12500012-7.48437459,8.87500026,0,1.63020838,.45312533,3.3593751,1.45312536,4.98958348-.23958398,1.21354234-.34375065,2.35937443-.34375065,3.36458407,0,4.92187451,2.42708404,7.69270793,5.23437484,7.69270793,2.53125071,0,5.4062508-2.25520808,7.17187585-7.24479252Zm-1.10937376-1.07291543c-.86458463,.31250001-1.76562569,.44791541-2.66666738,.44791541-2.94791739,0-5.44270945-1.55729044-6.79166687-3.46354113,.31249874-1.48958465,.86458272-2.97916676,1.55729076-4.33333346,.03645865-.140625,.06770929-.24479167,.06770929-.31250001,0-.23958207-.10416794-.41666668-.34375065-.58854168-.10416667-.06770706-.24479199-.10416667-.34895866-.10416667-.27604136,0-.4843747,.14062373-.58854137,.38020834-.55208271,1.00520836-.93229201,2.0833334-1.31770805,3.15625137-.3802093-1.00520963-.55208399-2.010418-.55208399-3.01562636,0-4.05729179,3.04687477-7.34895855,6.06249986-7.34895855,2.21875134,0,4.43750077,1.80208339,5.3750008,6.38020852,.23958334,1.1093763,.34375001,2.21354046,.34375001,3.42708344,0,1.80208339-.27604295,3.60416741-.79687375,5.3750008Zm-.58854296,1.59374878c-1.63020838,3.74479241-3.63541614,5.3385431-5.4427085,5.3385431-2.10937474,0-3.84374948-2.28645872-3.84374948-6.34375082,0-.55208399,.03124937-1.177084,.1041654-1.83854109,1.76562537,1.80208212,4.26041743,3.08854112,7.06770982,3.08854112,.72916669,0,1.45833274-.07291603,2.11458276-.24479231Z"/>
  <path class="cls-13" d="M45.19342239,204.51952749c.96874939,.58854137,2.07812411,.90104138,3.35937478,.90104138,2.63541611,0,5.51041588-1.28125067,7.62500055-2.84374945,4.29687449-3.15104303,6.09895915-7.34375085,6.09895915-11.22916891,0-5.13020721-3.2552097-9.49479068-8.52604383-9.49479068-.55208208,0-1.14062376,.06770834-1.80208212,.17187501,.10416667-.24479167,.14062373-.52083335,.14062373-.76041669,0-.38541668-.27604167-.72916669-.65624938-.72916669-.31250001,0-.59375065,.17187501-.69791605,.55208335-.10416794,.45312501-.13541731,.86979169-.23958398,1.31770837-1.77083339,.55729168-3.32812542,1.52604171-4.26562519,3.08854303-.03124987,.06770706-.06770827,.17187373-.06770827,.34374874,0,.31250001,.10416667,.48437501,.34895866,.58854168,.10416667,.07291667,.20312401,.10416667,.30729203,.10416667,.24479068,0,.45312402-.10416667,.62499998-.34375001,.55729073-.97395836,1.56249877-1.66666672,2.77604143-2.18750007-.76562534,4.57812641-1.14583337,9.18750027-1.14583337,13.83333438,0,1.07291543,.03645865,2.11458212,.06770802,3.18749978,0,.38020803,.31250001,.69270804,.69270804,.69270804h.03645865c.45312533-.03645865,.65625066-.27604136,.65625066-.72916669-.03125064-1.07291606-.06770929-2.18229237-.06770929-3.25520779,0-4.78645911,.41666668-9.53125092,1.24999972-14.21354273,.65625129-.17187501,1.34895901-.23958334,2.04166673-.23958334,4.43750077,0,7.10937712,3.67187511,7.10937712,8.04166691,0,3.42708471-1.63020965,7.31250022-5.5104181,10.15104165-1.94270776,1.42187472-4.47395878,2.56770936-6.79687488,2.56770936-.93750003,0-1.80208402-.17187596-2.59895873-.69270931-.10416667-.07291603-.24479199-.10416667-.38020803-.10416667-.24479199,0-.45312533,.10416667-.58854137,.34375065-.0729173,.10416667-.10416794,.24479199-.10416794,.34895739,0,.23958398,.10416794,.44791732,.31250128,.58854264Z"/>
  <path class="cls-13" d="M65.70666732,205.42056887c.38541604,0,.66145867-.31250001,.66145867-.69270804-.10416794-1.76562537,.1041654-4.71354276,.52083208-8.04166659,3.08333343-1.0416667,4.98958412-1.52604171,7.38020982-1.90625133v1.42187631c0,2.25000007-.03645897,4.57291617-.14062564,6.89583227,0,.45312533,.20833334,.69270931,.66145835,.72916796,.38020834,0,.72916669-.27604263,.72916669-.66145867,.10416667-2.25000007,.13541667-4.67708443,.13541667-7.0677095v-1.52604108l1.69791672-.20833334c.38541668-.03645706,.58854168-.27604167,.58854168-.65625002v-.10416667c-.03124873-.38020962-.30729168-.62500002-.69270835-.62500002h-.06770961l-1.55729044,.20833334c-.10416667-6.20312518-.17708334-11.43750034-2.98437572-12.4427087-.34374937-.10416667-.61979041-.17187501-.86458272-.17187501-3.91666678,0-5.61458286,10.35937404-6.17187487,15.04166648-.58854264,.23958461-1.24479202,.44791795-1.97395871,.69270835-.31250001,.10416794-.4843747,.34375065-.4843747,.65625066,0,.10416667,0,.1770827,.03645734,.20833334,.10416802,.31250001,.34375069,.48437438,.6562507,.48437438h.10416667c.14062534,0,.38020803-.10416667,1.48958274-.51562502-.38020803,3.18750137-.4843747,5.95833351-.44791604,7.62500019,0,.38020936,.30729199,.6562507,.69270804,.6562507h.03125064Zm1.39062409-10.26041634c.41145866-2.91145906,2.01041736-13.17187603,4.71354308-13.17187603,.79687439,0,1.38541544,.79687502,1.76562505,2.15104046,.38020834,1.35416925,.55208271,4.88541808,.65624938,9.21875155-2.49479238,.38020834-4.36458283,.93750003-7.13541752,1.80208402Z"/>
  <path class="cls-13" d="M80.50490587,205.42056887c.38541604,0,.66145867-.31250001,.66145867-.69270804-.10416794-1.76562537,.1041654-4.71354276,.52083208-8.04166659,3.08333343-1.0416667,4.98958412-1.52604171,7.38020982-1.90625133v1.42187631c0,2.25000007-.03645897,4.57291617-.14062564,6.89583227,0,.45312533,.20833334,.69270931,.66145835,.72916796,.38020834,0,.72916669-.27604263,.72916669-.66145867,.10416667-2.25000007,.13541667-4.67708443,.13541667-7.0677095v-1.52604108l1.69791672-.20833334c.38541668-.03645706,.58854168-.27604167,.58854168-.65625002v-.10416667c-.03124873-.38020962-.30729168-.62500002-.69270835-.62500002h-.06770961l-1.55729044,.20833334c-.10416667-6.20312518-.17708334-11.43750034-2.98437572-12.4427087-.34374937-.10416667-.61979041-.17187501-.86458272-.17187501-3.91666678,0-5.61458286,10.35937404-6.17187487,15.04166648-.58854264,.23958461-1.24479202,.44791795-1.97395871,.69270835-.31250001,.10416794-.4843747,.34375065-.4843747,.65625066,0,.10416667,0,.1770827,.03645734,.20833334,.10416802,.31250001,.34375069,.48437438,.6562507,.48437438h.10416667c.14062534,0,.38020803-.10416667,1.48958274-.51562502-.38020803,3.18750137-.4843747,5.95833351-.44791604,7.62500019,0,.38020936,.30729199,.6562507,.69270804,.6562507h.03125064Zm1.39062409-10.26041634c.13541731-2.70312572,1.86979204-13.17187603,4.67708411-13.17187603,.79687439,0,1.42187441,.79687502,1.80208402,2.15104046,.38020834,1.35416925,.55208271,4.88541808,.65624938,9.21875155-2.49479238,.38020834-4.36458283,.93750003-7.13541752,1.80208402Zm2.94270969-15.90625111c.10416667,0,.10416667-.03645833,.20833334-.03645833,1.1770821-.38020834,2.32291546-.83333336,3.4322905-1.35416671,.27604295-.09895834,.41666668-.30729168,.41666668-.61979169,0-.03645833-.03645706-.140625-.07291603-.28125001-.09895897-.27604167-.30729231-.41145835-.61979232-.41145835-.03645706,0-.140625,.03125-.28124874,.06770834-1.07291797,.52083335-2.18229237,.90104169-3.32291804,1.28125004-.28124874,.10416667-.45312501,.34895834-.45312501,.62500002,0,.10416667,0,.20833334,.03645833,.24479167,.06770961,.30729168,.27604295,.48437501,.65625129,.48437501Z"/>
  <path class="cls-13" d="M98.11041489,205.45702727c2.63541738,0,4.09375076-2.04687449,4.09375076-4.71354124,0-1.21354297-.31250001-2.59895841-.973959-3.95312512,1.14583337-.38020834,2.59895905-.58854168,4.26562576-.58854168,.41666668,0,.90104169,.03124937,1.34895837,.06770834,.41666668,.03645706,.72916669-.27604167,.72916669-.69270835,0-.38020962-.23958334-.65625066-.62500002-.69270963-.51562502-.03645833-1.00520963-.0677077-1.52083338-.0677077-1.94270903,0-3.53645844,.31250001-4.89062515,.72395899-1.07291606-1.69791735-2.45833341-3.15104367-3.67187479-4.64062577-1.14583337-1.48958211-2.04687601-3.26041804-2.04687601-4.95833348,0-1.07291543,.31250128-2.07812506,1.14583464-2.91145842,.72916542-.72916669,1.52604139-1.0729167,2.42708277-1.0729167,1.83333339,0,3.5000001,1.48958338,3.98437448,3.64062384,.10416667,.38020962,.34375128,.55208462,.69270835,.55208462h.140625c.38020962-.10416667,.55208462-.34895834,.55208462-.69270835v-.140625c-.55208462-2.91145842-2.94791803-4.74479181-5.36979246-4.74479181-1.21354138,0-2.42708277,.41145835-3.43229209,1.48958338-1.07291606,1.10937503-1.52604139,2.45833341-1.52604139,3.84375011,0,1.97916673,.93750003,4.09375012,2.32291737,5.8593739,1.14062408,1.48958465,2.45833341,2.77083596,3.46354177,4.26562576-1.93750038,.82812566-4.12500044,2.3177084-5.02604309,4.2239591-.27604136,.59374938-.41145739,1.14583337-.41145739,1.63020806,0,2.0833334,2.01041609,3.57291716,4.32812418,3.57291716Zm1.35416798-1.77083314c-.38020962,.24479072-.86458399,.34895866-1.45833338,.34895866-1.38541734,0-2.80729207-.79687598-2.80729207-2.15104268,0-.34374937,.07291603-.69270804,.24479072-1.00520805,.83333336-1.66145902,2.77083469-2.94270779,4.46875077-3.64062574,.52083335,1.07812567,.90104106,2.3958334,.90104106,3.60937511,0,1.20833337-.38020771,2.28645872-1.3489571,2.8385427Z"/>
  <path class="cls-13" d="M112.07829174,205.27994352c1.2812494-.44791602,1.31770837-.93229199,3.26041613-11.36458333l2.42708213-12.65104204c.09895961-.41666668-.2447904-.79687502-.66145645-.79687502-.31250001,0-.58854296,.17187501-.69270835,.55208335-3.74479178,19.23437557-4.08854306,23.04687569-4.98958412,23.04687569-.10416667,0-.20833334-.03124937-.31250001-.13541731-1.94270807-1.52604139-2.98437477-11.05729136-2.98437477-17.67708322,0-1.35416671,.03645865-2.53125008,.14062405-3.53645844,.03645865-.41666668-.27604136-.76041669-.69270804-.76041669-.38020803,0-.62500004,.23958334-.65624936,.62500002-.10416667,1.0729167-.14062534,2.3906238-.14062534,3.91666678,0,4.5729168,.41666668,10.73958302,1.52604139,14.65625012,.55208399,1.90625069,1.42187472,4.26562545,3.08333343,4.26562545,.24479199,0,.48437597-.0364584,.69270931-.14062534Z"/>
  <path class="cls-13" d="M119.5278766,205.42056887c.38541604,0,.66145867-.31250001,.66145867-.69270804-.10416794-1.76562537,.1041654-4.71354276,.52083208-8.04166659,3.08333343-1.0416667,4.98958412-1.52604171,7.38020982-1.90625133v1.42187631c0,2.25000007-.03645897,4.57291617-.14062564,6.89583227,0,.45312533,.20833334,.69270931,.66145835,.72916796,.38020834,0,.72916669-.27604263,.72916669-.66145867,.10416667-2.25000007,.13541667-4.67708443,.13541667-7.0677095v-1.52604108l1.69791672-.20833334c.38541668-.03645706,.58854168-.27604167,.58854168-.65625002v-.10416667c-.03124873-.38020962-.30729168-.62500002-.69270835-.62500002h-.06770961l-1.55729044,.20833334c-.10416667-6.20312518-.17708334-11.43750034-2.98437572-12.4427087-.34374937-.10416667-.61979041-.17187501-.86458272-.17187501-3.91666678,0-5.61458286,10.35937404-6.17187487,15.04166648-.58854264,.23958461-1.24479202,.44791795-1.97395871,.69270835-.31250001,.10416794-.4843747,.34375065-.4843747,.65625066,0,.10416667,0,.1770827,.03645734,.20833334,.10416802,.31250001,.34375069,.48437438,.6562507,.48437438h.10416667c.14062534,0,.38020803-.10416667,1.48958274-.51562502-.38020803,3.18750137-.4843747,5.95833351-.44791604,7.62500019,0,.38020936,.30729199,.6562507,.69270804,.6562507h.03125064Zm1.39062409-10.26041634c.13541731-2.70312572,1.86979204-13.17187603,4.67708411-13.17187603,.79687439,0,1.42187441,.79687502,1.80208402,2.15104046,.38020834,1.35416925,.55208271,4.88541808,.65624938,9.21875155-2.49479238,.38020834-4.36458283,.93750003-7.13541752,1.80208402Zm2.94270969-15.90625111c.10416667,0,.10416667-.03645833,.20833334-.03645833,1.1770821-.38020834,2.32291546-.83333336,3.4322905-1.35416671,.27604295-.09895834,.41666668-.30729168,.41666668-.61979169,0-.03645833-.03645706-.140625-.07291603-.28125001-.09895897-.27604167-.30729231-.41145835-.61979232-.41145835-.03645706,0-.140625,.03125-.28124874,.06770834-1.07291797,.52083335-2.18229237,.90104169-3.32291804,1.28125004-.28124874,.10416667-.45312501,.34895834-.45312501,.62500002,0,.10416667,0,.20833334,.03645833,.24479167,.06770961,.30729168,.27604295,.48437501,.65625129,.48437501Z"/>
  <path class="cls-13" d="M133.14903116,205.42056887c.3802093,0,.69270804-.27604134,.69270804-.6562507,0-.76562403,1.48958401-13.06770805,4.5416668-20.10416532,1.1093763-2.59895968,1.86979172-2.77604302,2.01041736-2.77604302,.38020771-.03125,.76041733,.69791669,1.00520773,1.35416671,1.07291797,2.73958341,1.34895901,6.03125018,1.34895901,9.63541695,0,3.88020845-.38020771,7.9010419-.65625066,11.645834-.03645706,.41666668,.31250128,.72916671,.72916796,.72916671,.38020771,0,.62500065-.24479201,.65624938-.62500004,.27604167-3.7447921,.66145835-7.76562555,.66145835-11.68229233,0-3.73958217-.34895834-7.31250022-1.45833274-10.22395864-.72916669-1.90625006-1.69791799-2.25000007-2.39062571-2.21875007-2.66666675,.24479167-4.71354149,7.34895728-5.71874953,11.57812662-.20833334,.83333336-.3802093,1.52604044-.48437597,2.04687379,.03125064-3.15625009,.10416667-6.34375019,.20833334-9.53125028,0-.38541668-.31250001-.72916669-.69270804-.72916669-.38541731,0-.69270804,.31250001-.69270804,.69270708-.17708399,6.68750274-.28125066,13.48437731-.45312533,20.17187719,0,.38020803,.27604134,.69270804,.6562507,.69270804h.03645734Z"/>
  <path class="cls-13" d="M153.00633187,204.17056883c2.04687443-1.93750006,2.80729239-4.95312578,3.29687446-7.76041626,1.20833401-.38020962,2.39062571-.62500002,3.60416741-.86979169,.34375001-.10416667,.51562502-.30729231,.51562502-.69270963v-.13541603c-.09895834-.38541541-.30729168-.55729168-.65624875-.55729168-.10416921,0-.06770961,.03645833-.17187628,.03645833-1.00520836,.23958207-2.01041673,.41666668-3.08854176,.72916669,.55729168-4.5416668,.62500002-8.49479192,1.83854172-13.4843754,.10416667-.38020834-.13541667-.72916669-.52083335-.83333336-.38020834-.10416667-.72395708,.140625-.8281263,.52083335-1.1093744,4.43750013-4.81770784,10.98958366-7.69791562,10.98958366-.38020803,0-.76041733-.10416667-1.07291606-.34895962-.34895866-.2447904-.52083462-.76041542-.52083462-1.48958211,0-1.94270839,1.10937599-5.02604182,1.66666672-6.72395853,.10416794-.38020834-.07291603-.72916669-.45312406-.86458336-.3802093-.10416667-.76041733,.06770834-.86458399,.44791668-.93750003,2.73958341-1.73437473,5.23437643-1.73437473,7.14062521,0,1.2135417,.31250001,2.07812506,1.10937472,2.63541802,.62500002,.41666668,1.25000004,.61979041,1.86979204,.61979041,2.63541738,0,4.99479245-3.25520843,6.58854123-6.06250018-.31250001,2.77083342-.45312374,5.44270977-.83333336,7.90104254-2.97916676,1.10937503-7.48437459,4.16145719-7.48437459,7.38541625,0,1.62500005,1.17708273,2.66666675,2.66666675,2.66666675,.86458399,0,1.83854109-.38020803,2.77083342-1.25000004Zm-.93229233-1.00520805c-.6249997,.59374938-1.24999972,.90104138-1.83854109,.90104138-.72916669,0-1.25000004-.55208399-1.25000004-1.38541734,0-1.42187472,1.49479203-3.73958281,5.79166684-5.68229056-.41666668,2.21874879-1.07812567,4.6093745-2.70312572,6.16666653Z"/>
  <path class="cls-13" d="M172.83057156,198.17577635c1.42187504-.58854105,2.94791675-1.52604108,4.50520847-2.73958214,.17708461-.13541794,.28124874-.30729231,.28124874-.51562565,0-.14062564-.0729154-.28125128-.17708207-.45312501-.10416667-.17187501-.27604167-.23958334-.51562502-.23958334-.17708334,0-.34895962,.03125-.45312374,.13541667-1.1093763,.86979169-2.151043,1.52604108-3.15104303,2.0468757,.38020707-1.48958401,.55208335-3.1197924,.55208335-4.68229244,0-2.91145842-.58854296-5.71875017-1.94270712-7.93750024-1.42187631-2.35416674-3.2916674-3.29166676-5.13021039-3.29166676-3.77604114,0-7.48437459,4.12500012-7.48437459,8.87500026,0,1.63020838,.45312533,3.3593751,1.45312536,4.98958348-.23958398,1.21354234-.34375065,2.35937443-.34375065,3.36458407,0,4.92187451,2.42708404,7.69270793,5.23437484,7.69270793,2.53125071,0,5.4062508-2.25520808,7.17187585-7.24479252Zm-1.10937376-1.07291543c-.86458463,.31250001-1.76562569,.44791541-2.66666738,.44791541-2.94791739,0-5.44270945-1.55729044-6.79166687-3.46354113,.31249874-1.48958465,.86458272-2.97916676,1.55729076-4.33333346,.03645865-.140625,.06770929-.24479167,.06770929-.31250001,0-.23958207-.10416794-.41666668-.34375065-.58854168-.10416667-.06770706-.24479199-.10416667-.34895866-.10416667-.27604136,0-.4843747,.14062373-.58854137,.38020834-.55208271,1.00520836-.93229201,2.0833334-1.31770805,3.15625137-.3802093-1.00520963-.55208399-2.010418-.55208399-3.01562636,0-4.05729179,3.04687477-7.34895855,6.06249986-7.34895855,2.21875134,0,4.43750077,1.80208339,5.3750008,6.38020852,.23958334,1.1093763,.34375001,2.21354046,.34375001,3.42708344,0,1.80208339-.27604295,3.60416741-.79687375,5.3750008Zm-.58854296,1.59374878c-1.63020838,3.74479241-3.63541614,5.3385431-5.4427085,5.3385431-2.10937474,0-3.84374948-2.28645872-3.84374948-6.34375082,0-.55208399,.03124937-1.177084,.1041654-1.83854109,1.76562537,1.80208212,4.26041743,3.08854112,7.06770982,3.08854112,.72916669,0,1.45833274-.07291603,2.11458276-.24479231Z"/>
  <path class="cls-13" d="M177.78650496,205.45702727c.38020803,0,.69270804-.31249974,.69270804-.6927091,0-1.10937468-.03125064-2.18749875-.03125064-3.26041609,0-1.10937472,.03125064-2.18229237,.03125064-3.26041613l.58854137-.06770961c4.33333346-.83333336,6.38020789-1.80208212,9.42708489-3.29166676,.2447904-.1406231,.38541541-.34895644,.38541541-.62499938,0-.06770834-.03645833-.17187501-.07291794-.31250001-.1354154-.23958334-.34374874-.38020834-.62500002-.38020834-.06770706,0-.17187373,.03645833-.3072904,.06770834-1.07812503,.55729168-5.41145849,2.80729175-9.35937591,3.19270906l.10416794-2.59895905c2.14583213-2.70833341,6.37500019-7.10937394,9.32291631-9.67187656,.17187501-.17187373,.23958207-.34895707,.23958207-.52083208,0-.140625-.06770706-.27604167-.17187373-.44791668-.17187501-.17708334-.34375001-.24479167-.55208335-.24479167-.140625,0-.27604295,.06770834-.45312501,.17187501-2.45833341,2.21875007-5.95833351,5.71875017-8.25000025,8.39062525,.1770827-3.64062638,.48958398-7.28125022,.90104138-10.92187533,.03645865-.38020834-.2395827-.65625002-.61979073-.76041669-.38541731-.03645833-.66145867,.24479167-.76562534,.62500002-.52083335,4.29687513-.76041733,8.52604192-1.00520932,12.85937538-.79687471,1.07291606-.96874939,1.52604171-1.07291606,1.76562442-.06770827,.24479167-.10416667,.48437629-.10416667,.72916796,0,.72916542,.34895866,1.42187504,1.0416667,1.80208275-.03645865,1.34895901-.0729173,2.59895873-.0729173,3.95312544,0,.93229074,.03645865,1.86979204,.03645865,2.80729076,0,.38020936,.31250001,.6927091,.69270931,.6927091Z"/>
</svg>