<?xml version="1.0" encoding="UTF-8"?>
<svg id="Layer_1" data-name="Layer 1" xmlns="http://www.w3.org/2000/svg" viewBox="0 0 1081 420.24">
  <path d="M482.28,.64c-1.13,.42,.28,6.22,4.66,18.51,3.53,9.75,6.64,18.09,6.92,18.51,.42,.28,.99-.42,1.41-1.55,1.13-2.97-10.88-36.17-13-35.47Z"/>
  <path d="M598.58,1.2c-9.18,26.42-11.87,35.19-10.6,36.03,1.98,1.13,1.41,2.26,8.2-17.66,4.24-12.29,5.65-17.8,4.52-18.94-.99-.99-1.7-.85-2.12,.57Z"/>
  <path d="M647.75,67.05c-7.07,7.21-12.29,13.57-11.45,14.13,1.55,.99,27.98-25.01,26.99-26.71-1.27-1.98-2.26-1.13-15.54,12.58Z"/>
  <path d="M505.88,58.15c0,1.41,10.46,29.96,11.3,30.95,.71,.71,16.53-20.91,21.76-29.82,.85-1.27-2.83-1.7-15.97-1.7-9.47,0-17.1,.28-17.1,.57Z"/>
  <path d="M544.88,59.28c5.37,9.33,21.2,30.52,21.9,29.82,1.27-1.27,11.16-28.12,11.16-30.1,0-.85-7.21-1.41-17.1-1.41-13.14,0-16.82,.42-15.97,1.7Z"/>
  <path d="M481.43,77.08c-9.04,9.04-16.53,17.1-16.53,17.66s10.6,.99,23.46,.99c18.23,0,23.32-.42,22.89-1.84-.42-.85-3.25-8.9-6.22-17.52-2.97-8.76-5.79-15.97-6.22-15.97s-8.2,7.49-17.38,16.67Z"/>
  <path d="M584.31,63.1c-.42,.85-2.97,7.35-5.51,14.55-2.68,7.21-5.23,14.27-5.79,15.54-.99,2.4,.71,2.54,22.47,2.54,12.86,0,23.46-.42,23.46-1.13,0-1.27-31.51-32.78-32.78-32.78-.57,0-1.27,.57-1.84,1.27Z"/>
  <path d="M532.3,81.32l-9.47,13.71,9.18,.42c4.95,.28,13.57,.28,19.08,0l9.89-.42-9.18-13.28c-4.95-7.35-9.33-13.57-9.61-13.71-.28-.28-4.66,5.65-9.89,13.28Z"/>
  <path d="M404.14,98.56c0,.85,7.35,1.41,19.08,1.41s19.08-.57,19.08-1.41-7.35-1.41-19.08-1.41-19.08,.57-19.08,1.41Z"/>
  <path d="M640.12,98.56c0,.85,7.35,1.41,19.08,1.41s19.08-.57,19.08-1.41-7.35-1.41-19.08-1.41-19.08,.57-19.08,1.41Z"/>
  <path d="M500.93,138.13c20.07,20.07,36.74,36.46,36.88,36.32s-5.23-16.67-12.01-36.6l-12.15-36.46h-49.46l36.74,36.74Z"/>
  <path d="M521.42,102.38c0,1.98,20.21,61.33,20.63,60.76,.71-.71,20.35-59.21,20.35-60.62,0-.57-9.18-1.13-20.49-1.13s-20.49,.42-20.49,.99Z"/>
  <path d="M558.02,137.85c-6.78,19.92-12.15,36.46-12.01,36.6s16.82-16.25,36.88-36.32l36.74-36.74h-49.46l-12.15,36.46Z"/>
  <path d="M432.97,127.81c-7.07,7.21-12.29,13.57-11.45,14.13,1.55,.99,27.98-25.01,26.99-26.71-1.27-1.98-2.26-1.13-15.54,12.58Z"/>
  <path d="M635.32,115.24c-1.13,1.98,25.44,27.55,27.41,26.42,1.13-.71-2.68-5.37-11.45-14.27-13.14-13.28-14.55-14.27-15.97-12.15Z"/>
  <path d="M719.25,210.9v12.01h361.75v-24.02h-361.75v12.01Z"/>
  <path d="M0,213.73v12.01H363.16v-24.02H0v12.01Z"/>
  <path d="M502.06,292.72c-2.12,2.68-5.09,6.92-6.64,9.33-2.54,4.38-2.54,4.52,0,3.11,5.93-3.25,16.53-13.99,15.54-15.54-1.84-2.97-4.8-1.84-8.9,3.11Z"/>
  <path d="M185.82,311.23c-8.2,2.83-16.53,12.72-19.64,23.03-3.96,12.72-2.68,29.96,2.83,40.84,11.73,23.03,40.84,25.44,50.02,3.96,3.53-8.2,4.95-16.67,2.54-15.97-.99,.42-2.26,3.39-2.83,6.78-2.83,16.53-17.1,25.15-31.65,19.08-8.2-3.39-11.02-11.59-11.59-34.2-.85-27.98,3.67-39.85,16.11-42.25,9.47-1.7,20.63,9.18,25.29,24.73,1.55,4.8,3.11,8.62,3.82,8.62,.57,0,1.13-7.91,1.13-17.66,0-17.52-1.13-21.48-4.1-13.42-1.7,4.95-2.83,5.23-7.63,1.41-4.38-3.53-12.72-7.07-16.11-7.07-1.41,.14-5.09,.99-8.2,2.12Z"/>
  <path d="M364.57,313.35c0,.71,2.26,1.41,4.95,1.41h4.95v35.04l-4.8-4.8c-5.65-5.65-9.89-6.08-16.53-1.55-13.57,8.9-15.12,33.63-3.11,45.08,7.21,6.92,15.69,6.5,21.9-.85l2.4-2.97,.14,3.82c0,3.82,.14,3.96,8.2,3.82,5.65-.14,6.92-.42,4.52-1.13l-3.53-.99-.71-38.72-.71-38.86-8.76-.42c-5.51-.28-8.9,.14-8.9,1.13Zm2.97,31.09c5.09,2.83,6.92,8.9,6.92,22.89,0,10.6-.57,13.99-2.83,17.8-4.38,7.21-11.3,8.62-16.11,3.25-3.25-3.53-5.51-17.8-4.38-27.84,1.55-14.7,7.63-20.77,16.39-16.11Z"/>
  <path d="M481.29,349.38c-6.92,19.78-13.57,36.88-14.98,38.15-1.27,1.13-4.1,2.12-6.08,2.12-2.12,0-3.82,.57-3.82,1.41s5.93,1.41,14.84,1.41,14.84-.57,14.84-1.41-2.26-1.41-4.95-1.41c-7.07,0-8.62-3.67-5.51-13.57l2.4-7.63h27.27l2.83,8.9c1.55,4.8,2.68,9.61,2.26,10.6-.28,.85-2.68,1.7-5.37,1.7s-4.8,.57-4.8,1.41,6.64,1.41,16.96,1.41,16.96-.57,16.96-1.41-2.54-1.41-5.65-1.41c-4.1,0-6.08-.71-6.78-2.4-.57-1.41-6.36-18.37-13-37.73-6.64-19.36-12.58-35.47-13.42-35.75-.71-.28-7.07,15.83-13.99,35.61Zm17.52,.99l5.37,15.26h-24.87l5.51-15.83c6.36-17.8,7.21-19.5,8.05-16.67,.42,1.13,3.11,8.9,5.93,17.24Z"/>
  <path d="M875.4,314.62l4.24,.85v74.89l-4.24,.85c-2.54,.57,.71,.99,7.77,.99s10.46-.42,8.48-.99c-3.11-.85-3.53-1.84-3.96-8.34-.28-5.37,.28-8.34,2.12-10.88,1.41-1.84,2.83-3.53,3.39-3.53,1.41,0,12.58,16.82,12.58,19.08,0,1.27-1.41,2.83-3.11,3.53-2.4,.85,.14,1.27,8.76,1.27,9.33,0,11.3-.42,9.04-1.55-1.7-.71-7.35-7.63-12.58-15.26l-9.61-13.99,4.38-5.37c5.93-7.49,10.17-11.16,15.12-12.86,3.53-1.27,2.4-1.41-7.77-1.41s-11.3,.28-8.05,1.41c2.12,.71,3.82,2.26,3.82,3.53,0,1.13-3.96,6.92-8.76,12.86l-8.9,10.88-.42-28.69-.28-28.54-8.2,.14c-6.08,.14-7.07,.42-3.82,1.13Z"/>
  <path d="M673.75,321.41c-8.76,13.28-8.9,13.71-6.78,12.44,6.22-3.53,15.54-12.58,15.54-14.98,0-4.52-4.95-3.11-8.76,2.54Z"/>
  <path d="M244.18,342.46c-4.8,2.54-6.78,6.08-6.78,11.73,0,6.22,5.93,11.87,17.66,16.53,12.01,4.8,14.84,6.92,14.84,11.73s-1.41,6.78-6.22,8.62c-7.91,2.97-17.38-2.97-21.9-13.99-3.11-7.21-4.38-5.09-4.24,6.5,0,10.46,.14,10.88,2.26,7.77,2.68-3.82,4.66-3.96,10.6-.28,7.21,4.38,17.52,3.11,21.76-2.54,2.4-3.11,2.4-14.41,0-17.66-.99-1.27-6.64-4.52-12.29-7.07-14.98-6.64-16.67-7.77-17.66-11.73-1.84-7.49,7.77-11.59,17.1-7.35,2.12,.99,4.95,4.1,6.5,7.07s3.11,5.37,3.39,5.37c.42,0,.57-3.67,.57-8.2-.14-4.38-.42-6.92-.85-5.65-.85,3.25-1.41,3.11-8.2-.28-6.5-3.39-11.3-3.53-16.53-.57Z"/>
  <path d="M299.57,342.74c-14.7,7.35-18.37,30.24-6.92,43.38,12.29,13.99,32.22,7.21,36.6-12.29,2.83-12.58-2.68-26.14-12.72-31.09-6.36-3.11-10.88-3.11-16.96,0Zm17.52,4.95c2.54,3.53,2.97,5.93,2.97,19.22,0,12.15-.42,15.83-2.54,18.94-3.39,5.37-8.62,7.21-13.42,4.95-5.93-2.83-8.76-10.17-8.76-22.33,0-18.79,3.67-25.86,13.14-25.15,4.24,.28,6.36,1.41,8.62,4.38Z"/>
  <path d="M411.63,342.32c-5.23,2.26-7.49,5.93-7.49,11.87,0,4.66,3.82,7.77,7.63,6.36,3.11-1.27,2.83-5.79-.57-7.63-6.36-3.39-.85-9.89,8.2-9.89,7.49,0,10.17,3.53,10.17,13.57v7.21l-7.21,.99c-14.98,1.98-22.47,7.63-22.47,16.82,0,5.09,5.09,10.6,10.74,11.73,5.93,1.13,11.16-.99,15.12-5.93l2.83-3.67,1.84,4.24c3.39,8.05,13.42,7.77,16.11-.42,.85-2.68,1.27-6.08,.99-7.35-.42-1.84-.71-1.7-.85,.71-.28,4.95-2.68,8.76-5.65,8.76-3.82,0-4.38-2.54-4.38-21.76s-1.13-22.33-9.33-25.72c-5.79-2.4-9.89-2.4-15.69,.14Zm17.95,29.25c0,5.79-3.96,14.7-7.63,16.96-.85,.57-3.67,1.13-6.22,1.13-5.65,0-8.2-4.38-6.78-11.73,1.13-6.08,4.95-9.61,11.87-10.88,8.9-1.84,8.76-1.84,8.76,4.52Z"/>
  <path d="M549.68,342.74c-3.67,1.84-5.23,3.67-6.22,7.63-2.4,9.61,2.4,14.84,19.36,21.2,4.52,1.55,9.33,4.38,10.74,6.22,6.08,7.77-2.26,16.11-13.14,13.14-5.09-1.41-13.57-10.6-13.57-14.84,0-.99-.57-2.26-1.41-2.68-.85-.57-1.41,3.11-1.27,10.17,0,8.05,.42,10.17,1.27,7.77,1.55-3.82,4.24-3.96,10.17-.28,5.51,3.39,10.74,3.53,17.38,.85,8.9-3.82,10.03-18.51,1.55-23.74-1.55-1.13-7.21-3.67-12.29-5.93-14.84-6.08-18.23-10.74-12.58-16.39s18.94-1.84,22.61,6.92c2.68,6.5,4.24,5.37,4.24-3.39,0-4.24-.57-7.77-1.41-7.77-.71,0-1.41,.99-1.41,2.12,0,2.83-1.13,2.68-7.77-.71-6.78-3.53-9.89-3.53-16.25-.28Z"/>
  <path d="M658.92,342.32c-5.23,2.26-7.49,5.93-7.49,11.87,0,4.66,3.82,7.77,7.63,6.36,3.11-1.27,2.83-5.79-.57-7.63-6.08-3.25-.99-9.89,7.49-9.89,7.77,0,10.88,3.82,10.88,13.28v7.63l-7.63,.85c-4.24,.57-10.46,2.4-13.85,4.1-4.8,2.54-6.36,4.1-7.35,8.34-1.7,7.07,.85,13.14,6.5,15.12,7.21,2.54,10.74,1.84,16.67-3.53,4.1-3.67,5.65-4.52,5.65-2.83,0,3.39,5.23,7.91,8.9,7.91,4.52,0,7.63-3.82,8.62-10.6l.85-5.65-1.84,5.65c-1.41,4.52-2.4,5.65-5.23,5.65h-3.53l-.71-19.92c-.71-21.76-1.41-23.6-9.47-26.99-5.65-2.26-9.75-2.26-15.54,.28Zm17.95,29.25c0,5.79-3.96,14.7-7.63,16.96-.85,.57-3.67,1.13-6.22,1.13-5.65,0-8.2-4.38-6.78-11.73,1.13-6.08,4.95-9.61,11.87-10.88,8.9-1.84,8.76-1.84,8.76,4.52Z"/>
  <path d="M726.88,341.61c-1.7,.57-4.24,2.83-5.93,4.8-3.67,4.8-4.52,4.66-4.52-.57,0-4.24-.14-4.24-7.35-4.1-6.78,.14-7.07,.28-3.53,1.55l3.82,1.41-.28,22.75-.42,22.75-3.53,.99c-2.12,.57,1.13,.99,7.77,.99s9.89-.42,7.77-.99c-3.39-.99-3.53-1.27-3.96-16.39-.57-22.04,3.67-31.79,13.99-31.79,7.35,0,8.9,3.96,9.47,24.87,.71,20.07,0,22.47-5.79,23.6-1.7,.28,2.26,.57,8.9,.71,6.78,0,10.46-.42,8.48-.99-3.53-.99-3.53-1.13-4.24-20.77-.57-15.83-1.27-20.49-3.25-23.6-3.82-5.93-10.74-7.91-17.38-5.23Z"/>
  <path d="M832.72,342.18c-6.36,2.97-12.72,12.29-13.85,20.49-2.54,18.94,11.73,34.76,27.41,29.96,11.45-3.39,19.36-19.22,15.83-31.94-4.38-16.11-17.1-24.02-29.39-18.51Zm17.1,5.51c2.54,3.53,2.97,5.93,2.97,19.22,0,12.15-.42,15.83-2.54,18.94-3.39,5.37-8.62,7.21-13.42,4.95-5.93-2.83-8.76-10.17-8.76-22.33,0-18.79,3.67-25.86,13.14-25.15,4.24,.28,6.36,1.41,8.62,4.38Z"/>
  <path d="M590.95,343.17c4.1,1.55,4.95,3.25,16.82,31.94,4.24,10.32,8.05,18.79,8.48,18.79,.57,0,4.38-10.32,8.62-23.03,6.92-20.49,8.2-23.17,12.44-26.14l4.66-3.11-9.75,.14c-8.05,0-9.18,.28-6.5,1.55,2.12,.99,3.11,2.83,3.11,5.37,0,3.11-8.76,30.38-10.32,31.94-.71,.71-13.71-31.51-13.71-33.91,0-1.13,1.7-2.68,3.96-3.39,2.97-1.13,1.27-1.41-8.9-1.41s-11.87,.28-8.9,1.27Z"/>
  <path d="M763.91,343.17c5.23,1.41,4.24-.57,14.84,30.66,8.05,23.6,8.2,24.59,6.64,30.8-3.53,13-13.14,17.95-13.14,6.92,0-4.8-.42-5.65-3.11-6.08-4.8-.71-7.35,5.51-4.1,10.17,4.24,6.64,13.85,5.93,18.65-1.27,1.27-1.98,6.64-17.66,12.01-34.76s10.17-31.79,10.6-32.64c.57-.71,2.83-2.26,5.37-3.39,4.24-1.84,3.96-1.84-6.22-1.84-8.48,0-10.03,.28-7.49,1.55,1.7,.85,3.39,2.26,3.82,3.39,.71,1.84-8.62,35.75-10.46,37.73-.99,1.13-12.72-33.49-12.72-37.59,0-1.13,1.7-2.83,3.96-3.53,2.97-1.13,.99-1.41-9.61-1.41s-12.44,.28-9.04,1.27Z"/>
</svg>