<?xml version="1.0" encoding="UTF-8"?>
<svg id="Layer_1" data-name="Layer 1" xmlns="http://www.w3.org/2000/svg" viewBox="0 0 100 100">
  <defs>
    <style>
      .cls-1 {
        fill: #010101;
      }
    </style>
  </defs>
  <path class="cls-1" d="M46.41,.12c-5.98,.54-11.01,1.74-15.71,3.75-6.01,2.56-10.85,5.77-15.33,10.12-4.24,4.11-7.22,8.11-9.8,13.12C2.45,33.19,.83,38.82,.18,46.03c-.69,7.52,.69,16.2,3.72,23.29,2.48,5.85,5.82,10.91,10.09,15.3,5.02,5.19,10.09,8.67,16.72,11.51,7.04,3.01,15.75,4.4,23.26,3.71,5.8-.53,10.66-1.71,15.33-3.71,6.62-2.84,11.69-6.32,16.72-11.51,3.44-3.54,6.13-7.29,8.41-11.73,3.13-6.08,4.74-11.71,5.4-18.92,.69-7.52-.69-16.2-3.72-23.29-2.75-6.47-6.38-11.73-11.48-16.68-4.48-4.35-9.32-7.55-15.33-10.12C63.41,1.35,56.36-.03,49.76,0c-1.26,.01-2.76,.06-3.35,.12Zm9.91,1.39c3.46,.49,6.06,1.11,9.09,2.12,5.41,1.81,10.44,4.51,14.76,7.94,6.53,5.18,11.52,11.67,14.78,19.27,1.32,3.07,2.35,6.46,3.04,9.92,.71,3.62,.78,4.44,.78,9.24s-.07,5.61-.78,9.24c-.69,3.51-1.69,6.79-3.04,9.92-2.71,6.29-6.76,12.08-11.66,16.6-5.33,4.92-11.19,8.39-17.91,10.61-3.11,1.03-5.93,1.68-9.45,2.18-2.22,.32-9.66,.32-11.88,0-3.52-.49-6.34-1.14-9.45-2.18-5.52-1.82-10.49-4.53-15.02-8.13-6.38-5.08-11.33-11.59-14.54-19.08-1.34-3.13-2.34-6.41-3.04-9.92-.71-3.62-.78-4.44-.78-9.24s.07-5.61,.78-9.24c.48-2.46,.82-3.75,1.62-6.15,1.82-5.52,4.53-10.5,8.13-15.03,5.08-6.38,11.59-11.33,19.08-14.54,4.07-1.74,8.79-3.02,13.21-3.57,2.22-.28,2.33-.28,6.65-.25,3.25,.02,4.24,.08,5.61,.28Z"/>
  <path class="cls-1" d="M39.25,16c-.86,.29-1.58,.78-2.05,1.36-.46,.59-5.45,8.58-5.52,8.85-.04,.14,1.74,2.09,5.93,6.54,9.79,10.4,12.21,12.94,12.4,12.98,.09,.01,1.92-1.84,4.28-4.35,2.27-2.41,6.35-6.75,9.09-9.65,2.73-2.89,4.96-5.34,4.96-5.42,0-.27-5.27-8.7-5.74-9.18-.24-.25-.66-.59-.93-.75-1.07-.62-.95-.62-11.74-.62-9.75,.01-10.01,.01-10.69,.25Zm4.59,.78c-.08,.27-1.56,7.92-1.67,8.59l-.08,.51h-4.64c-4.56,0-4.64,0-4.51-.24,.42-.79,4.55-7.32,4.87-7.71,.48-.59,1.45-1.12,2.24-1.24,.33-.05,1.33-.09,2.22-.11,1.49-.01,1.62,0,1.56,.19Zm12.33,4.19c.52,2.4,.95,4.49,.99,4.64l.05,.27h-7.13c-6.45,0-7.13-.02-7.13-.19,0-.11,.4-2.17,.88-4.58,.48-2.42,.88-4.42,.88-4.46s2.36-.07,5.27-.07h5.26l.93,4.39Zm4.81-4c.4,.2,.86,.55,1.14,.88,.26,.31,1.51,2.22,2.76,4.26l2.31,3.71-4.49,.04c-2.48,.01-4.54-.01-4.58-.06-.05-.06-.49-2.06-.99-4.45-.51-2.4-.94-4.45-.98-4.57-.06-.21,.06-.21,2.05-.18,2.02,.04,2.12,.05,2.78,.36Zm-18.4,10.93c.45,1.09,5.36,13.37,5.91,14.71,.12,.32,.2,.56,.18,.56-.06,0-14.86-15.68-15.22-16.13l-.27-.34h8.93l.48,1.2Zm14.36-1.12c0,.18-6.87,17.21-6.94,17.21-.05,0-5.91-14.54-6.92-17.19-.02-.06,3.02-.11,6.91-.11s6.95,.04,6.95,.08Zm6.27,3.88c-6.44,6.84-11.6,12.32-11.81,12.55-.12,.12,.32-1.07,.95-2.65,.65-1.58,2.16-5.34,3.38-8.37l2.21-5.51h9.01l-3.74,3.97Z"/>
  <path class="cls-1" d="M62.27,54.72c-.48,.11-.49,.12-.64,.78-.51,2.48-.66,3.02-.82,2.97-.09-.02-.54-.06-.99-.06-1.09,0-2.14,.49-2.95,1.39-.87,.96-1.26,1.92-1.32,3.21-.08,1.69,.39,2.47,1.54,2.6,.71,.08,1.59-.32,2.25-1.01l.52-.56,.05,.69c.02,.38,.11,.74,.16,.8,.18,.18,1.06-.16,1-.36-.19-.71-.08-1.39,.86-5.8,.55-2.58,1.01-4.71,1.01-4.73,0-.06-.05-.05-.67,.09Zm-1.8,4.78l.26,.21-.2,.99c-.12,.55-.36,1.32-.55,1.69-.41,.82-1.35,1.86-1.94,2.13-1.86,.88-1.74-3.15,.13-4.59,.82-.62,1.84-.81,2.31-.44Z"/>
  <path class="cls-1" d="M31.76,55.01c-.65,.12-1.74,.56-2.32,.95-1.84,1.21-3.06,3.8-2.8,5.91,.33,2.65,2.44,4.14,5.18,3.67,.81-.14,2.06-.6,2.45-.89,.21-.15,.21-.18,.01-.55-.11-.21-.21-.41-.24-.42-.01-.02-.44,.15-.93,.4-.76,.38-1.04,.45-1.88,.49-.91,.05-1.06,.02-1.66-.27-2.71-1.33-2.01-6.25,1.13-7.89,.59-.32,.75-.34,1.88-.34s1.29,.02,1.92,.34c.66,.34,.68,.34,.85,.12,.28-.39,.46-.75,.38-.82-.04-.04-.42-.2-.87-.36-.79-.28-2.39-.45-3.09-.32Z"/>
  <path class="cls-1" d="M38,58.49c-1.34,.39-1.92,1.88-1.15,2.98,.14,.19,.58,.62,.96,.95,.79,.66,1,1.05,.82,1.54-.25,.73-1.38,.91-2.4,.39l-.46-.24-.12,.45c-.07,.24-.13,.47-.13,.52s.31,.19,.68,.33c1.78,.68,3.58-.22,3.59-1.8,.01-.82-.25-1.26-1.16-1.98-.85-.67-.99-.87-.99-1.39,0-.76,.85-1.11,1.96-.78,.35,.11,.66,.18,.68,.15,.01-.02,.08-.21,.16-.44,.15-.46,.11-.52-.58-.72-.51-.14-1.34-.13-1.88,.02Z"/>
  <path class="cls-1" d="M44.34,58.51c-1.01,.35-1.79,1.08-2.34,2.19-.8,1.58-.76,3.38,.08,4.26,.74,.78,2.15,.87,3.44,.24,.59-.29,.66-.36,.64-.67-.05-.65-.09-.66-.79-.31-1.53,.81-2.54,.46-2.73-.94l-.07-.53,.76-.21c.95-.26,2.11-.79,2.6-1.2,.82-.68,1.14-1.76,.71-2.39-.39-.55-1.42-.75-2.29-.44Zm1.05,.96c.33,.22,.33,.62,.02,1.02-.25,.32-1.67,1.07-2.26,1.21-.41,.09-.41-.02-.04-.76,.33-.67,.91-1.27,1.41-1.49,.46-.2,.54-.2,.86,.02Z"/>
  <path class="cls-1" d="M51.79,58.64c-.34,.15-.92,.56-1.28,.91-.42,.4-.64,.54-.59,.39,.13-.42,.33-1.39,.29-1.41-.05-.05-1.02,.13-1.09,.19-.02,.02-.34,1.45-.69,3.16-.36,1.72-.69,3.21-.73,3.32-.06,.19,.02,.21,.52,.21h.58l.33-1.62c.18-.88,.44-1.82,.56-2.08,.29-.6,1.54-1.84,2.12-2.11,.6-.27,1.05-.21,1.24,.19,.13,.27,.07,.64-.39,2.84-.29,1.39-.53,2.58-.53,2.65,0,.08,.21,.14,.53,.14,.45,0,.53-.04,.59-.27,.49-2.14,1-4.81,1-5.34-.01-1.34-1.01-1.82-2.45-1.15Z"/>
  <path class="cls-1" d="M65.91,58.55c-.79,.27-1.72,1.21-2.22,2.24-.39,.79-.45,1-.48,1.99-.05,.95-.01,1.16,.21,1.64,.16,.34,.45,.66,.74,.86,.41,.27,.6,.32,1.36,.32s1-.06,1.6-.35c.68-.34,.71-.36,.69-.8-.01-.25-.04-.47-.07-.49-.04-.04-.34,.09-.69,.28-.85,.46-1.36,.54-1.91,.33-.49-.21-.79-.71-.79-1.34v-.46l1.07-.33c2.31-.72,3.58-2.13,3-3.33-.33-.71-1.41-.94-2.52-.54Zm1.28,.99c.56,.56-.38,1.52-1.99,2.05-.34,.11-.65,.18-.67,.15-.09-.08,.49-1.21,.84-1.61,.31-.38,1.09-.82,1.44-.84,.07,0,.25,.11,.39,.25Z"/>
  <path class="cls-1" d="M71.49,58.53c-.94,.33-1.44,1.06-1.35,2.01,.07,.78,.27,1.08,1.2,1.81,.89,.69,1.09,1.11,.85,1.71-.14,.32-.27,.42-.67,.53-.54,.15-1.35,.01-1.85-.31-.34-.22-.34-.21-.45,.39-.07,.48-.07,.49,.38,.68,1.05,.45,2.27,.34,3.09-.27,1.07-.8,.92-2.51-.32-3.35-.8-.56-1.13-.98-1.13-1.45,0-.8,.85-1.15,1.95-.82,.34,.09,.66,.14,.71,.09,.05-.05,.11-.27,.12-.49,.04-.38,0-.41-.44-.54-.62-.2-1.54-.19-2.09,.01Z"/>
  <path class="cls-1" d="M54.91,70.08c-.2,.04-.38,.15-.44,.31-.09,.21-2.24,10.19-2.24,10.39,0,.04,.25,.05,.55,.02l.55-.04,.33-1.58c.18-.87,.35-1.6,.39-1.64,.12-.12,.38,.24,1.29,1.73l.94,1.53h.68s.68,.01,.68,.01l-.4-.62c-.22-.33-.75-1.15-1.18-1.8-.44-.66-.79-1.22-.79-1.25s.79-.73,1.75-1.56l1.75-1.53-.76-.04-.75-.04-1.14,1.04c-.62,.56-1.28,1.15-1.46,1.32-.18,.15-.35,.26-.39,.24-.05-.05,.94-4.82,1.29-6.32,.07-.27,.04-.28-.68-.18Z"/>
  <path class="cls-1" d="M34.89,70.54c-1.64,.4-3.14,1.64-3.95,3.25-.56,1.14-.74,1.99-.68,3.27,.08,1.75,.96,3.09,2.42,3.66,.89,.35,2.6,.38,3.55,.06,.87-.29,1.76-.75,1.76-.91,0-.18-.34-.81-.45-.81-.05,0-.27,.12-.49,.25-1.01,.62-2.51,.86-3.54,.58-.24-.07-.67-.33-.95-.59-1.25-1.09-1.45-3.12-.51-5.12,.44-.91,1.45-1.98,2.27-2.38,.6-.29,.8-.33,1.85-.33s1.26,.04,1.87,.33c.75,.34,.82,.33,1.16-.26l.21-.35-.49-.25c-1.06-.55-2.74-.72-4.04-.4Z"/>
  <path class="cls-1" d="M41.49,73.94c-.94,.33-1.44,1.06-1.35,2.01,.07,.78,.27,1.08,1.2,1.81,.89,.69,1.09,1.11,.85,1.71-.14,.32-.27,.42-.67,.53-.54,.15-1.35,.01-1.85-.31-.34-.22-.34-.21-.45,.39-.07,.48-.07,.49,.38,.68,1.05,.45,2.27,.34,3.09-.27,1.07-.8,.92-2.51-.32-3.35-.8-.56-1.13-.98-1.13-1.45,0-.8,.85-1.15,1.95-.82,.34,.09,.66,.14,.71,.09,.05-.05,.11-.27,.12-.49,.04-.38,0-.41-.44-.54-.62-.2-1.54-.19-2.09,.01Z"/>
  <path class="cls-1" d="M48.29,73.93c-.78,.25-1.15,.48-1.79,1.15-.99,1.06-1.56,2.47-1.56,3.88,0,2.24,1.88,2.8,3.6,1.08l.64-.64v.59c0,.33,.06,.71,.12,.82,.11,.2,.16,.21,.56,.07l.44-.15-.04-.75c-.02-.55,.12-1.45,.54-3.37l.56-2.6-.86-.13c-1.09-.16-1.61-.15-2.21,.04Zm1.58,.88c.14,.09,.14,.26-.04,1.15-.34,1.8-1.34,3.37-2.48,3.92-.49,.25-.55,.25-.82,.07-1.09-.72,.06-4.11,1.69-4.98,.53-.27,1.34-.35,1.65-.16Z"/>
  <path class="cls-1" d="M67.16,73.96c-1.78,.59-3.16,2.77-3.16,4.94,0,1.04,.22,1.61,.75,1.93,.76,.47,1.71,.2,2.76-.78,.67-.62,.74-.67,.68-.39-.08,.28,.06,1.21,.18,1.34,.04,.02,.26-.02,.52-.11l.46-.16-.04-.76c-.04-.56,.09-1.4,.51-3.32,.29-1.41,.53-2.58,.51-2.6-.09-.08-1.64-.29-2.11-.28-.28,0-.76,.08-1.06,.19Zm1.75,.85c.24,.14-.24,2.22-.71,3.09-.66,1.25-1.96,2.34-2.55,2.15-.32-.09-.48-.58-.48-1.34,0-1.54,1.04-3.31,2.24-3.82,.45-.2,1.26-.25,1.51-.08Z"/>
  <path class="cls-1" d="M62.76,74.04c-.35,.16-1.01,.8-1.41,1.36l-.2,.29,.07-.45c.04-.24,.11-.62,.15-.87l.07-.42-.49,.07c-.28,.04-.53,.09-.58,.13-.06,.07-1.42,6.24-1.44,6.51,0,.11,.18,.15,.52,.15,.61,0,.53,.14,.95-1.81,.31-1.42,.46-1.78,1.25-2.84,.54-.72,.84-.91,1.52-1,.49-.06,.53-.08,.62-.51,.06-.24,.07-.52,.04-.61-.08-.22-.6-.22-1.07-.01Z"/>
</svg>