<?xml version="1.0" standalone="no"?>
<!DOCTYPE svg PUBLIC "-//W3C//DTD SVG 20010904//EN"
 "http://www.w3.org/TR/2001/REC-SVG-20010904/DTD/svg10.dtd">
<svg version="1.0" xmlns="http://www.w3.org/2000/svg"
 width="100.000000pt" height="100.000000pt" viewBox="0 0 1200.000000 1200.000000"
 preserveAspectRatio="xMidYMid meet">

<g transform="translate(0.000000,1200.000000) scale(0.100000,-0.100000)"
fill="#000000" stroke="none">
<path d="M5695 10239 c-508 -46 -936 -148 -1335 -319 -511 -218 -922 -490
-1303 -860 -360 -349 -614 -689 -833 -1115 -266 -517 -403 -995 -459 -1608
-59 -639 59 -1377 316 -1979 211 -497 495 -927 858 -1300 427 -441 858 -737
1421 -978 598 -256 1339 -374 1977 -315 493 45 906 145 1303 315 563 241 994
537 1421 978 292 301 521 620 715 997 266 517 403 995 459 1608 59 639 -59
1377 -316 1979 -234 550 -542 997 -976 1418 -381 370 -792 642 -1303 860 -500
214 -1099 332 -1660 329 -107 -1 -235 -5 -285 -10z m842 -118 c294 -42 515
-94 773 -180 460 -154 887 -383 1255 -675 555 -440 979 -992 1256 -1638 112
-261 200 -549 258 -843 60 -308 66 -377 66 -785 0 -408 -6 -477 -66 -785 -59
-298 -144 -577 -258 -843 -230 -535 -575 -1027 -991 -1411 -453 -418 -951
-713 -1522 -902 -264 -88 -504 -143 -803 -185 -189 -27 -821 -27 -1010 0 -299
42 -539 97 -803 185 -469 155 -892 385 -1277 691 -542 432 -963 985 -1236
1622 -114 266 -199 545 -258 843 -60 308 -66 377 -66 785 0 408 6 477 66 785
41 209 70 319 138 523 155 469 385 892 691 1277 432 542 985 963 1622 1236
346 148 747 257 1123 303 189 24 198 24 565 21 276 -2 360 -7 477 -24z"/>
<path d="M5086 8889 c-73 -25 -134 -66 -174 -116 -39 -50 -463 -729 -469 -752
-3 -12 148 -178 504 -556 832 -884 1038 -1100 1054 -1103 8 -1 163 156 364
370 193 205 540 574 773 820 232 246 422 454 422 461 0 23 -448 739 -488 780
-20 21 -56 50 -79 64 -91 53 -81 53 -998 53 -829 -1 -851 -1 -909 -21z m390
-66 c-7 -23 -133 -673 -142 -730 l-7 -43 -394 0 c-388 0 -394 0 -383 20 36 67
387 622 414 655 41 50 123 95 190 105 28 4 113 8 189 9 127 1 138 0 133 -16z
m1048 -356 c44 -204 81 -382 84 -394 l4 -23 -606 0 c-548 0 -606 2 -606 16 0
9 34 184 75 389 41 206 75 376 75 379 0 3 201 6 448 6 l447 0 79 -373z m409
340 c34 -17 73 -47 97 -75 22 -26 128 -189 235 -362 l196 -315 -382 -3 c-211
-1 -386 1 -389 5 -4 5 -42 175 -84 378 -43 204 -80 378 -83 388 -5 18 5 18
174 15 172 -3 180 -4 236 -31z m-1564 -929 c38 -93 456 -1136 502 -1250 10
-27 17 -48 15 -48 -5 0 -1263 1333 -1294 1371 l-23 29 379 0 380 0 41 -102z
m1221 95 c0 -15 -584 -1463 -590 -1463 -4 0 -502 1236 -588 1461 -2 5 257 9
587 9 325 0 591 -3 591 -7z m533 -330 c-547 -581 -986 -1047 -1004 -1067 -10
-10 27 91 81 225 55 134 184 454 287 711 l188 468 383 0 383 0 -318 -337z"/>
<path d="M7043 5598 c-41 -9 -42 -10 -54 -66 -43 -211 -56 -257 -70 -252 -8 2
-46 5 -84 5 -93 0 -182 -42 -251 -118 -74 -82 -107 -163 -112 -273 -7 -144 33
-210 131 -221 60 -7 135 27 191 86 l44 48 4 -59 c2 -32 9 -63 14 -68 15 -15
90 14 85 31 -16 60 -7 118 73 493 47 219 86 400 86 402 0 5 -4 4 -57 -8z
m-153 -406 l22 -18 -17 -84 c-10 -47 -31 -112 -47 -144 -35 -70 -115 -158
-165 -181 -158 -75 -148 268 11 390 70 53 156 69 196 37z"/>
<path d="M4450 5574 c-55 -10 -148 -48 -197 -81 -156 -103 -260 -323 -238
-502 28 -225 207 -352 440 -312 69 12 175 51 208 76 18 13 18 15 1 47 -9 18
-18 35 -20 36 -1 2 -37 -13 -79 -34 -65 -32 -88 -38 -160 -42 -77 -4 -90 -2
-141 23 -230 113 -171 531 96 671 50 27 64 29 160 29 96 0 110 -2 163 -29 56
-29 58 -29 72 -10 24 33 39 64 32 70 -3 3 -36 17 -74 31 -67 24 -203 38 -263
27z"/>
<path d="M4980 5278 c-114 -33 -163 -160 -98 -253 12 -16 49 -53 82 -81 67
-56 85 -89 70 -131 -21 -62 -117 -77 -204 -33 l-39 20 -10 -38 c-6 -20 -11
-40 -11 -44 0 -4 26 -16 58 -28 151 -58 304 19 305 153 1 70 -21 107 -99 168
-72 57 -84 74 -84 118 0 65 72 94 167 66 30 -9 56 -15 58 -13 1 2 7 18 14 37
13 39 9 44 -49 61 -43 12 -114 11 -160 -2z"/>
<path d="M5519 5276 c-86 -30 -152 -92 -199 -186 -68 -134 -65 -287 7 -362 63
-66 183 -74 292 -20 50 25 56 31 54 57 -4 55 -8 56 -67 26 -130 -69 -216 -39
-232 80 l-6 45 65 18 c81 22 179 67 221 102 70 58 97 150 60 203 -33 47 -121
64 -195 37z m89 -82 c28 -19 28 -53 2 -87 -21 -27 -142 -91 -192 -103 -35 -8
-35 2 -3 65 28 57 77 108 120 127 39 17 46 17 73 -2z"/>
<path d="M6152 5265 c-29 -13 -78 -48 -109 -77 -36 -34 -54 -46 -50 -33 11 36
28 118 25 120 -4 4 -87 -11 -93 -16 -2 -2 -29 -123 -59 -269 -31 -146 -59
-273 -62 -282 -5 -16 2 -18 44 -18 l49 0 28 138 c15 75 37 155 48 177 25 51
131 156 180 179 51 23 89 18 105 -16 11 -23 6 -54 -33 -241 -25 -118 -45 -219
-45 -225 0 -7 18 -12 45 -12 38 0 45 3 50 23 42 182 85 409 85 454 -1 114 -86
155 -208 98z"/>
<path d="M7352 5273 c-67 -23 -146 -103 -189 -190 -33 -67 -38 -85 -41 -169
-4 -81 -1 -99 18 -139 14 -29 38 -56 63 -73 35 -23 51 -27 116 -27 64 0 85 5
136 30 58 29 60 31 59 68 -1 21 -3 40 -6 42 -3 3 -29 -8 -59 -24 -72 -39 -116
-46 -162 -28 -42 18 -67 60 -67 114 l0 39 91 28 c196 61 304 181 255 283 -28
60 -120 80 -214 46z m109 -84 c48 -48 -32 -129 -169 -174 -29 -9 -55 -15 -57
-13 -8 7 42 103 71 137 26 32 93 70 122 71 6 0 21 -9 33 -21z"/>
<path d="M7827 5275 c-80 -28 -122 -90 -115 -171 6 -66 23 -92 102 -154 76
-59 93 -94 72 -145 -12 -27 -23 -36 -57 -45 -46 -13 -115 -1 -157 26 -29 19
-29 18 -38 -33 -6 -41 -6 -42 32 -58 89 -38 193 -29 263 23 91 68 78 213 -27
285 -68 48 -96 83 -96 123 0 68 72 98 166 70 29 -8 56 -12 60 -8 4 4 9 23 10
42 3 32 0 35 -37 46 -53 17 -131 16 -178 -1z"/>
<path d="M6417 4293 c-17 -3 -32 -13 -37 -26 -8 -18 -190 -866 -190 -883 0 -3
21 -4 47 -2 l47 3 28 134 c15 74 30 136 33 139 10 10 32 -20 110 -147 l80
-130 58 -1 58 0 -34 53 c-19 28 -64 98 -100 153 -37 56 -67 104 -67 106 0 2
67 62 149 133 l149 130 -65 3 -64 3 -97 -88 c-53 -48 -109 -98 -124 -112 -15
-13 -30 -22 -33 -20 -4 4 80 410 110 537 6 23 3 24 -58 15z"/>
<path d="M4716 4254 c-139 -34 -267 -139 -336 -276 -48 -97 -63 -169 -58 -278
7 -149 82 -263 206 -311 76 -30 221 -32 302 -5 74 25 150 64 150 77 0 15 -29
69 -38 69 -4 0 -23 -10 -42 -21 -86 -53 -213 -73 -301 -49 -20 6 -57 28 -81
50 -106 93 -123 265 -43 435 37 77 123 168 193 202 51 25 68 28 157 28 88 0
107 -3 159 -28 64 -29 70 -28 99 22 l18 30 -42 21 c-90 47 -233 61 -343 34z"/>
<path d="M5277 3965 c-80 -28 -122 -90 -115 -171 6 -66 23 -92 102 -154 76
-59 93 -94 72 -145 -12 -27 -23 -36 -57 -45 -46 -13 -115 -1 -157 26 -29 19
-29 18 -38 -33 -6 -41 -6 -42 32 -58 89 -38 193 -29 263 23 91 68 78 213 -27
285 -68 48 -96 83 -96 123 0 68 72 98 166 70 29 -8 56 -12 60 -8 4 4 9 23 10
42 3 32 0 35 -37 46 -53 17 -131 16 -178 -1z"/>
<path d="M5855 3966 c-66 -21 -98 -41 -152 -98 -84 -90 -133 -210 -133 -330 0
-190 160 -238 306 -92 l54 54 0 -50 c0 -28 5 -60 10 -70 9 -17 14 -18 48 -6
l37 13 -3 64 c-2 47 10 123 46 286 l48 221 -73 11 c-93 14 -137 13 -188 -3z
m134 -75 c12 -8 12 -22 -3 -98 -29 -153 -114 -286 -211 -333 -42 -21 -47 -21
-70 -6 -93 61 5 349 144 423 45 23 114 30 140 14z"/>
<path d="M7459 3963 c-151 -50 -269 -235 -269 -420 0 -88 19 -137 64 -164 65
-40 145 -17 235 66 57 53 63 57 58 33 -7 -24 5 -103 15 -114 3 -2 22 2 44 9
l39 14 -3 65 c-3 48 8 119 43 282 25 120 45 219 43 221 -8 7 -139 25 -179 24
-24 0 -65 -7 -90 -16z m149 -72 c20 -12 -20 -189 -60 -263 -56 -106 -167 -199
-217 -183 -27 8 -41 49 -41 114 0 131 88 281 190 325 38 17 107 21 128 7z"/>
<path d="M7085 3956 c-30 -14 -86 -68 -120 -116 l-17 -25 6 38 c3 20 9 53 13
74 l6 36 -42 -6 c-24 -3 -45 -8 -49 -11 -5 -6 -121 -530 -122 -553 0 -9 15
-13 44 -13 52 0 45 -12 81 154 26 121 39 151 106 241 46 61 71 77 129 85 42 5
45 7 53 43 5 20 6 44 3 52 -7 19 -51 19 -91 1z"/>
</g>
</svg>
